<svg id="Layer_35" enable-background="new 0 0 64 64" height="512" viewBox="0 0 64 64" width="512" xmlns="http://www.w3.org/2000/svg"><path d="m2 2h60v8h-60z" fill="#fcd770"/><path d="m2 10h60v36h-60z" fill="#e6e9ed"/><path d="m20.8 25.6c-1.38 1.83-2.32 4.02-2.66 6.4h-12.14c0-2.21.9-4.21 2.34-5.66 1.45-1.44 3.45-2.34 5.66-2.34h1 1c1.8 0 3.46.6 4.8 1.6z" fill="#ef7385"/><path d="m58 32h-12.14c-.34-2.38-1.28-4.57-2.66-6.4 1.34-1 3-1.6 4.8-1.6h1 1c4.42 0 8 3.58 8 8z" fill="#ef7385"/><circle cx="49" cy="19" fill="#f0d0b4" r="5"/><circle cx="15" cy="19" fill="#f0d0b4" r="5"/><path d="m20.5 48.5 1.5 1.5-10.76 10.76c-.79.79-1.87 1.24-3 1.24-1.17 0-2.23-.48-3-1.24-.76-.77-1.24-1.83-1.24-3 0-1.13.45-2.21 1.24-3l8.76-8.76 2-2 1.5 1.5z" fill="#cf9e76"/><path d="m23.72 45.28-3.22 3.22-3-3 3.22-3.22c.84 1.15 1.85 2.16 3 3z" fill="#aab2bd"/><path d="m23.72 45.28c-1.15-.84-2.16-1.85-3-3-1.71-2.32-2.72-5.19-2.72-8.28 0-.68.05-1.35.14-2 .34-2.38 1.28-4.57 2.66-6.4 2.56-3.4 6.62-5.6 11.2-5.6s8.64 2.2 11.2 5.6c1.38 1.83 2.32 4.02 2.66 6.4.09.65.14 1.32.14 2 0 5.09-2.72 9.55-6.79 12-2.11 1.27-4.58 2-7.21 2-3.09 0-5.96-1.01-8.28-2.72z" fill="#ffeaa7"/><circle cx="32" cy="34" fill="#69d6f4" r="10"/><path d="m63 1h-62v46h10.586l-7.051 7.051c-.99.99-1.535 2.306-1.535 3.707 0 2.89 2.352 5.242 5.242 5.242 1.4 0 2.717-.545 3.707-1.535l11.465-11.465-1.5-1.5 1.929-1.929c2.351 1.531 5.149 2.429 8.157 2.429 2.713 0 5.253-.735 7.452-2h23.548zm-2 2v6h-58v-6zm-50.465 57.051c-.612.612-1.427.949-2.293.949-1.788 0-3.242-1.454-3.242-3.242 0-.866.337-1.681.949-2.293l10.051-10.051 4.586 4.586zm9.965-12.965-1.586-1.586 1.729-1.729c.489.567 1.019 1.097 1.586 1.586zm-1.5-13.086c0-7.168 5.832-13 13-13s13 5.832 13 13-5.832 13-13 13-13-5.832-13-13zm-1.698-3h-10.231c.486-3.388 3.408-6 6.929-6h2c1.209 0 2.364.314 3.399.893-.992 1.535-1.72 3.257-2.097 5.107zm-2.302-8c-2.206 0-4-1.794-4-4s1.794-4 4-4 4 1.794 4 4-1.794 4-4 4zm34 0c-2.206 0-4-1.794-4-4s1.794-4 4-4 4 1.794 4 4-1.794 4-4 4zm1 2c3.521 0 6.442 2.612 6.929 6h-10.231c-.377-1.851-1.105-3.572-2.097-5.108 1.035-.579 2.19-.892 3.399-.892zm-7.836 20c2.965-2.742 4.836-6.652 4.836-11 0-.338-.029-.668-.051-1h12.051v-1c0-3.929-2.534-7.269-6.051-8.494 1.254-1.1 2.051-2.71 2.051-4.506 0-3.309-2.691-6-6-6s-6 2.691-6 6c0 1.792.794 3.398 2.043 4.499-.572.199-1.123.458-1.647.773-2.754-3.221-6.837-5.272-11.396-5.272-4.56 0-8.643 2.051-11.396 5.272-.525-.314-1.075-.574-1.647-.773 1.249-1.1 2.043-2.707 2.043-4.499 0-3.309-2.691-6-6-6s-6 2.691-6 6c0 1.796.797 3.406 2.051 4.506-3.517 1.225-6.051 4.565-6.051 8.494v1h12.051c-.022.332-.051.662-.051 1 0 3.008.898 5.806 2.429 8.157l-1.929 1.929-1.5-1.5-2.414 2.414h-10.586v-34h58v34z"/><path d="m5 5h2v2h-2z"/><path d="m9 5h2v2h-2z"/><path d="m13 5h2v2h-2z"/><path d="m32 23c-6.065 0-11 4.935-11 11s4.935 11 11 11 11-4.935 11-11-4.935-11-11-11zm0 20c-4.963 0-9-4.037-9-9s4.037-9 9-9 9 4.037 9 9-4.037 9-9 9z"/><path d="m27 33h10v2h-10z"/><path d="m27 29h10v2h-10z"/><path d="m27 37h10v2h-10z"/><path d="m49 35h10v2h-10z"/><path d="m49 39h10v2h-10z"/><path d="m5 35h10v2h-10z"/><path d="m5 39h10v2h-10z"/><path d="m27 13h2v2h-2z"/><path d="m31 13h2v2h-2z"/><path d="m35 13h2v2h-2z"/></svg>