<?xml version="1.0" encoding="utf-8"?>
<!-- Generator: Adobe Illustrator 23.0.1, SVG Export Plug-In . SVG Version: 6.00 Build 0)  -->
<svg version="1.1" id="Layer_1" xmlns="http://www.w3.org/2000/svg" xmlns:xlink="http://www.w3.org/1999/xlink" x="0px" y="0px"
	 viewBox="0 0 621 1871" style="enable-background:new 0 0 621 1871;" xml:space="preserve">
<style type="text/css">
	.st0{fill:#D29B6E;}
	.st1{fill:#59D8FF;}
	.st2{fill:#00C3F0;}
	.st3{fill:#F0C087;}
	.st4{fill:#E6AF78;}
	.st5{fill:#694B4B;}
	.st6{fill:#5A4146;}
	.st7{fill:#D5DCED;}
	.st8{fill:#AFB9D2;}
	.st9{fill:#FFFFFF;}
	.st10{fill:#F5DCB4;}
	.st11{font-family:'Nunito-Regular';}
	.st12{font-size:14px;}
	.st13{font-family:'Nunito-Bold';}
	.st14{font-size:18px;}
	.st15{font-family:'Nunito-Light';}
	.st16{fill:#FF933B;}
	.st17{fill:#F27D27;}
	.st18{fill:#DDF5FF;}
	.st19{fill:#636363;}
	.st20{fill:#494949;}
	.st21{fill:#F9B3A7;}
	.st22{fill:#FECCC1;}
	.st23{fill:#FFD664;}
	.st24{fill:none;stroke:#000000;stroke-width:2;stroke-miterlimit:10;}
	.st25{fill:none;stroke:#000000;stroke-width:2;stroke-miterlimit:10;stroke-dasharray:6.0001,6.0001;}
	.st26{fill:none;stroke:#000000;stroke-width:2;stroke-miterlimit:10;stroke-dasharray:6.014,6.014;}
	.st27{fill:#EF7385;}
	.st28{fill:#F0D0B4;}
	.st29{fill:#C1B8B7;}
	.st30{fill:#DAD5D4;}
	.st31{fill:#E6E3E2;}
	.st32{fill:#D0F4EF;}
	.st33{fill:#ABE0DA;}
	.st34{fill:#F72B2B;}
	.st35{fill:#D61B1F;}
	.st36{fill:#FFBD47;}
	.st37{fill:#38AAFF;}
	.st38{fill:#E6E9ED;}
	.st39{fill:#AAB2BD;}
	.st40{fill:#838F9B;}
	.st41{fill:#CF9E76;}
	.st42{fill:#FCD770;}
	.st43{fill:#69D6F4;}
	.st44{clip-path:url(#SVGID_2_);}
	.st45{fill:#1B2531;}
	.st46{fill:none;stroke:#000000;stroke-width:2;stroke-miterlimit:10;stroke-dasharray:6.0222,6.0222;}
	.st47{fill:none;stroke:#000000;stroke-width:2;stroke-miterlimit:10;stroke-dasharray:6.0054,6.0054;}
	.st48{fill:#548AFF;}
	.st49{fill:#00B55B;}
	.st50{fill:#BDD1F2;}
	.st51{fill:#02C26A;}
	.st52{fill:#FFC431;}
	.st53{fill:#FFB401;}
	.st54{fill:#E0EDFF;}
	.st55{fill:#E6E7E8;}
	.st56{fill:#2C2F38;}
	.st57{fill:#AF8066;}
	.st58{fill:#7F5B53;}
	.st59{fill:#FF826E;}
	.st60{fill:#B4DD7F;}
	.st61{fill:#FFC729;}
	.st62{fill:none;stroke:#000000;stroke-width:2;stroke-miterlimit:10;stroke-dasharray:6;}
	.st63{clip-path:url(#SVGID_4_);}
	.st64{fill:none;stroke:#000000;stroke-width:2;stroke-miterlimit:10;stroke-dasharray:6,6;}
	.st65{fill:#FF7956;}
	.st66{fill:#FFC477;}
	.st67{fill:none;}
	.st68{fill:#C69C6D;}
	.st69{fill:none;stroke:#000000;stroke-width:2;stroke-miterlimit:10;stroke-dasharray:6.1614,6.1614;}
</style>
<path class="st0" d="M79.3,243.8v10.6c0,1.6-1,3-2.6,3.5l-16.1,4.9c-3.1,0.9-5.2,3.8-5.2,7v26.7c0,5.1,4.1,9.2,9.2,9.2h4.6h48.1
	v-61.9L79.3,243.8L79.3,243.8z"/>
<path class="st1" d="M92.1,271.3c-8.9,0-16.7-4.7-21.2-11.6l-10.3,3.2c-3.1,0.9-5.2,3.8-5.2,7v26.7c0,5.1,4.1,9.2,9.2,9.2h4.6h48.1
	v-59.6C117.3,260,106,271.3,92.1,271.3z"/>
<g>
	<path class="st2" d="M117.3,246.1c0,13.9-11.3,25.2-25.2,25.2c-8.9,0-16.7-4.7-21.2-11.6l-4.5,1.4c5.2,8.9,14.7,14.8,25.7,14.8
		c10.6,0,19.9-5.6,25.2-14V246.1L117.3,246.1z"/>
	<path class="st2" d="M94.4,294.2H71.5c-1.3,0-2.3-1-2.3-2.3v-13.7l-12.5-12.5c-0.8,1.2-1.3,2.6-1.3,4.1v26.7c0,5.1,4.1,9.2,9.2,9.2
		h4.6h32.1v-4.6C101.3,297.3,98.2,294.2,94.4,294.2z"/>
</g>
<path class="st3" d="M112.7,227.8h-1.5l-0.8-16H73.7l-0.8,16h-1.5c-1.9,0-3.4,1.5-3.4,3.4v4.6c0,1.9,1.5,3.4,3.4,3.4h3.3l0.4,2.3
	c0.3,1.7,1.2,3.3,2.5,4.5l7.4,6.1c1,0.8,2.2,1.3,3.5,1.3h7c1.3,0,2.5-0.5,3.5-1.3l7.4-6.1c1.4-1.1,2.3-2.7,2.5-4.5l0.4-2.3h3.3
	c1.9,0,3.4-1.5,3.4-3.4v-4.6C116.1,229.3,114.6,227.8,112.7,227.8z"/>
<path class="st4" d="M115.1,228.8c-0.3-0.3-0.7-0.6-1.1-0.7c-0.4-0.2-0.9-0.3-1.3-0.3h-1.5l0,0l-0.8-16H73.7l-0.8,16h-1.5
	c-1.9,0-3.4,1.5-3.4,3.4v4.6c0,1.9,1.5,3.4,3.4,3.4h3.3l0.4,2.3c0.3,1.7,1.2,3.3,2.5,4.5l7.4,6.1c1,0.8,2.2,1.3,3.5,1.3h2.9
	l-3.1-9.4c-0.5-1.6-0.8-3.3-0.8-5.1v-12.4c0-1.2,1-2.2,2.2-2.3s2.3-0.4,3.3-0.8c2.8,1.3,6.3,1.3,9.1,0l0.6,3.8
	c0.6,3.6,3.8,6.3,7.5,6.3h4.1c0.6,0,1.2-0.1,1.8-0.4v-1.9C116.1,230.3,115.8,229.4,115.1,228.8z"/>
<path class="st5" d="M119.6,211.3c0-2.5-1.7-4.7-4.1-5.3c0.3-0.6,0.4-1.3,0.4-2c0-3-2.5-5.5-5.5-5.5c-0.1,0-0.2,0-0.3,0
	c-0.7-2.1-2.8-3.7-5.2-3.7c-0.6,0-1.1,0.1-1.7,0.3c-1.2-1.3-2.9-2.1-4.7-2.1c-0.5,0-1,0.1-1.4,0.2c-1.3-1.2-3.1-2-5-2s-3.7,0.8-5,2
	c-0.5-0.1-0.9-0.2-1.4-0.2c-1.7,0-3.3,0.7-4.5,1.8h-0.1c-2.4,0-4.4,1.6-5.2,3.7c-0.1,0-0.2,0-0.3,0c-3,0-5.5,2.5-5.5,5.5
	c0,0.7,0.1,1.4,0.4,2c-2.3,0.6-4.1,2.7-4.1,5.3c0,1.4,0.5,2.7,1.4,3.7c-0.9,1-1.4,2.3-1.4,3.7c0,2,1.1,3.8,2.8,4.7
	c0.1,2.5,2.1,4.4,4.6,4.4h2c0.9,0,1.7-0.6,1.8-1.5l1.3-7.7c0.1,0,0.3,0,0.4,0c1.9,0,3.6-1,4.6-2.5c1,1.5,2.7,2.5,4.6,2.5
	s3.6-1,4.6-2.5c1,1.5,2.7,2.5,4.6,2.5s3.6-1,4.6-2.5c1,1.5,2.7,2.5,4.6,2.5c0.1,0,0.3,0,0.4,0l1.3,7.7c0.1,0.9,0.9,1.5,1.8,1.5h2.5
	c2.5,0,4.6-2.1,4.6-4.6v-0.1c1.4-1,2.3-2.6,2.3-4.4c0-1.4-0.5-2.7-1.4-3.7C119,214,119.6,212.7,119.6,211.3z"/>
<path class="st6" d="M90.8,214.6c-2.1-0.7-3.7-2.8-3.7-5.2c0-1.4,0.5-2.7,1.4-3.7c-0.9-1-1.4-2.3-1.4-3.7c0-2.5,1.7-4.7,4.1-5.3
	c-0.3-0.6-0.4-1.3-0.4-2c0-1.4,0.5-2.7,1.4-3.7l0,0c-1.9,0-3.7,0.8-5,2c-0.5-0.1-0.9-0.2-1.4-0.2c-1.7,0-3.3,0.7-4.5,1.8h-0.1
	c-2.4,0-4.4,1.6-5.2,3.7c-0.1,0-0.2,0-0.3,0c-3,0-5.5,2.5-5.5,5.5c0,0.7,0.1,1.4,0.4,2c-2.3,0.6-4.1,2.7-4.1,5.3
	c0,1.4,0.5,2.7,1.4,3.7c-0.9,1-1.4,2.3-1.4,3.7c0,2,1.1,3.8,2.8,4.7c0.1,2.5,2.1,4.4,4.6,4.4h2c0.9,0,1.7-0.6,1.8-1.5l1.3-7.7
	c0.1,0,0.3,0,0.4,0c1.9,0,3.6-1,4.6-2.5c1,1.5,2.7,2.5,4.6,2.5c1.3,0,2.4-0.5,3.3-1.2c-0.6-0.7-1-1.5-1-2.5
	C90.7,214.9,90.7,214.8,90.8,214.6z"/>
<path class="st4" d="M87.5,294.2h6.9c3.8,0,6.9,3.1,6.9,6.9v4.6H87.6L87.5,294.2L87.5,294.2z"/>
<path class="st2" d="M117.3,246.1c0,13.9-11.3,25.2-25.2,25.2c-8.9,0-16.7-4.7-21.2-11.6l-6.8,2.1c5.5,9.8,16,16.4,28,16.4
	c10.2,0,19.3-4.8,25.2-12.3V246.1z"/>
<path class="st7" d="M174.6,289.7h-68.7c-3.8,0-6.9-3.1-6.9-6.9v-41.2c0-3.8,3.1-6.9,6.9-6.9h68.7c3.8,0,6.9,3.1,6.9,6.9v41.2
	C181.4,286.6,178.4,289.7,174.6,289.7z"/>
<path class="st8" d="M153.9,305.7l-4.1-30.4c-0.3-2.3-2.2-4-4.5-4H135c-2.3,0-4.2,1.7-4.5,4l-4.1,30.4H153.9z"/>
<circle class="st9" cx="140.2" cy="257.6" r="4.6"/>
<path class="st10" d="M179.1,314.9H50.9c-1.3,0-2.3-1-2.3-2.3V308c0-1.3,1-2.3,2.3-2.3h128.3c1.3,0,2.3,1,2.3,2.3v4.6
	C181.4,313.8,180.4,314.9,179.1,314.9z"/>
<path d="M174.6,291.8c5,0,9-4,9-9v-41.2c0-5-4-9-9-9h-56.5v-1.1c0-1.4-0.5-2.7-1.3-3.7c0.6-0.7,1-1.6,1.2-2.6
	c2.3-1.4,3.8-3.8,3.8-6.6c0-1.3-0.3-2.5-1-3.7c0.6-1.1,1-2.4,1-3.7c0-2.7-1.5-5.2-3.7-6.5c0-0.3,0-0.5,0-0.8c0-3.9-2.9-7.1-6.6-7.6
	c-1.4-2.3-3.8-3.7-6.5-3.7c-0.3,0-0.7,0-1.1,0.1c-1.5-1.2-3.4-1.9-5.4-1.9c-0.3,0-0.5,0-0.8,0c-1.6-1.2-3.6-1.9-5.6-1.9
	s-4,0.7-5.6,1.9c-0.3,0-0.5,0-0.8,0c-2,0-3.8,0.7-5.3,1.9c-2.4,0.2-4.6,1.6-5.8,3.7c-3.7,0.5-6.6,3.7-6.6,7.6c0,0.3,0,0.5,0,0.8
	c-2.3,1.4-3.7,3.8-3.7,6.5c0,1.3,0.3,2.5,1,3.7c-0.6,1.1-1,2.4-1,3.7c0,2.7,1.5,5.2,3.8,6.6c0.1,0.5,0.3,1.1,0.5,1.5
	c-1.5,1.1-2.5,2.8-2.5,4.7v3.7c0,3.2,2.6,5.8,5.8,5.8h1l0.2,1c0.4,2.3,1.5,4.3,3.3,5.8l0.8,0.7v6.1c0,0.7-0.4,1.3-1.1,1.5L60,260.8
	c-4,1.2-6.7,4.9-6.7,9.1v26.7c0,2.6,0.9,5.1,2.4,7h-4.9c-2.4,0-4.4,2-4.4,4.4v4.6c0,2.4,2,4.4,4.4,4.4h128.3c2.4,0,4.4-2,4.4-4.4
	V308c0-2.4-2-4.4-4.4-4.4h-23.3l-1.6-11.7h20.4L174.6,291.8L174.6,291.8z M179.3,241.5v41.2c0,2.6-2.1,4.7-4.7,4.7H154
	c-0.1,0-0.2,0-0.3,0L152,275c-0.4-3.3-3.3-5.8-6.7-5.8H135c-3.4,0-6.2,2.5-6.7,5.8l-1.7,12.5c-0.1,0-0.2,0-0.3,0h-20.6
	c-2.6,0-4.7-2.1-4.7-4.7v-41.2c0-2.6,2.1-4.7,4.7-4.7h68.7C177.2,236.8,179.3,238.9,179.3,241.5z M119.4,303.5v-0.1v-11.6h6.7
	l-1.6,11.7H119.4L119.4,303.5z M112.6,232.5l0.4-2.4c0.4,0.3,0.7,0.7,0.7,1.3v1.1L112.6,232.5L112.6,232.5z M69.5,213.5
	c-0.4-0.4-0.9-1.2-0.9-2.2c0-1.5,1-2.8,2.5-3.2c0.6-0.2,1.1-0.6,1.4-1.1s0.3-1.2,0.1-1.8c-0.2-0.4-0.2-0.8-0.2-1.2
	c0-1.8,1.5-3.3,3.3-3.3c0.1,0,0.2,0,0.3,0c1,0.1,1.8-0.5,2.2-1.4c0.5-1.3,1.7-2.2,3.1-2.3h0.1c0.6,0,1.1-0.2,1.5-0.6
	c0.8-0.8,1.9-1.2,3-1.2c0.3,0,0.6,0,0.9,0.1c0.7,0.2,1.4,0,1.9-0.5c1-0.9,2.2-1.4,3.5-1.4s2.6,0.5,3.5,1.4c0.5,0.5,1.2,0.7,1.9,0.5
	c0.3-0.1,0.6-0.1,0.9-0.1c1.2,0,2.3,0.5,3.1,1.4c0.6,0.6,1.5,0.9,2.3,0.6c0.4-0.1,0.7-0.2,1-0.2c1.4,0,2.7,0.9,3.1,2.3
	c0.3,0.9,1.2,1.5,2.2,1.4c0.1,0,0.2,0,0.3,0c1.8,0,3.3,1.5,3.3,3.3c0,0.4-0.1,0.8-0.2,1.2c-0.2,0.6-0.2,1.2,0.1,1.8
	c0.3,0.5,0.8,1,1.4,1.1c1.5,0.4,2.5,1.7,2.5,3.2c0,1-0.5,1.8-0.9,2.2c-0.7,0.8-0.7,2.1,0,2.9c0.4,0.4,0.9,1.2,0.9,2.2
	c0,1.4-0.9,2.7-2.3,3.1c-0.9,0.3-1.5,1.2-1.4,2.2c0,0.1,0,0.1,0,0.2c0,0.7-0.5,1.2-1.1,1.4c-0.1,0-2.1,0.1-2.1,0.1l-1.2-7.4
	c-0.2-1.1-1.2-1.9-2.3-1.8c-0.1,0-0.2,0-0.3,0l0,0c-1.1,0-2.1-0.6-2.7-1.5c-0.4-0.6-1.1-1-1.8-1l0,0c-0.7,0-1.4,0.4-1.8,1
	c-0.6,0.9-1.7,1.5-2.8,1.5c-1.1,0-2.2-0.6-2.8-1.5c-0.4-0.6-1.1-1-1.8-1l0,0c-0.7,0-1.4,0.4-1.8,1c-0.6,0.9-1.7,1.5-2.8,1.5
	c-1.1,0-2.2-0.6-2.8-1.5c-0.4-0.6-1.1-1-1.8-1l0,0c-0.7,0-1.4,0.4-1.8,1c-0.6,0.9-1.6,1.5-2.7,1.5l0,0c-0.1,0-0.2,0-0.3,0
	c-1.1-0.1-2.1,0.7-2.3,1.8l-1.2,7.4c0,0-2.1,0-2.1-0.1c-0.6-0.2-1.1-0.7-1.1-1.4c0-0.1,0-0.1,0-0.2c0.1-1-0.5-1.9-1.4-2.2
	c-1.4-0.5-2.3-1.7-2.3-3.1c0-1,0.5-1.8,0.9-2.2C70.2,215.6,70.2,214.4,69.5,213.5z M71.9,236.6c-0.8,0-1.5-0.7-1.5-1.5v-3.7
	c0-0.6,0.3-1,0.7-1.3l1,6.5H71.9z M75.5,229.9h0.3c2,0,3.6-1.4,3.9-3.3l1-6c1.1-0.2,2.2-0.7,3.2-1.4c1.3,1,2.9,1.5,4.6,1.5
	s3.3-0.5,4.6-1.5c1.3,1,2.9,1.5,4.6,1.5s3.3-0.5,4.6-1.5c0.9,0.7,2,1.2,3.2,1.4l1,6c0.2,1.4,1.2,2.5,2.4,3l-0.5,2.9h-2.5
	c-5,0-9,4-9,9v9.5c-0.4,0.2-0.8,0.2-1.2,0.2h-7c-0.8,0-1.5-0.3-2.1-0.8l-7.4-6.1c-1-0.8-1.6-1.9-1.8-3.2L75.5,229.9z M77.3,260
	c2.5-0.8,4.1-3,4.1-5.6v-2.5l2.3,1.9c1.4,1.1,3.1,1.8,4.9,1.8h7c0.4,0,0.8,0,1.2-0.1v13.8c-1.3,0.2-2.5,0.3-3.8,0.3
	c-7.2,0-13.9-3.3-18.4-8.8L77.3,260z M57.6,296.5v-26.7c0-2.3,1.5-4.3,3.7-5l9-2.8c5.2,7.4,13.7,11.8,22.7,11.8
	c1.3,0,2.6-0.1,3.8-0.3v9.1c0,5,4,9,9,9h9.3v11.6v0.1h-11.7v-2.4c0-5-4-9-9-9H71.5c-0.1,0-0.1-0.1-0.1-0.1v-13.7
	c0-1.2-1-2.1-2.1-2.1c-1.2,0-2.1,1-2.1,2.1v13.7c0,2.4,2,4.4,4.4,4.4h13.9v7.2H64.6C60.7,303.5,57.6,300.4,57.6,296.5z M89.7,303.5
	v-7.2h4.7c2.6,0,4.7,2.1,4.7,4.7v2.4L89.7,303.5L89.7,303.5z M179.3,308v4.6c0,0.1-0.1,0.1-0.1,0.1H50.9c-0.1,0-0.1-0.1-0.1-0.1V308
	c0-0.1,0.1-0.1,0.1-0.1h128.3C179.2,307.8,179.3,307.9,179.3,308z M128.9,303.5l3.7-28c0.2-1.2,1.2-2.1,2.4-2.1h10.3
	c1.2,0,2.3,0.9,2.4,2.1l3.7,28H128.9z"/>
<path d="M140.2,264.3c3.7,0,6.7-3,6.7-6.7s-3-6.7-6.7-6.7s-6.7,3-6.7,6.7S136.5,264.3,140.2,264.3z M140.2,255.1
	c1.3,0,2.4,1.1,2.4,2.4s-1.1,2.4-2.4,2.4s-2.4-1.1-2.4-2.4S138.9,255.1,140.2,255.1z"/>
<text transform="matrix(1.0756 0 0 1 316 55)" class="st11 st12">Welcome on-board</text>
<text transform="matrix(1.0756 0 0 1 320.1006 71.7998)" class="st11 st12"> to TeeCha 707</text>
<text transform="matrix(1 0 0 1 50.7871 342.064)" class="st13 st14">Client Sign Up</text>
<text transform="matrix(1 0 0 1 405.7871 343.064)" class="st13 st14">Give Student Info</text>
<text transform="matrix(1 0 0 1 51.0586 364.4902)" class="st15 st12">Click Get a Tutor tab,</text>
<text transform="matrix(1 0 0 1 51.0586 381.2902)" class="st15 st12">Fill the sign up form </text>
<text transform="matrix(1 0 0 1 51.0586 398.0902)" class="st15 st12">with your contact info.</text>
<text transform="matrix(1 0 0 1 406.0586 364.4902)" class="st15 st12">You will be required to give</text>
<text transform="matrix(1 0 0 1 406.0586 381.2902)" class="st15 st12"> academic details of the</text>
<text transform="matrix(1 0 0 1 406.0586 398.0902)" class="st15 st12"> student and the areas</text>
<text transform="matrix(1 0 0 1 406.0586 414.8901)" class="st15 st12"> of concern.</text>
<path class="st16" d="M487.2,240.3l1.5,38.9h-62.1l1.5-38.9L487.2,240.3L487.2,240.3z"/>
<path class="st17" d="M488.6,279.2l-1.5-38.9h-57.3c1.4,14.1,13.3,25.2,27.8,25.2c8.2,0,15.5-3.5,20.6-9.2c1.5-1.6,4.2-0.6,4.2,1.6
	l0.8,21.3H488.6L488.6,279.2z"/>
<path class="st18" d="M442.9,274.8l-20.9,5.8c-8.5,2.4-14.3,10.1-14.3,18.9v15.7h99.8v-15.7c0-8.8-5.9-16.5-14.3-18.9l-20.9-5.8
	H442.9z"/>
<path class="st19" d="M493.2,280.6l-13.8-3.8l-7.3,38.4h35.5v-15.7C507.5,290.7,501.6,283,493.2,280.6z"/>
<path class="st20" d="M493.2,280.6l-1.6-0.4c4.3,3.6,6.9,9,6.9,14.9v20.1h9v-15.7C507.5,290.7,501.6,283,493.2,280.6z"/>
<path class="st19" d="M422,280.6l13.8-3.8l7.3,38.4h-35.5v-15.7C407.7,290.7,413.6,283,422,280.6z"/>
<path class="st21" d="M466.4,274.8l-8.8,11.3l-8.8-11.3v-20.1h17.6L466.4,274.8L466.4,274.8z"/>
<path class="st17" d="M480.6,220h6.4v9.8h-6.4V220z"/>
<path class="st19" d="M486.9,220v-25.2h-58.7V220H486.9z"/>
<path class="st20" d="M482.3,194.8v15.4c0,2.7-2.2,4.9-4.9,4.9h-49.2v4.9h58.7v-25.2L482.3,194.8L482.3,194.8z"/>
<path class="st16" d="M428.2,220h6.4v9.8h-6.4V220z"/>
<path class="st22" d="M457.6,220h-23v17.6c0,12.7,10.3,23,23,23s23-10.3,23-23V220H457.6z"/>
<path class="st21" d="M473.7,220v17.6c0,11.5-8.5,21.1-19.6,22.7c1.1,0.2,2.3,0.3,3.4,0.3c12.7,0,23-10.3,23-23V220H473.7z"/>
<path class="st22" d="M430.9,241.3h4.9v-13.2h-4.9c-2.7,0-4.9,2.2-4.9,4.9v3.4C426,239.1,428.2,241.3,430.9,241.3z"/>
<path class="st21" d="M484.2,241.3h-4.9v-13.2h4.9c2.7,0,4.9,2.2,4.9,4.9v3.4C489.1,239.1,486.9,241.3,484.2,241.3z"/>
<path class="st23" d="M503.3,220.5c0,2.4-2,4.4-4.4,4.4s-4.4-2-4.4-4.4s2-4.4,4.4-4.4S503.3,218.1,503.3,220.5z"/>
<path d="M507.5,302.9c1,0,1.8-0.8,1.8-1.8v-1.6c0-9.6-6.4-18.1-15.7-20.6l-3.2-0.9l-1.4-36.8c1.2-1.2,1.9-2.9,1.9-4.7V233
	c0-2-0.8-3.7-2.2-5v-31.3h8.3v17.9c-2.5,0.8-4.4,3.2-4.4,6s1.9,5.2,4.4,6v4.6c0,1,0.8,1.8,1.8,1.8s1.8-0.8,1.8-1.8v-4.6
	c2.5-0.8,4.4-3.2,4.4-6s-1.9-5.2-4.4-6v-17.9h1.8c1,0,1.8-0.8,1.8-1.8s-0.8-1.8-1.8-1.8h-90c-1,0-1.8,0.8-1.8,1.8s0.8,1.8,1.8,1.8
	h13.8v4.2c0,1,0.8,1.8,1.8,1.8s1.8-0.8,1.8-1.8v-4.2h55v21.5h-55v-8.8c0-1-0.8-1.8-1.8-1.8s-1.8,0.8-1.8,1.8V228
	c-1.4,1.2-2.2,3-2.2,5v3.4c0,1.8,0.7,3.5,1.9,4.7l-1.4,36.8l-3.2,0.9c-9.2,2.6-15.7,11-15.7,20.6v1.6c0,1,0.8,1.8,1.8,1.8
	s1.8-0.8,1.8-1.8v-1.6c0-7.9,5.3-15,13-17.1l11.9-3.3l6.5,34.3h-12.8v-5.7c0-1-0.8-1.8-1.8-1.8s-1.8,0.8-1.8,1.8v5.7h-14.9v-3.7
	c0-1-0.8-1.8-1.8-1.8s-1.8,0.8-1.8,1.8v5.5c0,1,0.8,1.8,1.8,1.8H443l0,0l0,0h29l0,0l0,0h35.5c1,0,1.8-0.8,1.8-1.8v-5.5
	c0-1-0.8-1.8-1.8-1.8s-1.8,0.8-1.8,1.8v3.7h-14.9v-5.7c0-1-0.8-1.8-1.8-1.8s-1.8,0.8-1.8,1.8v5.7h-12.8l6.5-34.3l11.9,3.3
	c7.6,2.1,13,9.1,13,17.1v1.6C505.6,302.1,506.5,302.9,507.5,302.9z M498.9,223.1c-1.4,0-2.6-1.2-2.6-2.6c0-1.4,1.2-2.6,2.6-2.6
	s2.6,1.2,2.6,2.6C501.5,221.9,500.3,223.1,498.9,223.1z M472.8,273c-0.2,0-0.3-0.1-0.5-0.1h-4V260c6.8-3.2,11.9-9.4,13.6-16.9h2.4
	c0.4,0,0.8,0,1.2-0.1l1.3,33.9L472.8,273z M450.6,261.5c2.2,0.6,4.6,1,7,1s4.8-0.3,7-1v12.7l-7,8.9l-7-8.9V261.5z M487.3,233v3.4
	c0,1.7-1.4,3.1-3.1,3.1h-1.8V230h1.8C485.9,229.9,487.3,231.3,487.3,233z M485.1,226.3c-0.3,0-0.6-0.1-0.9-0.1h-1.8v-4.4h2.7V226.3z
	 M478.7,228.1v9.5c0,11.7-9.5,21.2-21.2,21.2s-21.2-9.5-21.2-21.2v-15.8h42.3v6.3L478.7,228.1L478.7,228.1z M430.1,221.9h2.7v4.4
	H431c-0.3,0-0.6,0-0.9,0.1V221.9L430.1,221.9z M432.8,237.6v1.8H431c-1.7,0-3.1-1.4-3.1-3.1V233c0-1.7,1.4-3.1,3.1-3.1h1.8V237.6z
	 M429.7,243c0.4,0.1,0.8,0.1,1.2,0.1h2.5c1.7,7.5,6.8,13.7,13.6,16.9v13h-4c-0.2,0-0.3,0-0.5,0.1l-14,3.9L429.7,243z M470.5,313.3
	h-25.8l-6.7-35.2l5.2-1.4h4.7l8.3,10.5c0.3,0.4,0.9,0.7,1.4,0.7c0.6,0,1.1-0.3,1.4-0.7l8.3-10.5h4.7l5.2,1.4L470.5,313.3z"/>
<g>
	<g>
		<line class="st24" x1="222" y1="260.5" x2="225" y2="260.5"/>
		<path class="st25" d="M231,260.5c14.8,5.9,40,13.8,72,13.5c30.4-0.2,54.5-7.7,69-13.5"/>
		<line class="st24" x1="375" y1="260.5" x2="378" y2="260.5"/>
	</g>
</g>
<g>
	<g>
		<line class="st24" x1="224" y1="613" x2="227" y2="613"/>
		<path class="st25" d="M233,613c18.4-6.9,50.5-15.9,90-12c20.6,2,37.8,7,51,12"/>
		<line class="st24" x1="377" y1="613" x2="380" y2="613"/>
	</g>
</g>
<g>
	<g>
		<line class="st24" x1="223" y1="986" x2="226" y2="986"/>
		<line class="st25" x1="232" y1="986" x2="373" y2="986"/>
		<line class="st24" x1="376" y1="986" x2="379" y2="986"/>
	</g>
</g>
<g>
	<g>
		<path class="st24" d="M263,77c-0.3-0.5-0.6-1.1-1-1.7"/>
		<path class="st26" d="M260.1,72.2c-1.1-1.7-2.3-3.4-3.6-5.2c-1.4-1.9-4.9-6.4-8.4-9c-7.9-5.8-15.1-1.2-20,2
			c-2.6,1.8-5.3,4.5-10.7,10c-9.4,9.6-11.4,11.7-15.7,13c-2.5,0.7-5.1,0.8-8.8,1c-3.8,0.2-5.1-0.2-8.1,0c-4.1,0.2-6.7,1-10.4,2
			c-7.9,2.1-13.7,2.9-21.5,4c-4.5,0.7-8.1,1.1-12.9,0.8c-2-0.1-3.1-0.3-6.3-0.8c0,0-6.8-1-15-2c-13.7-1.7-20.6-2.5-24.6,2
			c-6.7,7.6-10.2,21.3-11.1,25c-5.1,20.2-4.6,42.6-3.6,56.3"/>
		<path class="st24" d="M79.6,174.3c0.1,1,0.2,2,0.3,2.9"/>
		<g>
			<path d="M79.8,176.4c0.5-2.6,2-4.7,3-5.6c-1.1,3.8-1.9,8.4-2.1,13.2c-1.2-3.8-2.8-6.2-4.6-8C77.3,175.3,78.7,175,79.8,176.4z"/>
		</g>
	</g>
</g>
<path class="st27" d="M349.9,146.7v7.3h-24.4v-7.3H349.9z"/>
<path class="st28" d="M333.8,131l4.6-4.5c0.5-0.5,0.8-1.2,0.8-1.9v-12.1c0-1-0.6-1.9-1.6-2.6l-9.5-6.4c-0.7-0.5-1.1-1.2-1.1-1.8
	c0-0.7,0.4-1.4,1.1-1.8c0.7-0.5,1.7-0.7,2.7-0.7s2,0.3,2.7,0.7l11.3,7.7c0.8,0.5,1.3,1.2,1.5,1.9l3.6,12.3c0.1,0.3,0.1,0.5,0.1,0.7
	v10c0,0.5-0.1,0.9-0.3,1.3l-3.4,6.1c-0.2,0.4-0.3,0.9-0.3,1.3v5.8h-15v-7.2c0-0.7-0.3-1.4-0.9-2l-13.2-11.3c-0.5-0.5-0.8-1-0.8-1.6
	v-0.1c0-1.4,1.7-2.6,3.8-2.6c1,0,2,0.3,2.7,0.7l8.1,7C331.5,130.4,332.6,130.8,333.8,131z"/>
<path class="st28" d="M339.1,112.4v1.2l-8.1-2.7l-6.5,0.9c-0.2,0-0.4,0.1-0.6,0.1h-0.8c-1.7,0-3-0.9-3-2c0-1,1-1.8,2.4-2l9.8-1.5
	l5.2,3.5C338.5,110.5,339.1,111.4,339.1,112.4z"/>
<path d="M347.5,140l3.4-6.1c0.3-0.5,0.4-1.1,0.4-1.6v-10c0-0.3,0-0.6-0.1-0.9l-3.6-12.3c-0.3-0.9-0.9-1.7-1.9-2.4L334.4,99
	c-1-0.7-2.3-1-3.7-1c-2.9,0-5.2,1.6-5.2,3.5c0,0.9,0.5,1.8,1.5,2.5l2.6,1.8l-7.4,1.2c-2,0.3-3.4,1.5-3.4,2.9c0,1.6,2,3,4.4,3h0.8
	c0.3,0,0.6,0,0.9-0.1l6-0.8l7,2.4v10.4c0,0.5-0.2,1-0.5,1.4l-4,4c-0.6-0.2-1.1-0.5-1.5-0.8l-8.1-7l-0.1-0.1c-1-0.7-2.3-1-3.7-1
	c-2.9,0-5.2,1.6-5.2,3.5v0.1c0,0.8,0.4,1.6,1.1,2.2l13.1,11.2c0.4,0.5,0.7,0.9,0.7,1.6v6.2h-5.4v9h27.1v-9.2h-4.1V141
	C347.2,140.6,347.3,140.3,347.5,140z M324.2,110.8c-0.1,0-0.2,0-0.3,0h-0.8c-0.9,0-1.7-0.5-1.7-1.2c0-0.5,0.5-1,1.3-1.1l9.1-1.4
	l4.7,3.2c0.7,0.5,1.1,1.1,1.2,1.7l-6.5-2.2L324.2,110.8z M348.6,153.2h-21.7v-5.5h21.7V153.2z M332.3,145.8v-6.2
	c0-0.9-0.4-1.8-1.2-2.6L318,125.7c-0.3-0.3-0.5-0.7-0.5-1v-0.1c0-0.9,1.1-1.7,2.5-1.7c0.6,0,1.2,0.1,1.7,0.5l8,7
	c1.3,1.2,3.2,1.8,5.3,1.8h5.5v-1.8h-4.2l3.3-3.3c0.6-0.7,1-1.6,1-2.4v-12.1c0-1.2-0.7-2.4-2-3.3l-9.5-6.4c-0.5-0.3-0.7-0.7-0.7-1.2
	c0-0.9,1.1-1.7,2.5-1.7c0.7,0,1.3,0.2,1.8,0.5L344,108c0.6,0.4,1,0.9,1.1,1.4l3.6,12.3c0.1,0.2,0.1,0.3,0.1,0.5v10
	c0,0.3-0.1,0.7-0.3,0.9l-3.4,6.1c-0.3,0.5-0.4,1.1-0.4,1.6v4.8L332.3,145.8L332.3,145.8L332.3,145.8z"/>
<polygon class="st29" points="297,105.9 299.3,90.1 266.9,84.5 289,96.4 "/>
<polygon class="st30" points="295.4,94 297,105.9 266.9,84.5 "/>
<g>
	<polygon class="st31" points="295.4,94 279.5,102.7 266.9,84.5 	"/>
	<polygon class="st31" points="299.3,90.1 309.6,84.5 266.9,84.5 	"/>
</g>
<path d="M266.2,84.8c-0.2-0.5,0.1-1.1,0.7-1.1h42.8c0.2,0,0.5,0.1,0.6,0.3c0.3,0.4,0.2,0.9-0.2,1.1l-10,5.4l0,0l-2.3,15.5
	c-0.1,0.5-0.7,0.8-1.2,0.5l-9.7-6.9l0,0l-6.9,3.8c-0.3,0.2-0.8,0.1-1-0.2l-7.3-10.4c-0.2-0.3-0.2-0.8,0.2-1c0.3-0.2,0.8-0.2,1,0.2
	l6.9,9.9l0,0l13.8-7.6l0,0L268.8,86l0,0l2.1,3c0.2,0.3,0.2,0.8-0.2,1.1c-0.3,0.2-0.8,0.2-1-0.2L266.2,84.8
	C266.2,84.9,266.2,84.9,266.2,84.8z M275.7,85.3l23.6,4l0,0l7.5-4l0,0H275.7L275.7,85.3z M288.2,98.8l7.8,5.5l0,0l-1.2-9.1l0,0
	L288.2,98.8L288.2,98.8z M295.6,93.3c0.3,0.1,0.5,0.3,0.5,0.6l0.9,6.7l0,0l1.5-9.9l0,0l-22.1-3.8l0,0L295.6,93.3z"/>
<g>
	<g>
		<line class="st24" x1="471.9" y1="430" x2="471.9" y2="431.8"/>
		<line class="st25" x1="471.9" y1="435.5" x2="471.9" y2="521.3"/>
		<line class="st24" x1="471.9" y1="523.2" x2="471.9" y2="525"/>
	</g>
</g>
<text transform="matrix(1 0 0 1 349.7871 685.064)" class="st13 st14">Agree on Timetable/Classes</text>
<text transform="matrix(1 0 0 1 352.0586 712.4902)" class="st15 st12">After the assessor establishes the</text>
<text transform="matrix(1 0 0 1 352.0586 729.2902)" class="st15 st12"> student needs we plan a timetable</text>
<text transform="matrix(1 0 0 1 352.0586 746.0902)" class="st15 st12"> that is most convenient then share </text>
<text transform="matrix(1 0 0 1 352.0586 762.8901)" class="st15 st12">it with you for approval.</text>
<path class="st32" d="M528.2,646.5H415.7c-1.7,0-3.1-1.4-3.1-3.1v-92.5c0-5.5,4.4-9.9,9.9-9.9h99c5.5,0,9.9,4.4,9.9,9.9v92.5
	C531.3,645.1,530,646.5,528.2,646.5z"/>
<path class="st33" d="M531.3,550.8v92.5c0,1.7-1.4,3.1-3.1,3.1h-9.4c1.7,0,3.1-1.4,3.1-3.1v-92.5c0-5.5-4.4-9.9-9.9-9.9h9.4
	C526.9,540.9,531.3,545.3,531.3,550.8z"/>
<path class="st34" d="M531.3,550.8v15.1H412.6v-15.1c0-5.5,4.4-9.9,9.9-9.9h99C526.9,540.9,531.3,545.3,531.3,550.8z"/>
<path class="st35" d="M531.3,550.8v15.1h-9.4v-15.1c0-5.5-4.4-9.9-9.9-9.9h9.4C526.9,540.9,531.3,545.3,531.3,550.8z"/>
<path class="st34" d="M462,635.7c-1.5,0-2.9-0.6-4-1.7l-10-10c-2.2-2.2-2.2-5.8,0-8.1c2.2-2.2,5.8-2.2,8.1,0l6,6l23.3-23.3
	c2.2-2.2,5.8-2.2,8.1,0c2.2,2.2,2.2,5.8,0,8.1L466.1,634C465,635.1,463.5,635.7,462,635.7z"/>
<g>
	<path class="st36" d="M433.8,548.8h-3.6c-1.5,0-2.8-1.2-2.8-2.8v-9.4c0-1.5,1.2-2.8,2.8-2.8h3.6c1.5,0,2.8,1.2,2.8,2.8v9.4
		C436.6,547.6,435.3,548.8,433.8,548.8z"/>
	<path class="st36" d="M459.7,548.8h-3.6c-1.5,0-2.8-1.2-2.8-2.8v-9.4c0-1.5,1.2-2.8,2.8-2.8h3.6c1.5,0,2.8,1.2,2.8,2.8v9.4
		C462.5,547.6,461.3,548.8,459.7,548.8z"/>
	<path class="st36" d="M485.7,548.8h-3.6c-1.5,0-2.8-1.2-2.8-2.8v-9.4c0-1.5,1.2-2.8,2.8-2.8h3.6c1.5,0,2.8,1.2,2.8,2.8v9.4
		C488.5,547.6,487.2,548.8,485.7,548.8z"/>
	<path class="st36" d="M511.7,548.8H508c-1.5,0-2.8-1.2-2.8-2.8v-9.4c0-1.5,1.2-2.8,2.8-2.8h3.6c1.5,0,2.8,1.2,2.8,2.8v9.4
		C514.4,547.6,513.2,548.8,511.7,548.8z"/>
</g>
<path class="st37" d="M541.4,634.1c0,13.2-10.7,23.9-23.9,23.9c-13.2,0-23.9-10.7-23.9-23.9s10.7-23.9,23.9-23.9
	C530.7,610.2,541.4,620.9,541.4,634.1z"/>
<path class="st32" d="M534.7,634.1c0,9.5-7.7,17.2-17.2,17.2s-17.2-7.7-17.2-17.2s7.7-17.2,17.2-17.2S534.7,624.6,534.7,634.1z"/>
<path d="M412.6,626.4c1.1,0,1.9-0.9,1.9-1.9v-56.6h114.9v21.4c0,1.1,0.9,1.9,1.9,1.9c1.1,0,1.9-0.9,1.9-1.9v-38.4
	c0-6.5-5.3-11.8-11.8-11.8h-5.1v-2.4c0-2.6-2.1-4.7-4.7-4.7H508c-2.6,0-4.7,2.1-4.7,4.7v2.4h-12.9v-2.4c0-2.6-2.1-4.7-4.7-4.7h-3.6
	c-2.6,0-4.7,2.1-4.7,4.7v2.4h-12.9v-2.4c0-2.6-2.1-4.7-4.7-4.7h-3.6c-2.6,0-4.7,2.1-4.7,4.7v2.4h-12.9v-2.4c0-2.6-2.1-4.7-4.7-4.7
	h-3.6c-2.6,0-4.7,2.1-4.7,4.7v2.4h-3c-6.5,0-11.8,5.3-11.8,11.8v73.7C410.6,625.6,411.5,626.4,412.6,626.4z M507.2,536.6
	c0-0.5,0.4-0.8,0.8-0.8h3.6c0.5,0,0.8,0.4,0.8,0.8v9.4c0,0.5-0.4,0.8-0.8,0.8H508c-0.5,0-0.8-0.4-0.8-0.8V536.6z M481.2,536.6
	c0-0.5,0.4-0.8,0.8-0.8h3.6c0.5,0,0.8,0.4,0.8,0.8v9.4c0,0.5-0.4,0.8-0.8,0.8H482c-0.5,0-0.8-0.4-0.8-0.8V536.6z M455.3,536.6
	c0-0.5,0.4-0.8,0.8-0.8h3.6c0.5,0,0.8,0.4,0.8,0.8v9.4c0,0.5-0.4,0.8-0.8,0.8h-3.6c-0.5,0-0.8-0.4-0.8-0.8V536.6z M429.3,536.6
	c0-0.5,0.4-0.8,0.8-0.8h3.6c0.5,0,0.8,0.4,0.8,0.8v9.4c0,0.5-0.4,0.8-0.8,0.8h-3.6c-0.5,0-0.8-0.4-0.8-0.8V536.6z M422.5,542.9h3
	v3.1c0,2.6,2.1,4.7,4.7,4.7h3.6c2.6,0,4.7-2.1,4.7-4.7v-3.1h12.9v3.1c0,2.6,2.1,4.7,4.7,4.7h3.6c2.6,0,4.7-2.1,4.7-4.7v-3.1h12.9
	v3.1c0,2.6,2.1,4.7,4.7,4.7h3.6c2.6,0,4.7-2.1,4.7-4.7v-3.1h12.9v3.1c0,2.6,2.1,4.7,4.7,4.7h3.6c2.6,0,4.7-2.1,4.7-4.7v-3.1h5.1
	c4.4,0,7.9,3.6,7.9,7.9V564H414.5v-13.2C414.5,546.4,418.1,542.9,422.5,542.9z"/>
<path d="M432.6,644.5h-17c-0.6,0-1.2-0.5-1.2-1.2v-10c0-1.1-0.9-1.9-1.9-1.9c-1.1,0-1.9,0.9-1.9,1.9v10c0,2.8,2.3,5.1,5.1,5.1h17
	c1.1,0,1.9-0.9,1.9-1.9C434.6,645.4,433.7,644.5,432.6,644.5z"/>
<path d="M432.6,573.5h-6.8c-1.1,0-1.9,0.9-1.9,1.9c0,1.1,0.9,1.9,1.9,1.9h6.8c1.1,0,1.9-0.9,1.9-1.9S433.7,573.5,432.6,573.5z"/>
<path d="M446.6,577.4h6.8c1.1,0,1.9-0.9,1.9-1.9c0-1.1-0.9-1.9-1.9-1.9h-6.8c-1.1,0-1.9,0.9-1.9,1.9
	C444.6,576.5,445.5,577.4,446.6,577.4z"/>
<path d="M467.4,577.4h6.8c1.1,0,1.9-0.9,1.9-1.9c0-1.1-0.9-1.9-1.9-1.9h-6.8c-1.1,0-1.9,0.9-1.9,1.9
	C465.4,576.5,466.3,577.4,467.4,577.4z"/>
<path d="M488.1,577.4h6.8c1.1,0,1.9-0.9,1.9-1.9c0-1.1-0.9-1.9-1.9-1.9h-6.8c-1.1,0-1.9,0.9-1.9,1.9S487.1,577.4,488.1,577.4z"/>
<path d="M515.7,573.5h-6.8c-1.1,0-1.9,0.9-1.9,1.9c0,1.1,0.9,1.9,1.9,1.9h6.8c1.1,0,1.9-0.9,1.9-1.9S516.7,573.5,515.7,573.5z"/>
<path d="M432.6,583.3h-6.8c-1.1,0-1.9,0.9-1.9,1.9s0.9,1.9,1.9,1.9h6.8c1.1,0,1.9-0.9,1.9-1.9S433.7,583.3,432.6,583.3z"/>
<path d="M446.6,587.2h6.8c1.1,0,1.9-0.9,1.9-1.9s-0.9-1.9-1.9-1.9h-6.8c-1.1,0-1.9,0.9-1.9,1.9S445.5,587.2,446.6,587.2z"/>
<path d="M467.4,587.2h6.8c1.1,0,1.9-0.9,1.9-1.9s-0.9-1.9-1.9-1.9h-6.8c-1.1,0-1.9,0.9-1.9,1.9S466.3,587.2,467.4,587.2z"/>
<path d="M488.1,587.2h6.8c1.1,0,1.9-0.9,1.9-1.9s-0.9-1.9-1.9-1.9h-6.8c-1.1,0-1.9,0.9-1.9,1.9S487.1,587.2,488.1,587.2z"/>
<path d="M515.7,583.3h-6.8c-1.1,0-1.9,0.9-1.9,1.9s0.9,1.9,1.9,1.9h6.8c1.1,0,1.9-0.9,1.9-1.9S516.7,583.3,515.7,583.3z"/>
<path d="M446.6,625.4l10,10c1.4,1.4,3.4,2.2,5.4,2.2s4-0.8,5.4-2.2l27.4-27.4c3-3,3-7.8,0-10.8s-7.8-3-10.8,0l-22,22l-4.6-4.6
	c-3-3-7.8-3-10.8,0C443.7,617.5,443.7,622.4,446.6,625.4z M449.4,617.3c0.7-0.7,1.7-1.1,2.7-1.1s1.9,0.4,2.7,1.1l6,6
	c0.8,0.8,2,0.8,2.7,0l23.3-23.3c1.5-1.5,3.9-1.5,5.3,0c1.5,1.5,1.5,3.9,0,5.3l-27.4,27.4c-0.7,0.7-1.7,1.1-2.7,1.1s-2-0.4-2.7-1.1
	l-10-10C447.9,621.2,447.9,618.8,449.4,617.3z"/>
<path d="M533.3,613.6v-15.5c0-1.1-0.9-1.9-1.9-1.9c-1.1,0-1.9,0.9-1.9,1.9v13c-3.5-1.8-7.6-2.9-11.8-2.9
	c-14.2,0-25.8,11.6-25.8,25.8c0,3.7,0.8,7.3,2.2,10.5h-52.5c-1.1,0-1.9,0.9-1.9,1.9c0,1.1,0.9,1.9,1.9,1.9h54.6
	c4.6,6.9,12.5,11.4,21.4,11.4c14.2,0,25.8-11.6,25.8-25.8C543.4,625.7,539.4,618.3,533.3,613.6z M517.6,656
	c-12.1,0-21.9-9.8-21.9-21.9s9.8-21.9,21.9-21.9c12.1,0,21.9,9.8,21.9,21.9S529.7,656,517.6,656z"/>
<path d="M517.6,615c-10.5,0-19.1,8.6-19.1,19.1s8.6,19.1,19.1,19.1c10.5,0,19.1-8.6,19.1-19.1C536.7,623.5,528.1,615,517.6,615z
	 M519.3,649.2c0.1-0.3,0.2-0.6,0.2-0.9v-2.4c0-1.1-0.9-1.9-1.9-1.9c-1.1,0-1.9,0.9-1.9,1.9v2.4c0,0.3,0.1,0.6,0.2,0.9
	c-7-0.8-12.6-6.4-13.4-13.4c0.3,0.1,0.6,0.2,0.9,0.2h2.4c1.1,0,1.9-0.9,1.9-1.9s-0.9-1.9-1.9-1.9h-2.4c-0.3,0-0.6,0.1-0.9,0.2
	c0.8-7,6.4-12.6,13.4-13.4c-0.1,0.3-0.2,0.6-0.2,0.9v2.4c0,1.1,0.9,1.9,1.9,1.9c1.1,0,1.9-0.9,1.9-1.9v-2.4c0-0.3-0.1-0.6-0.2-0.9
	c7,0.8,12.6,6.4,13.4,13.4c-0.3-0.1-0.6-0.2-0.9-0.2h-2.4c-1.1,0-1.9,0.9-1.9,1.9s0.9,1.9,1.9,1.9h2.4c0.3,0,0.6-0.1,0.9-0.2
	C531.9,642.8,526.3,648.4,519.3,649.2z"/>
<path d="M521.9,632.1h-2.3v-2c0-1.1-0.9-1.9-1.9-1.9c-1.1,0-1.9,0.9-1.9,1.9v3.9c0,1.1,0.9,1.9,1.9,1.9h4.3c1.1,0,1.9-0.9,1.9-1.9
	S522.9,632.1,521.9,632.1z"/>
<text transform="matrix(1 0 0 1 54.7871 684.064)" class="st13 st14">Assessment Class</text>
<text transform="matrix(1 0 0 1 55.0586 706.4902)" class="st15 st12">We organize an assessment</text>
<text transform="matrix(1 0 0 1 55.0586 723.2902)" class="st15 st12"> class to plan for the tuition</text>
<text transform="matrix(1 0 0 1 55.0586 740.0902)" class="st15 st12"> sessions</text>
<path class="st38" d="M107.6,546.6v-16.5H153v16.5h-18.6L122,556.9v-10.3H107.6L107.6,546.6z"/>
<path class="st38" d="M134.5,633.3v20.6h-8.3l-4.1-8.3h-33l-4.1,8.3h-8.3V625h57.8L134.5,633.3L134.5,633.3z"/>
<path class="st38" d="M134.5,616.8v8.3H76.7v-8.3H134.5z"/>
<path class="st39" d="M140.6,608.5v8.3H72.5v-8.3H140.6z"/>
<path class="st40" d="M122.1,645.7l4.1,8.3H84.9l4.1-8.3H122.1z"/>
<path class="st40" d="M157.2,633.3l2.1,20.6H151l-2.1-20.6H157.2z"/>
<path class="st41" d="M169.5,596.1v24.8c0,6.8-5.6,12.4-12.4,12.4h-22.7V625H153c4.6,0,8.3-3.7,8.3-8.3v-20.6H169.5z"/>
<path class="st42" d="M155.9,593.3c0.8-0.8,1.3-1.9,1.3-3.1c0-1.2-0.5-2.3-1.3-3.1c-0.6-0.6-1.4-1.1-2.8-1.3l0,0h2.8
	c0.8,0,1.7,0.2,2.4,0.6c1.8,0.9,3,2.8,3,4.8v25.6c0,4.6-3.7,8.3-8.3,8.3h-18.6v-8.3h6.2v-8.3h-0.8c0.5,0,1.1-0.2,1.4-0.6
	L155.9,593.3z"/>
<path class="st43" d="M117.9,608.5H80.7v-9.8c0-2.8,1.8-5.2,4.5-5.9l10-2.8c0,0,2.1,4.1,6.2,4.1s6.2-4.1,6.2-4.1l10,2.8
	c2.7,0.8,4.5,3.2,4.5,5.9v1.5H118c-1.1,0-2.2,0.5-2.9,1.2c-0.8,0.7-1.2,1.8-1.2,2.9C113.8,606.7,115.7,608.5,117.9,608.5z"/>
<g>
	<path class="st28" d="M153,585.8c1.4,0.2,2.2,0.6,2.8,1.3c0.8,0.8,1.3,1.9,1.3,3.1c0,1.2-0.5,2.3-1.3,3.1l-14.6,14.6
		c-0.4,0.4-0.9,0.6-1.4,0.6h-21.9c-2.3,0-4.1-1.9-4.1-4.1c0-1.1,0.5-2.2,1.2-2.9c0.7-0.8,1.8-1.2,2.9-1.2h18.6l13.2-13.2
		c0.8-0.8,1.9-1.3,3.1-1.3C152.9,585.8,152.9,585.8,153,585.8z"/>
	<path class="st28" d="M161.3,571.4v4.1c0,5.7-4.6,10.3-10.3,10.3s-10.3-4.6-10.3-10.3v-4.1c0-5.7,4.6-10.3,10.3-10.3
		c2.8,0,5.4,1.2,7.3,3C160.1,565.9,161.3,568.5,161.3,571.4z"/>
	<path class="st28" d="M95.2,583.7c1.7,1.3,3.9,2.1,6.2,2.1s4.5-0.8,6.2-2.1v6.2c0,0-2.1,4.1-6.2,4.1s-6.2-4.1-6.2-4.1V583.7z"/>
	<path class="st28" d="M111.7,571.4v4.1c0,3.4-1.6,6.4-4.1,8.3c-1.7,1.3-3.9,2.1-6.2,2.1s-4.5-0.8-6.2-2.1c-2.5-1.9-4.1-4.9-4.1-8.3
		v-4.1c0-5.7,4.6-10.3,10.3-10.3c2.8,0,5.4,1.2,7.3,3C110.6,565.9,111.7,568.5,111.7,571.4z"/>
</g>
<path d="M120,561.3l15.2-12.7h19.9V528h-49.5v20.6H120V561.3z M109.7,544.5v-12.4H151v12.4h-17.3l-9.6,8v-8H109.7z"/>
<path d="M113.8,536.3h4.1v4.1h-4.1V536.3z"/>
<path d="M122.1,536.3h16.5v4.1h-16.5V536.3z"/>
<path d="M142.7,536.3h4.1v4.1h-4.1V536.3z"/>
<path d="M161.1,651.9l-1.7-16.7c6.9-1.1,12.2-7.1,12.2-14.3v-26.8h-8.3v-2.9c0-2.8-1.5-5.3-4-6.6c2.5-2.3,4-5.5,4-9.1v-4.1
	c0-6.8-5.6-12.4-12.4-12.4c-6.8,0-12.4,5.6-12.4,12.4v4.1c0,5.3,3.4,9.9,8.2,11.6l-11.1,11.1H124c-0.2-3.4-2.6-6.4-5.9-7.4l-8.5-2.4
	v-3.7c2.5-2.3,4.1-5.5,4.1-9.2v-4.1c0-6.8-5.6-12.4-12.4-12.4s-12.4,5.6-12.4,12.4v4.1c0,3.7,1.6,6.9,4.1,9.2v3.7l-8.5,2.4
	c-3.5,1-6,4.3-6,7.9v7.7h-8.3v12.4h4.1v33H56v4.1h128v-4.1L161.1,651.9L161.1,651.9z M142.7,618.8v-9.5l14.6-14.6
	c1.1-1.1,1.7-2.5,1.8-4c0,0.1,0.1,0.3,0.1,0.4v25.6c0,3.4-2.8,6.2-6.2,6.2h-16.5v-4.1H142.7z M136.5,635.4H147l1.7,16.5h-12.2V635.4
	z M151.2,635.4h4.1l1.7,16.5h-4.1L151.2,635.4z M163.4,616.8v-18.6h4.1v22.7c0,5.7-4.6,10.3-10.3,10.3h-20.6v-4.1H153
	C158.7,627.1,163.4,622.5,163.4,616.8z M142.7,575.5v-4.1c0-4.6,3.7-8.3,8.3-8.3s8.3,3.7,8.3,8.3v4.1c0,4.6-3.7,8.3-8.3,8.3
	C146.4,583.7,142.7,580,142.7,575.5z M137.4,602.3l13.8-13.8c0.4-0.4,1-0.7,1.6-0.7c1.3,0,2.3,1,2.3,2.3c0,0.6-0.2,1.2-0.7,1.6
	l-14.6,14.6h-21.9c-1.1,0-2.1-0.9-2.1-2.1c0-1.1,0.9-2.1,2.1-2.1h19.5L137.4,602.3L137.4,602.3z M93.2,571.4c0-4.6,3.7-8.3,8.3-8.3
	s8.3,3.7,8.3,8.3v4.1c0,4.6-3.7,8.3-8.3,8.3s-8.3-3.7-8.3-8.3V571.4z M101.4,587.9c1.4,0,2.8-0.3,4.1-0.7v2.2
	c-0.5,0.8-1.9,2.6-4.1,2.6c-2.2,0-3.6-1.8-4.1-2.6v-2.2C98.6,587.6,100,587.9,101.4,587.9z M82.8,598.7c0-1.8,1.2-3.5,3-4l8.5-2.4
	c1.2,1.6,3.5,3.8,7.1,3.8s5.9-2.2,7.1-3.8l8.5,2.4c1.6,0.5,2.7,1.8,2.9,3.4h-2c-3.4,0-6.2,2.8-6.2,6.2c0,0.7,0.1,1.4,0.4,2.1H82.8
	V598.7z M74.6,610.6h64v4.1h-64V610.6z M78.7,627.1h6.2V623h-6.2v-4.1h53.7v4.1H89v4.1h43.4v24.8h-4.9l-4.1-8.3H87.8l-4.1,8.3h-4.9
	v-24.8H78.7z M122.9,651.9H88.3l2.1-4.1h30.5L122.9,651.9z"/>
<g>
	<g>
		<g>
			<defs>
				<polygon id="SVGID_1_" points="179.5,818.7 205.4,854.2 165.7,863.7 139.8,828.2 				"/>
			</defs>
			<clipPath id="SVGID_2_">
				<use xlink:href="#SVGID_1_"  style="overflow:visible;"/>
			</clipPath>
			<g class="st44">
				<path class="st45" d="M204.3,852.8L204.3,852.8L166,822.9c-0.9-0.7-2.2-0.5-2.2,0.3l-0.1,8.6c-0.1,0.1-10.5,5.6-10.5,5.7
					c-0.7,0.4-0.3,1.4,0.7,1.9l9.6,3.8l-0.1,9.5c0,0.7,0.9,1.4,1.8,1.4c0.3,0,38.6,0.5,38.7,0.5C205,854.5,205.2,853.5,204.3,852.8z
					 M166.6,825.9l26.9,21l-26.9-14.7V825.9z M165.1,837.4L165.1,837.4C165,837.4,165,837.4,165.1,837.4c-0.3-0.1-0.4-0.1-0.5-0.1
					H159l6.5-3.5l24.1,13.2C163.8,836.9,165.3,837.5,165.1,837.4L165.1,837.4z M159.7,839.5h4v1.5L159.7,839.5z M166.3,851.9
					c0-0.1,0.1-11.6,0.1-11.9l31.5,12.3L166.3,851.9z"/>
				<path class="st45" d="M152.7,833.3c0.2-0.5-0.3-1.2-1.1-1.5L142,828c-0.8-0.3-1.5-0.1-1.6,0.4c-0.2,0.5,0.3,1.2,1.1,1.5l9.6,3.8
					C151.8,834,152.6,833.9,152.7,833.3z"/>
				<path class="st45" d="M159.7,831.7c0.2-0.5-0.3-1.2-1.1-1.5l-9.6-3.8c-0.8-0.3-1.5-0.1-1.6,0.4c-0.2,0.5,0.3,1.2,1.1,1.5
					l9.6,3.8C158.8,832.4,159.5,832.2,159.7,831.7z"/>
			</g>
		</g>
	</g>
</g>
<g>
	<g>
		<path class="st46" d="M123,746c0.7,15,0.7,29.8-0.3,44.6c-1,6.3-3,12.7-8,15.9c-2,1.1-3,2.1-5,3.2c-12,4.2-28,4.2-37-5.3
			c-4-14.8,9-27.5,20-30.7c9-3.2,13,9.5,13,18c-1,9.5-8,14.8-13,22.2c-0.5,0.8-0.8,1.6-0.7,2.5c0.7,6.5,23.4,9.1,43.7,10.2"/>
	</g>
</g>
<g>
	<g>
		<path class="st24" d="M205.7,850.9c0.3,0.2,0.7,0.4,1,0.6"/>
		<path class="st47" d="M208.9,852.5c1.1,0.3,2.1,0.4,2.9,0.4c3.6-0.1,5.1-2.6,9.1-2.9c2.7-0.2,4.6,0.7,5.3,1
			c4.9,1.8,57.5,11.3,132.4,0.5c0,0,72.9-10.5,89.9,5.3c0.2,0.1,3.4,3.8,5.7,7.8l0,0c0.6,1.2,1.8,3.6,2.7,6.8
			c1.3,4.6,1.1,14.4,1.1,26.7"/>
		<path class="st24" d="M458,899.5c0,0.6,0,1.1,0,1.5"/>
	</g>
</g>
<text transform="matrix(1 0 0 1 408.7871 1071.064)" class="st13 st14">Pay Deposit</text>
<text transform="matrix(1 0 0 1 390.0586 1092.4902)" class="st15 st12">Youll be required to pay</text>
<text transform="matrix(1 0 0 1 390.0586 1109.2903)" class="st15 st12"> a deposit of half the</text>
<text transform="matrix(1 0 0 1 390.0586 1126.0902)" class="st15 st12">total classes that will be</text>
<text transform="matrix(1 0 0 1 390.0586 1142.8903)" class="st15 st12"> scheduled within a</text>
<text transform="matrix(1 0 0 1 390.0586 1159.6902)" class="st15 st12">month</text>
<path class="st48" d="M423.8,915.1h55.5c4.7,0,8.5,3.8,8.5,8.5v106.7c0,4.7-3.8,8.5-8.5,8.5h-55.5c-4.7,0-8.5-3.8-8.5-8.5V923.7
	C415.3,919,419.1,915.1,423.8,915.1z"/>
<path class="st49" d="M479.3,942.9h55.5V977h-55.5V942.9z"/>
<g>
	<path class="st50" d="M534.7,966.3h-4.3c-3.5,0-6.4,2.9-6.4,6.4v4.3h10.7V966.3z"/>
	<circle class="st50" cx="507" cy="959.9" r="8.5"/>
	<path class="st50" d="M534.7,953.5h-4.3c-3.5,0-6.4-2.9-6.4-6.4v-4.3h10.7V953.5z"/>
</g>
<path class="st51" d="M460.1,959.9h55.5V994h-55.5V959.9z"/>
<path class="st52" d="M472.9,974.9v27.7c2.6,1.3,4.3,4,4.3,6.9v3.8H426v-3.8c0-2.9,1.7-5.6,4.3-6.9v-27.7c0-8.2,6.7-14.9,14.9-14.9
	H458C466.2,959.9,472.9,966.6,472.9,974.9z"/>
<path class="st53" d="M447.3,959.9c-2.7-2.7-4.3-6.4-4.3-10.3V945h17.1v4.6c0,3.9-1.5,7.6-4.3,10.3L447.3,959.9L447.3,959.9z"/>
<path class="st54" d="M515.5,983.4h-4.3c-3.5,0-6.4,2.9-6.4,6.4v4.3h10.7V983.4z"/>
<circle class="st54" cx="487.8" cy="977" r="8.5"/>
<path class="st54" d="M515.5,970.6h-4.3c-3.5,0-6.4-2.9-6.4-6.4v-4.3h10.7V970.6z"/>
<path d="M425.9,1026.1h8.5v4.3h-8.5V1026.1z"/>
<path d="M470.7,1026.1h8.5v4.3h-8.5V1026.1z"/>
<path d="M449.4,998.3h4.3v-4.6c3.3-1.2,5.1-4.8,3.9-8.2c-0.9-2.6-3.3-4.3-6-4.3c-1.2,0-2.1-1-2.1-2.1c0-1.2,1-2.1,2.1-2.1h6.4v-4.3
	h-4.3v-4.3h-4.3v4.6c-3.3,1.2-5.1,4.8-3.9,8.2c0.9,2.6,3.3,4.3,6,4.3c1.2,0,2.1,1,2.1,2.1c0,1.2-1,2.1-2.1,2.1h-6.4v4.3h4.3
	L449.4,998.3L449.4,998.3z"/>
<path d="M534.7,940.7h-44.8v-17.1c0-5.9-4.8-10.7-10.7-10.7h-55.5c-5.9,0-10.7,4.8-10.7,10.7v106.7c0,5.9,4.8,10.7,10.7,10.7h55.5
	c5.9,0,10.7-4.8,10.7-10.7v-34.1h25.6c1.2,0,2.1-1,2.1-2.1l0,0v-14.9h17.1c1.2,0,2.1-1,2.1-2.1l0,0V943
	C536.9,941.7,535.9,940.7,534.7,940.7L534.7,940.7z M532.6,951.4h-2.1c-2.4,0-4.3-1.9-4.3-4.3V945h6.4V951.4L532.6,951.4z
	 M507,962.1h6.4v6.4h-2.1c-2.4,0-4.3-1.9-4.3-4.3V962.1L507,962.1z M501,957.8c1.2-3.3,4.8-5.1,8.2-3.9c1.8,0.6,3.3,2.1,3.9,3.9H501
	z M502.7,962.1v2.1c0,4.7,3.8,8.5,8.5,8.5h2.1v8.5h-2.1c-4.7,0-8.5,3.8-8.5,8.5v2.1H475V979h2.3c1.2,5.8,6.8,9.5,12.6,8.3
	c4.2-0.9,7.5-4.1,8.3-8.3h6.6v-4.3h-6.6c-1.2-5.8-6.8-9.5-12.6-8.3c-4.2,0.9-7.5,4.1-8.3,8.3H475c0-4.9-2.1-9.6-5.8-12.8h33.5V962.1
	z M445.1,949.6v-2.5h12.8v2.5c0,3-1.1,5.9-3.1,8.2h-6.7C446.2,955.5,445.1,952.6,445.1,949.6z M460,957.9c0,0,0-0.1,0.1-0.1
	L460,957.9L460,957.9z M457.9,962.1c7.1,0,12.8,5.7,12.8,12.8v25.6h-12.8v4.3h14.4c1.7,1,2.7,2.8,2.7,4.8v1.6h-46.9v-1.6
	c0-2.1,1.2-4.1,3.1-5c0.7-0.4,1.2-1.1,1.2-1.9V975c0-7.1,5.7-12.8,12.8-12.8L457.9,962.1L457.9,962.1z M481.4,977
	c0-3.5,2.9-6.4,6.4-6.4s6.4,2.9,6.4,6.4s-2.9,6.4-6.4,6.4S481.4,980.5,481.4,977z M487.8,945v2.1c0,2.4-1.9,4.3-4.3,4.3h-2.1V945
	H487.8z M485.7,1030.3c0,3.5-2.9,6.4-6.4,6.4h-55.5c-3.5,0-6.4-2.9-6.4-6.4V923.7c0-3.5,2.9-6.4,6.4-6.4h14l3.6,3.6
	c0.4,0.4,0.9,0.6,1.5,0.6H460c0.6,0,1.1-0.2,1.5-0.6l3.6-3.6h14c3.5,0,6.4,2.9,6.4,6.4v17.1h-6.4c-1.2,0-2.1,1-2.1,2.1l0,0v14.9
	h-17.1c1.4-2.5,2.1-5.3,2.1-8.2V945c0-1.2-1-2.1-2.1-2.1l0,0H443c-1.2,0-2.1,1-2.1,2.1l0,0v4.6c0,2.9,0.8,5.8,2.2,8.3
	c-8.6,1.1-15,8.3-15,16.9v26.5c-2.7,1.8-4.3,4.9-4.3,8.1v3.8c0,1.2,1,2.1,2.1,2.1l0,0h51.2c1.2,0,2.1-1,2.1-2.1l0,0v-3.8
	c0-3.2-1.6-6.3-4.3-8.1v-5.2h10.7v34.2L485.7,1030.3L485.7,1030.3z M507,991.9v-2.1c0-2.4,1.9-4.3,4.3-4.3h2.1v6.4L507,991.9
	L507,991.9z M517.7,962.1h6.4v-4.3h-6.6c-1.2-5.8-6.8-9.5-12.6-8.3c-4.2,0.9-7.5,4.1-8.3,8.3h-15.1v-2.1h2.1c4.7,0,8.5-3.8,8.5-8.5
	V945H522v2.1c0,4.7,3.8,8.5,8.5,8.5h2.1v8.5h-2.1c-4.7,0-8.5,3.8-8.5,8.5v2.1h-4.3V962.1L517.7,962.1z M526.2,974.9v-2.1
	c0-2.4,1.9-4.3,4.3-4.3h2.1v6.4L526.2,974.9L526.2,974.9z"/>
<text transform="matrix(1 0 0 1 63.7871 1066.064)" class="st13 st14">Start Classes</text>
<text transform="matrix(1 0 0 1 62.0586 1087.4902)" class="st15 st12">The classes start on </text>
<text transform="matrix(1 0 0 1 62.0586 1104.2903)" class="st15 st12">the date agreed upon</text>
<g id="Page-1">
	<g>
		<path id="Shape" class="st55" d="M189.8,931.3l-3.1,13.7l-3.3,14.8l-3.3,14.8l-2.4,10.7c-0.2,0.8-0.7,1.4-1.5,1.6
			s-1.6,0.1-2.1-0.4c-3-2.9-6.7-5.1-10.8-6.3c-5-1.4-10.2-1.8-15.3-1.1c-5.4,0.6-10.8,1.6-16.2,2.9c-5.3,1.3-10.7,2.2-16.2,2.9
			c-5.1,0.6-10.3,0.2-15.3-1.1l0,0c-5.3-1.7-10-4.8-13.5-9.2l3.3-14.8l3.3-14.8l3.3-14.8l3.3-14.8c3.5,4.3,8.2,7.5,13.5,9.2
			c5,1.4,10.1,1.8,15.3,1.1c5.4-0.6,10.8-1.6,16.2-2.9c5.3-1.3,10.7-2.2,16.2-2.9c5.1-0.6,10.3-0.2,15.3,1.1
			c4.9,1.5,9.3,4.4,12.7,8.3C189.7,929.9,189.9,930.6,189.8,931.3z"/>
		<path class="st56" d="M110.4,939.3c-1.1,4.9-2.2,9.8-3.3,14.7c-5.3-1.7-10-4.9-13.4-9.2L97,930
			C100.4,934.4,105.1,937.6,110.4,939.3z"/>
		<path class="st56" d="M103.7,968.8c-0.2,1-0.4,2-0.7,3c-0.9,4-1.8,7.9-2.6,11.8c-5.3-1.7-10-4.8-13.5-9.2l3.3-14.8
			C93.8,964,98.4,967.2,103.7,968.8z"/>
		<path class="st56" d="M129,925.6c-1.1,4.9-2.2,9.9-3.3,14.8c-5.1,0.6-10.3,0.2-15.3-1.1c1.1-4.9,2.2-9.9,3.3-14.8
			C118.7,925.9,123.8,926.3,129,925.6z"/>
		<path class="st56" d="M135.2,967.1c-0.2,1-0.4,2-0.7,3c-0.9,4-1.8,7.9-2.6,11.8c-5.3,1.3-10.7,2.2-16.2,2.9
			c0.9-4,1.8-7.9,2.6-11.8c0.2-1,0.4-2,0.7-3C124.5,969.3,129.9,968.3,135.2,967.1z"/>
		<path class="st56" d="M161.3,919.9l-3.3,14.8c-5.4,0.6-10.9,1.6-16.2,2.9c1.1-4.9,2.2-9.9,3.3-14.8
			C150.4,921.5,155.9,920.5,161.3,919.9z"/>
		<path class="st56" d="M166.6,965.4c-0.2,1-0.4,2-0.7,2.9c-0.9,3.9-1.8,7.9-2.6,11.8c-5-1.4-10.2-1.8-15.3-1.1
			c0.9-3.9,1.8-7.9,2.6-11.8c0.2-1,0.4-2,0.7-3C156.5,963.6,161.7,964,166.6,965.4z"/>
		<path class="st56" d="M183.4,959.8l-3.3,14.8c-3.5-4.3-8.2-7.5-13.5-9.2c1.1-4.9,2.2-9.9,3.3-14.8
			C175.2,952.3,179.9,955.4,183.4,959.8z"/>
		<path class="st56" d="M189.8,931.3l-3.1,13.7c-3.5-4.3-8.2-7.5-13.5-9.2c1.1-4.9,2.2-9.9,3.3-14.8c4.9,1.5,9.3,4.4,12.7,8.3
			C189.7,929.9,189.9,930.6,189.8,931.3z"/>
		<path class="st56" d="M173.2,935.8l-3.3,14.8c-5-1.4-10.1-1.8-15.3-1.2l3.3-14.8C163.1,934,168.3,934.4,173.2,935.8z"/>
		<path class="st56" d="M122.3,955.2L119,970c-5.1,0.7-10.3,0.3-15.3-1.1c1.1-4.9,2.2-9.9,3.3-14.8
			C112,955.4,117.2,955.8,122.3,955.2z"/>
		<path class="st56" d="M141.8,937.5c-1.1,4.9-2.2,9.8-3.3,14.7c-5.3,1.3-10.7,2.2-16.2,2.9l3.3-14.8
			C131.1,939.8,136.5,938.8,141.8,937.5z"/>
		<path class="st56" d="M154.7,949.4c-1.1,4.9-2.2,9.9-3.3,14.8c-5.4,0.6-10.8,1.6-16.2,2.9c1.1-4.9,2.2-9.9,3.3-14.8
			C143.8,951,149.2,950.1,154.7,949.4z"/>
		<path class="st57" d="M102.5,914.2c0,0.4-0.1,0.9-0.2,1.3l-26,115.9c-0.3,1.6-1.3,2.9-2.7,3.8c-1.4,0.9-3,1.1-4.6,0.8l-0.2-0.1
			c-3.1-0.8-5.1-4-4.4-7.2l26-115.9c0.7-3.3,4-5.3,7.2-4.6l0,0C100.6,908.9,102.5,911.3,102.5,914.2z"/>
		<path class="st58" d="M102.5,914.2c0,0.4-0.1,0.9-0.2,1.3l-26,115.9c-0.3,1.6-1.3,2.9-2.7,3.8c-1.4,0.9-3,1.1-4.6,0.8l-0.2-0.1
			l28.9-127.6C100.6,908.9,102.5,911.3,102.5,914.2z"/>
	</g>
</g>
<text transform="matrix(1 0 0 1 208.7871 1420.064)" class="st13 st14">Ongoing Counselling</text>
<text transform="matrix(1 0 0 1 208.7871 1441.6639)" class="st13 st14"> &amp; Evaluation</text>
<text transform="matrix(1 0 0 1 210.0586 1466.4902)" class="st15 st12">Parallel to the tuition, counselling</text>
<text transform="matrix(1 0 0 1 210.0586 1483.2903)" class="st15 st12"> classes will be carried out</text>
<text transform="matrix(1 0 0 1 210.0586 1500.0902)" class="st15 st12"> monthly, to improve the child&apos;s</text>
<text transform="matrix(1 0 0 1 210.0586 1516.8903)" class="st15 st12">study habits and attitudes</text>
<path class="st38" d="M316.3,1387.9c-11.4,0-20.6-9.2-20.6-20.6c0-4.1,1.2-7.8,3.2-11l-3.2-7.6l9.6,1.1c3.2-2,7-3.2,11-3.2
	c11.4,0,20.6,9.2,20.6,20.6S327.7,1387.9,316.3,1387.9z"/>
<path class="st59" d="M328.7,1379.7h-24.8c0-2.5,1.4-4.9,3.7-6l4.6-2.3v-1.6c-1.3-1.1-2.1-2.7-2.1-4.6v-3.8c0-3.3,2.5-6.4,5.9-6.5
	c3.6-0.2,6.5,2.7,6.5,6.2v4.1c0,1.8-0.8,3.4-2.1,4.6v1.6l4.6,2.3C327.3,1374.8,328.7,1377.1,328.7,1379.7z"/>
<path class="st60" d="M283.3,1280.6h49.5c2.3,0,4.1,1.9,4.1,4.1v28.9c0,2.3-1.9,4.1-4.1,4.1H306l-16.5,8.3v-8.3h-6.2
	c-2.3,0-4.1-1.9-4.1-4.1v-28.9C279.1,1282.4,281,1280.6,283.3,1280.6z"/>
<path class="st38" d="M270.9,1268.2v24.8c0,2.3-1.9,4.1-4.1,4.1h-18.6v6.2l-10.3-6.2h-20.6c-2.3,0-4.1-1.9-4.1-4.1v-24.8
	c0-2.3,1.9-4.1,4.1-4.1h49.5C269,1264.1,270.9,1265.9,270.9,1268.2z"/>
<g>
	<circle class="st59" cx="258.5" cy="1280.6" r="4.1"/>
	<circle class="st59" cx="242" cy="1280.6" r="4.1"/>
	<circle class="st59" cx="225.5" cy="1280.6" r="4.1"/>
</g>
<path class="st61" d="M287.4,1344.6v12.4l-7.3,1.9c-0.7,2.6-1.7,5.1-3.1,7.4l3.8,6.5l-8.8,8.8l-6.5-3.8c-2.3,1.3-4.8,2.4-7.4,3.1
	l-1.9,7.3H244l-1.9-7.3c-2.6-0.7-5.1-1.7-7.4-3.1l-6.5,3.8l-8.8-8.8l3.8-6.5c-1.3-2.3-2.4-4.8-3.1-7.4l-7.3-1.9v-12.4l7.3-1.9
	c0.7-2.6,1.7-5.1,3.1-7.4l-3.8-6.5l8.8-8.8l6.5,3.8c2.3-1.3,4.8-2.4,7.4-3.1l1.9-7.3h12.4l1.9,7.3c2.6,0.7,5.1,1.7,7.4,3.1l6.5-3.8
	l8.8,8.8l-3.8,6.5c1.3,2.3,2.4,4.8,3.1,7.4L287.4,1344.6z M272.9,1350.8c0-12.6-10.2-22.7-22.7-22.7c-12.6,0-22.7,10.2-22.7,22.7
	c0,12.6,10.2,22.7,22.7,22.7C262.8,1373.5,272.9,1363.3,272.9,1350.8z"/>
<path class="st42" d="M250.2,1328.1c12.6,0,22.7,10.2,22.7,22.7c0,12.6-10.2,22.7-22.7,22.7c-12.6,0-22.7-10.2-22.7-22.7
	C227.5,1338.2,237.7,1328.1,250.2,1328.1z M260.5,1350.8c0-5.7-4.6-10.3-10.3-10.3s-10.3,4.6-10.3,10.3c0,5.7,4.6,10.3,10.3,10.3
	S260.5,1356.5,260.5,1350.8z"/>
<path d="M279.4,1335.4l4.1-6.8l-11-11l-6.8,4.1c-1.8-0.9-3.7-1.7-5.6-2.3l-2-7.7h-15.6l-2,7.7c-2,0.6-3.8,1.4-5.6,2.3l-6.8-4.1
	l-11,11l4.1,6.8c-0.9,1.8-1.7,3.7-2.3,5.6l-7.7,2v15.6l7.7,2c0.6,2,1.4,3.8,2.3,5.6l-4.1,6.8l11,11l6.8-4.1c1.8,0.9,3.7,1.7,5.6,2.3
	l2,7.7H258l2-7.7c2-0.6,3.8-1.4,5.6-2.3l6.8,4.1l11-11l-4.1-6.8c0.9-1.8,1.7-3.7,2.3-5.6l7.7-2V1343l-7.7-2
	C281.2,1339.1,280.4,1337.2,279.4,1335.4z M285.3,1355.4l-6.9,1.8l-0.3,1.2c-0.7,2.4-1.6,4.7-2.8,6.9l-0.6,1l3.6,6.1l-6.5,6.5
	l-6.1-3.6l-1,0.6c-2.1,1.2-4.5,2.2-6.9,2.8l-1.2,0.3l-1.8,6.9h-9.2l-1.8-6.9l-1.2-0.3c-2.4-0.7-4.7-1.6-6.9-2.8l-1-0.6l-6.1,3.6
	l-6.5-6.5l3.6-6.1l-0.6-1c-1.2-2.1-2.2-4.5-2.8-6.9l-0.3-1.2l-6.9-1.8v-9.2l6.9-1.8l0.3-1.2c0.7-2.4,1.6-4.7,2.8-6.9l0.6-1l-3.6-6.1
	l6.5-6.5l6.1,3.6l1-0.6c2.1-1.2,4.5-2.2,6.9-2.8l1.2-0.3l1.8-6.9h9.2l1.8,6.9l1.2,0.3c2.4,0.7,4.7,1.6,6.9,2.8l1,0.6l6.1-3.6
	l6.5,6.5l-3.6,6.1l0.6,1c1.2,2.1,2.2,4.5,2.8,6.9l0.3,1.2l6.9,1.8V1355.4z"/>
<path d="M250.2,1326c-13.7,0-24.8,11.1-24.8,24.8c0,13.7,11.1,24.8,24.8,24.8s24.8-11.1,24.8-24.8C275,1337.1,263.9,1326,250.2,1326
	z M250.2,1371.4c-11.4,0-20.6-9.3-20.6-20.6c0-11.4,9.3-20.6,20.6-20.6c11.4,0,20.6,9.3,20.6,20.6
	C270.9,1362.2,261.6,1371.4,250.2,1371.4z"/>
<path d="M250.2,1338.4c-6.8,0-12.4,5.6-12.4,12.4s5.6,12.4,12.4,12.4s12.4-5.6,12.4-12.4S257.1,1338.4,250.2,1338.4z M250.2,1359
	c-4.6,0-8.3-3.7-8.3-8.3c0-4.6,3.7-8.3,8.3-8.3s8.3,3.7,8.3,8.3C258.5,1355.3,254.8,1359,250.2,1359z"/>
<path d="M332.8,1278.5h-49.5c-3.4,0-6.2,2.8-6.2,6.2v28.9c0,3.4,2.8,6.2,6.2,6.2h4.1v9.5l19.1-9.5h26.4c3.4,0,6.2-2.8,6.2-6.2v-28.9
	C339,1281.3,336.2,1278.5,332.8,1278.5z M334.9,1313.6c0,1.1-0.9,2.1-2.1,2.1h-27.3l-14,7v-7h-8.3c-1.1,0-2.1-0.9-2.1-2.1v-28.9
	c0-1.1,0.9-2.1,2.1-2.1h49.5c1.1,0,2.1,0.9,2.1,2.1L334.9,1313.6L334.9,1313.6z"/>
<path d="M217.2,1299.2h20.1l13,7.8v-7.8h16.5c3.4,0,6.2-2.8,6.2-6.2v-24.8c0-3.4-2.8-6.2-6.2-6.2h-49.5c-3.4,0-6.2,2.8-6.2,6.2v24.8
	C211,1296.4,213.8,1299.2,217.2,1299.2z M215.1,1268.2c0-1.1,0.9-2.1,2.1-2.1h49.5c1.1,0,2.1,0.9,2.1,2.1v24.8
	c0,1.1-0.9,2.1-2.1,2.1h-20.6v4.6l-7.7-4.6h-21.2c-1.1,0-2.1-0.9-2.1-2.1V1268.2z"/>
<path d="M326.6,1307.4h-4.1v-16.5h-4.1v16.5h-4.1v-20.6h-4.1v20.6H306V1295h-4.1v12.4h-4.1v-8.3h-4.1v8.3h-4.1v4.1h41.3v-24.8h-4.1
	v20.7H326.6z"/>
<path d="M225.5,1286.8c3.4,0,6.2-2.8,6.2-6.2s-2.8-6.2-6.2-6.2s-6.2,2.8-6.2,6.2S222,1286.8,225.5,1286.8z M225.5,1278.5
	c1.1,0,2.1,0.9,2.1,2.1c0,1.1-0.9,2.1-2.1,2.1c-1.1,0-2.1-0.9-2.1-2.1S224.3,1278.5,225.5,1278.5z"/>
<path d="M242,1286.8c3.4,0,6.2-2.8,6.2-6.2s-2.8-6.2-6.2-6.2s-6.2,2.8-6.2,6.2S238.6,1286.8,242,1286.8z M242,1278.5
	c1.1,0,2.1,0.9,2.1,2.1c0,1.1-0.9,2.1-2.1,2.1c-1.1,0-2.1-0.9-2.1-2.1S240.8,1278.5,242,1278.5z"/>
<path d="M258.5,1286.8c3.4,0,6.2-2.8,6.2-6.2s-2.8-6.2-6.2-6.2s-6.2,2.8-6.2,6.2S255.1,1286.8,258.5,1286.8z M258.5,1278.5
	c1.1,0,2.1,0.9,2.1,2.1c0,1.1-0.9,2.1-2.1,2.1c-1.1,0-2.1-0.9-2.1-2.1S257.3,1278.5,258.5,1278.5z"/>
<path d="M316.3,1344.6c-4,0-8,1.1-11.5,3.1l-12.4-1.5l4.2,9.9c-1.9,3.4-3,7.3-3,11.2c0,12.5,10.2,22.7,22.7,22.7
	s22.7-10.2,22.7-22.7C339,1354.8,328.8,1344.6,316.3,1344.6z M304.6,1381.7h23.3c-3.2,2.6-7.2,4.1-11.7,4.1
	S307.8,1384.3,304.6,1381.7L304.6,1381.7z M313.5,1368.3c-0.9-0.8-1.4-1.9-1.4-3.1v-3.8c0-2.4,1.8-4.4,3.9-4.5
	c1.1-0.1,2.2,0.3,3.1,1.1c0.8,0.8,1.3,1.8,1.3,3v4.1c0,1.2-0.5,2.3-1.4,3.1l-0.7,0.6v3.8l5.7,2.9c0.9,0.5,1.6,1.2,2.1,2.1h-19.7
	c0.4-0.9,1.2-1.6,2.1-2.1l5.7-2.9v-3.8L313.5,1368.3z M330.7,1379c-0.2-3.1-2-5.8-4.8-7.2l-3.1-1.6c1.1-1.4,1.8-3.2,1.8-5.1v-4.1
	c0-2.3-0.9-4.4-2.6-6c-1.7-1.6-3.8-2.3-6.1-2.3c-4.4,0.2-7.8,4-7.8,8.6v3.8c0,1.8,0.6,3.6,1.8,5.1l-3.1,1.6
	c-2.8,1.4-4.6,4.1-4.8,7.2c-2.6-3.2-4.2-7.3-4.2-11.7c0-3.5,1-6.9,2.9-9.9l0.6-0.9l-2.2-5.3l6.8,0.8l0.6-0.4c3-1.9,6.4-2.9,9.9-2.9
	c10.2,0,18.6,8.3,18.6,18.6C334.9,1371.7,333.3,1375.8,330.7,1379L330.7,1379z"/>
<path class="st62" d="M113,1126c-1.1,21.5-1.6,44.2-1,68c0.2,8.8,0.5,17.5,1,26c-0.3,11.2-0.7,26.6-1,45c-0.8,54.9,0.5,63.9,7,71
	c14.5,15.9,44.9,10.9,61,7"/>
<g>
	<g>
		<g>
			<defs>
				<polygon id="SVGID_3_" points="210.2,1741.9 183.9,1773.3 220.2,1784.6 246.5,1753.1 				"/>
			</defs>
			<clipPath id="SVGID_4_">
				<use xlink:href="#SVGID_3_"  style="overflow:visible;"/>
			</clipPath>
			<g class="st63">
				<path class="st45" d="M231.1,1759.4c-2.8-1.7-7-4.4-7.1-4.4l0.2-4.6c-0.8-1.2-1-2.7-0.7-4.1c-0.4,0-0.8,0.1-1.1,0.3l-10.4,7.1
					c-0.4,2-2,3.8-4.7,3.8c-0.3,0-0.5,0-0.8-0.1l-15.1,10.3c0.7,1.1,1.2,2.4,1.6,3.6l28-8.9c0,0.2-0.6,11-0.6,11.1l-6.8-0.4
					c0,0.7-0.1,1.4-0.3,2c4.5,0.2,7.8,0.4,7.9,0.4c0.8,0,1.7-0.6,1.8-1.2l0.5-8.8l8.6-2.8c0-0.1,0-0.3,0-0.4
					C231.5,1761.5,231.1,1760.5,231.1,1759.4z M221.7,1749.3l-0.3,5.9l-26,12L221.7,1749.3z M223.6,1763.6l0.1-1.4l3.7,0.2
					L223.6,1763.6z M223,1760.1c-0.1,0-0.3,0-0.4,0c0,0,0,0-0.1,0l0,0l0,0c-0.2,0,1.2-0.4-23.4,7.4l23.2-10.8l5.9,3.7L223,1760.1z"
					/>
				<path class="st45" d="M204.1,1774.7c-0.2-0.7-0.2-1.3-0.1-2l-10.8-0.6c0.2,0.7,0.2,1.4,0.1,2
					C196.6,1774.3,200.4,1774.5,204.1,1774.7z"/>
			</g>
		</g>
	</g>
</g>
<g>
	<g>
		<path class="st64" d="M221.6,1667.6c11.4-11.8,25.4-26,42.4-24c19,12.2,42,14.2,64,9.1c3-1,3-6.1,0-8.1c-10-8.1-21-13.2-32-20.3
			c-3-2-6-4.1-8-7.1c6-3,11,1,17,0c5-1,7-7.1,6-11.2c-2-8.1-6-15.2-5-23.3c1-6.1,5-10.1,11-11.2c6-1,12,2,14,8.1
			c4,17.2-5,38.5,9,51.7c5,3,11,3,17,2c26-3,52-1,78-3c4.6-0.7,9.2-1.5,14-2.4c4.4-0.8,8.8-1.7,13-2.6c2.2-3.9,4.6-9.3,6-16.2
			c0.7-3.4,0.9-6.4,1-9.1c1-29.4,1-58.8,0-88.2c-2-29.4,0-59.8-2.3-89.1c0,0,0,0,0,0c0,0,0,0,0,0.1c-0.4-10.4-0.9-26.7-0.6-46.7
			c0.2-19.2,0.9-22.7-1-27c-3.7-8.5-19-23.8-101-15"/>
		<g>
			<path d="M222.5,1667.3c0.9-2.2-0.4-5.2-1.9-7.2c-0.6,3.6-2.3,7.2-5.4,10.2c5.2-0.5,10.5,0.5,15.3,1.7
				C228.4,1670.2,225.7,1668,222.5,1667.3z"/>
		</g>
	</g>
</g>
<g>
	<path class="st65" d="M72.4,1764.4v29.2h23.8v-29.2H85H72.4z"/>
	<path class="st65" d="M85,1735.3H72.3v29.2H85V1735.3z"/>
	<path class="st65" d="M72.4,1706.1v29.2H85h11.1v-29.2H85H72.4z"/>
</g>
<path class="st66" d="M85,1676.9H72.3v29.2H85V1676.9z"/>
<path class="st66" d="M85,1735.3v29.2h11.1h11.1v-29.2H96.1H85z"/>
<path class="st65" d="M85,1676.9v29.2h11.1h11.1v-29.2h-19H85z"/>
<path class="st66" d="M88.2,1647.8v29.2h19h22.2h22.2h12.7v-29.2h-57H88.2z"/>
<path class="st66" d="M96.1,1764.4v29.2h22.2v-29.2h-11.1H96.1z"/>
<path class="st66" d="M96.1,1706.1v29.2h11.1h11.1v-29.2h-11.1H96.1z"/>
<path class="st65" d="M107.2,1735.3v29.2h11.1h11.1v-29.2h-11.1H107.2z"/>
<path class="st66" d="M107.2,1676.9v29.2h11.1h11.1v-29.2H107.2z"/>
<path class="st65" d="M164.2,1624.4h-57v23.3h57V1624.4z"/>
<path class="st65" d="M118.3,1764.4v29.2h22.2v-29.2h-11.1H118.3z"/>
<path class="st65" d="M118.3,1706.1v29.2h11.1h11.1v-29.2h-11.1H118.3z"/>
<path class="st66" d="M129.4,1735.3v29.2h11.1h11.1v-29.2h-11.1H129.4z"/>
<path class="st65" d="M129.4,1676.9v29.2h11.1h11.1v-29.2H129.4z"/>
<path class="st66" d="M140.4,1764.4v29.2h23.8v-29.2h-12.7H140.4z"/>
<path class="st66" d="M140.4,1706.1v29.2h11.1h12.7v-29.2h-12.7H140.4z"/>
<path class="st65" d="M164.2,1735.3h-12.7v29.2h12.7V1735.3z"/>
<path class="st66" d="M164.2,1676.9h-12.7v29.2h12.7V1676.9z"/>
<path d="M72.4,1674h14.3v-26.3c0-1.6,0.7-2.9,1.6-2.9h17.4v-20.4c0-1.6,0.7-2.9,1.6-2.9h57c0.9,0,1.6,1.3,1.6,2.9v169.2
	c0,1.6-0.7,2.9-1.6,2.9H72.5c-0.9,0-1.6-1.3-1.6-2.9v-116.7C70.8,1675.3,71.5,1674,72.4,1674z M86.6,1679.8v23.3h19v-23.3H86.6z
	 M97.7,1732.3h19V1709h-19V1732.3z M86.6,1738.2v23.3h19v-23.3H86.6z M138.9,1732.3V1709h-19v23.3H138.9z M130.9,1738.2v23.3h19
	v-23.3H130.9z M149.9,1703.2v-23.3h-19v23.3H149.9z M127.8,1703.2v-23.3h-19v23.3H127.8z M127.8,1738.2h-19v23.3h19V1738.2z
	 M162.6,1627.3h-53.8v17.5h53.8V1627.3z M162.6,1650.7H89.8v23.3h72.8L162.6,1650.7L162.6,1650.7z M162.6,1679.8h-9.5v23.3h9.5
	V1679.8z M162.6,1709H142v23.3h20.6V1709z M162.6,1738.2h-9.5v23.3h9.5V1738.2z M142,1790.7h20.6v-23.3H142V1790.7z M119.9,1790.7
	h19v-23.3h-19V1790.7z M97.7,1790.7h19v-23.3h-19V1790.7z M73.9,1790.7h20.6v-23.3H73.9V1790.7z M73.9,1761.5h9.5v-23.3h-9.5V1761.5
	z M73.9,1732.3h20.6V1709H73.9V1732.3z M73.9,1703.2h9.5v-23.3h-9.5V1703.2z"/>
<path class="st67" d="M504,1789"/>
<path class="st62" d="M489,1698"/>
<g>
	<g>
		<rect x="190.1" y="1662.7" transform="matrix(0.9169 -0.399 0.399 0.9169 -647.7895 218.3176)" width="20.9" height="4.9"/>
	</g>
	<g>
		<rect x="178.7" y="1652.9" transform="matrix(0.3662 -0.9305 0.9305 0.3662 -1420.8157 1224.6218)" width="19.7" height="4.9"/>
	</g>
	<g>
		<rect x="197.2" y="1671" transform="matrix(0.3662 -0.9305 0.9305 0.3662 -1437.5396 1251.0645)" width="4.9" height="19.7"/>
	</g>
</g>
<g>
	<polygon class="st68" points="183.1,1772.5 189.6,1772.5 186.4,1763.8 	"/>
</g>
<g>
	<polygon class="st68" points="228.6,1770.4 236.9,1766.5 233.2,1776.8 229.1,1775.3 	"/>
</g>
<g>
	<polygon class="st68" points="209.9,1772.2 205.2,1776.7 213.5,1780.8 	"/>
</g>
<g>
	<path d="M204.4,1777.5c-0.2-0.2-0.3-0.4-0.3-0.6c-0.1-0.4,0.1-0.7,0.3-1l4.8-4.5c0.3-0.2,0.6-0.3,1-0.3c0.3,0.1,0.6,0.3,0.8,0.6
		l3.6,8.6c0.2,0.4,0.1,0.9-0.3,1.2c-0.3,0.3-0.8,0.4-1.2,0.2l-8.4-4.1C204.6,1777.6,204.5,1777.5,204.4,1777.5z M209.5,1774.1
		l-2.5,2.3l4.3,2.1L209.5,1774.1z"/>
</g>
<g>
	<path d="M189.6,1773.6h-6.5c-0.4,0-0.7-0.2-0.9-0.5c-0.2-0.3-0.2-0.7-0.1-1l3.3-8.7c0.2-0.4,0.6-0.7,1-0.7c0.5,0,0.9,0.3,1,0.7
		l3.3,8.7c0.1,0.3,0.1,0.7-0.1,1C190.3,1773.5,190,1773.6,189.6,1773.6z M184.7,1771.5h3.4l-1.7-4.5L184.7,1771.5z"/>
</g>
<g>
	<path d="M232.8,1777.8l-4.1-1.5c-0.4-0.1-0.7-0.5-0.7-0.9l-0.5-4.8c-0.1-0.5,0.2-0.9,0.6-1.1l8.4-3.9c0.4-0.2,0.9-0.1,1.2,0.2
		c0.3,0.3,0.4,0.8,0.3,1.2l-3.8,10.2C234,1777.7,233.4,1778,232.8,1777.8z M230.1,1774.5l2.4,0.9l2.5-6.7l-5.3,2.5L230.1,1774.5z"/>
</g>
<g>
	<g>
		<path class="st24" d="M195,1691c0.7,0.4,1.6,0.9,2.6,1.5"/>
		<path class="st69" d="M202.5,1696.2c3.8,3.1,8,7.6,11.5,13.8c2.9,5.2,4.5,10.4,5.3,14.9"/>
		<path class="st24" d="M219.8,1727.9c0.1,1,0.2,2,0.3,3"/>
		<g>
			<path d="M220,1730.1c2.1-2.1,6.2-3.1,9.1-3.2c-3.9,2.9-7.2,6.6-9.1,11.1c-1.8-4.5-5.4-8.1-9.1-11.1
				C214,1727.1,217.7,1727.9,220,1730.1z"/>
		</g>
	</g>
</g>
<text transform="matrix(1.0756 0 0 1 279 1750)" class="st11 st12">Were clash landing...</text>
</svg>
