<?xml version="1.0" encoding="utf-8"?>
<!-- Generator: Adobe Illustrator 23.0.1, SVG Export Plug-In . SVG Version: 6.00 Build 0)  -->
<svg version="1.1" id="Layer_1" xmlns="http://www.w3.org/2000/svg" xmlns:xlink="http://www.w3.org/1999/xlink" x="0px" y="0px"
	 viewBox="0 0 1150 1550" style="enable-background:new 0 0 1150 1550;" xml:space="preserve">
<style type="text/css">
	.st0{fill:#FAFAFA;}
	.st1{fill:#D29B6E;}
	.st2{fill:#59D8FF;}
	.st3{fill:#00C3F0;}
	.st4{fill:#F0C087;}
	.st5{fill:#E6AF78;}
	.st6{fill:#694B4B;}
	.st7{fill:#5A4146;}
	.st8{fill:#D5DCED;}
	.st9{fill:#AFB9D2;}
	.st10{fill:#FFFFFF;}
	.st11{fill:#F5DCB4;}
	.st12{font-family:'Nunito-Regular';}
	.st13{font-size:14px;}
	.st14{font-family:'Nunito-Bold';}
	.st15{font-size:18px;}
	.st16{font-family:'Nunito-Light';}
	.st17{fill:#FF933B;}
	.st18{fill:#F27D27;}
	.st19{fill:#DDF5FF;}
	.st20{fill:#636363;}
	.st21{fill:#494949;}
	.st22{fill:#F9B3A7;}
	.st23{fill:#FECCC1;}
	.st24{fill:#FFD664;}
	.st25{fill:#E6E9ED;}
	.st26{fill:#AAB2BD;}
	.st27{fill:#838F9B;}
	.st28{fill:#CF9E76;}
	.st29{fill:#FCD770;}
	.st30{fill:#69D6F4;}
	.st31{fill:#F0D0B4;}
	.st32{fill:#D0F4EF;}
	.st33{fill:#ABE0DA;}
	.st34{fill:#F72B2B;}
	.st35{fill:#D61B1F;}
	.st36{fill:#FFBD47;}
	.st37{fill:#38AAFF;}
	.st38{fill:#E6E7E8;}
	.st39{fill:#2C2F38;}
	.st40{fill:#AF8066;}
	.st41{fill:#7F5B53;}
	.st42{fill:#548AFF;}
	.st43{fill:#00B55B;}
	.st44{fill:#BDD1F2;}
	.st45{fill:#02C26A;}
	.st46{fill:#FFC431;}
	.st47{fill:#FFB401;}
	.st48{fill:#E0EDFF;}
	.st49{fill:#FF826E;}
	.st50{fill:#B4DD7F;}
	.st51{fill:#FFC729;}
	.st52{fill:none;stroke:#000000;stroke-width:2;stroke-miterlimit:10;}
	.st53{fill:none;stroke:#000000;stroke-width:2;stroke-miterlimit:10;stroke-dasharray:6.0001,6.0001;}
	.st54{clip-path:url(#SVGID_2_);}
	.st55{fill:#1B2531;}
	.st56{clip-path:url(#SVGID_4_);}
	.st57{fill:none;stroke:#000000;stroke-width:2;stroke-miterlimit:10;stroke-dasharray:6.0222,6.0222;}
	.st58{fill:none;stroke:#000000;stroke-width:2;stroke-miterlimit:10;stroke-dasharray:6.0054,6.0054;}
	.st59{fill:none;stroke:#000000;stroke-width:2;stroke-miterlimit:10;stroke-dasharray:6.014,6.014;}
	.st60{fill:none;stroke:#000000;stroke-width:2;stroke-miterlimit:10;stroke-dasharray:6;}
	.st61{fill:none;stroke:#000000;stroke-width:2;stroke-miterlimit:10;stroke-dasharray:6,6;}
	.st62{fill:#FF7956;}
	.st63{fill:#FFC477;}
	.st64{fill:none;}
	.st65{fill:#C69C6D;}
	.st66{fill:#EF7385;}
	.st67{fill:#C1B8B7;}
	.st68{fill:#DAD5D4;}
	.st69{fill:#E6E3E2;}
	.st70{fill:none;stroke:#000000;stroke-width:2;stroke-miterlimit:10;stroke-dasharray:6.1614,6.1614;}
</style>
<rect x="71" y="554" class="st0" width="1010" height="284"/>
<path class="st1" d="M108.3,254.8v10.6c0,1.6-1,3-2.6,3.5l-16.1,4.9c-3.1,0.9-5.2,3.8-5.2,7v26.7c0,5.1,4.1,9.2,9.2,9.2h4.6h48.1
	v-61.9L108.3,254.8L108.3,254.8z"/>
<path class="st2" d="M121.1,282.3c-8.9,0-16.7-4.7-21.2-11.6l-10.3,3.2c-3.1,0.9-5.2,3.8-5.2,7v26.7c0,5.1,4.1,9.2,9.2,9.2h4.6h48.1
	v-59.6C146.3,271,135,282.3,121.1,282.3z"/>
<g>
	<path class="st3" d="M146.3,257.1c0,13.9-11.3,25.2-25.2,25.2c-8.9,0-16.7-4.7-21.2-11.6l-4.5,1.4c5.2,8.9,14.7,14.8,25.7,14.8
		c10.6,0,19.9-5.6,25.2-14V257.1L146.3,257.1z"/>
	<path class="st3" d="M123.4,305.2h-22.9c-1.3,0-2.3-1-2.3-2.3v-13.7l-12.5-12.5c-0.8,1.2-1.3,2.6-1.3,4.1v26.7
		c0,5.1,4.1,9.2,9.2,9.2h4.6h32.1v-4.6C130.3,308.3,127.2,305.2,123.4,305.2z"/>
</g>
<path class="st4" d="M141.7,238.8h-1.5l-0.8-16h-36.7l-0.8,16h-1.5c-1.9,0-3.4,1.5-3.4,3.4v4.6c0,1.9,1.5,3.4,3.4,3.4h3.3l0.4,2.3
	c0.3,1.7,1.2,3.3,2.5,4.5l7.4,6.1c1,0.8,2.2,1.3,3.5,1.3h7c1.3,0,2.5-0.5,3.5-1.3l7.4-6.1c1.4-1.1,2.3-2.7,2.5-4.5l0.4-2.3h3.3
	c1.9,0,3.4-1.5,3.4-3.4v-4.6C145.1,240.3,143.6,238.8,141.7,238.8z"/>
<path class="st5" d="M144.1,239.8c-0.3-0.3-0.7-0.6-1.1-0.7c-0.4-0.2-0.9-0.3-1.3-0.3h-1.5l0,0l-0.8-16h-36.7l-0.8,16h-1.5
	c-1.9,0-3.4,1.5-3.4,3.4v4.6c0,1.9,1.5,3.4,3.4,3.4h3.3l0.4,2.3c0.3,1.7,1.2,3.3,2.5,4.5l7.4,6.1c1,0.8,2.2,1.3,3.5,1.3h2.9
	l-3.1-9.4c-0.5-1.6-0.8-3.3-0.8-5.1v-12.4c0-1.2,1-2.2,2.2-2.3s2.3-0.4,3.3-0.8c2.8,1.3,6.3,1.3,9.1,0l0.6,3.8
	c0.6,3.6,3.8,6.3,7.5,6.3h4.1c0.6,0,1.2-0.1,1.8-0.4v-1.9C145.1,241.3,144.8,240.4,144.1,239.8z"/>
<path class="st6" d="M148.6,222.3c0-2.5-1.7-4.7-4.1-5.3c0.3-0.6,0.4-1.3,0.4-2c0-3-2.5-5.5-5.5-5.5c-0.1,0-0.2,0-0.3,0
	c-0.7-2.1-2.8-3.7-5.2-3.7c-0.6,0-1.1,0.1-1.7,0.3c-1.2-1.3-2.9-2.1-4.7-2.1c-0.5,0-1,0.1-1.4,0.2c-1.3-1.2-3.1-2-5-2s-3.7,0.8-5,2
	c-0.5-0.1-0.9-0.2-1.4-0.2c-1.7,0-3.3,0.7-4.5,1.8h-0.1c-2.4,0-4.4,1.6-5.2,3.7c-0.1,0-0.2,0-0.3,0c-3,0-5.5,2.5-5.5,5.5
	c0,0.7,0.1,1.4,0.4,2c-2.3,0.6-4.1,2.7-4.1,5.3c0,1.4,0.5,2.7,1.4,3.7c-0.9,1-1.4,2.3-1.4,3.7c0,2,1.1,3.8,2.8,4.7
	c0.1,2.5,2.1,4.4,4.6,4.4h2c0.9,0,1.7-0.6,1.8-1.5l1.3-7.7c0.1,0,0.3,0,0.4,0c1.9,0,3.6-1,4.6-2.5c1,1.5,2.7,2.5,4.6,2.5
	s3.6-1,4.6-2.5c1,1.5,2.7,2.5,4.6,2.5s3.6-1,4.6-2.5c1,1.5,2.7,2.5,4.6,2.5c0.1,0,0.3,0,0.4,0l1.3,7.7c0.1,0.9,0.9,1.5,1.8,1.5h2.5
	c2.5,0,4.6-2.1,4.6-4.6v-0.1c1.4-1,2.3-2.6,2.3-4.4c0-1.4-0.5-2.7-1.4-3.7C148,225,148.6,223.7,148.6,222.3z"/>
<path class="st7" d="M119.8,225.6c-2.1-0.7-3.7-2.8-3.7-5.2c0-1.4,0.5-2.7,1.4-3.7c-0.9-1-1.4-2.3-1.4-3.7c0-2.5,1.7-4.7,4.1-5.3
	c-0.3-0.6-0.4-1.3-0.4-2c0-1.4,0.5-2.7,1.4-3.7l0,0c-1.9,0-3.7,0.8-5,2c-0.5-0.1-0.9-0.2-1.4-0.2c-1.7,0-3.3,0.7-4.5,1.8h-0.1
	c-2.4,0-4.4,1.6-5.2,3.7c-0.1,0-0.2,0-0.3,0c-3,0-5.5,2.5-5.5,5.5c0,0.7,0.1,1.4,0.4,2c-2.3,0.6-4.1,2.7-4.1,5.3
	c0,1.4,0.5,2.7,1.4,3.7c-0.9,1-1.4,2.3-1.4,3.7c0,2,1.1,3.8,2.8,4.7c0.1,2.5,2.1,4.4,4.6,4.4h2c0.9,0,1.7-0.6,1.8-1.5l1.3-7.7
	c0.1,0,0.3,0,0.4,0c1.9,0,3.6-1,4.6-2.5c1,1.5,2.7,2.5,4.6,2.5c1.3,0,2.4-0.5,3.3-1.2c-0.6-0.7-1-1.5-1-2.5
	C119.7,225.9,119.7,225.8,119.8,225.6z"/>
<path class="st5" d="M116.5,305.2h6.9c3.8,0,6.9,3.1,6.9,6.9v4.6h-13.7L116.5,305.2L116.5,305.2z"/>
<path class="st3" d="M146.3,257.1c0,13.9-11.3,25.2-25.2,25.2c-8.9,0-16.7-4.7-21.2-11.6l-6.8,2.1c5.5,9.8,16,16.4,28,16.4
	c10.2,0,19.3-4.8,25.2-12.3V257.1z"/>
<path class="st8" d="M203.6,300.7h-68.7c-3.8,0-6.9-3.1-6.9-6.9v-41.2c0-3.8,3.1-6.9,6.9-6.9h68.7c3.8,0,6.9,3.1,6.9,6.9v41.2
	C210.4,297.6,207.4,300.7,203.6,300.7z"/>
<path class="st9" d="M182.9,316.7l-4.1-30.4c-0.3-2.3-2.2-4-4.5-4H164c-2.3,0-4.2,1.7-4.5,4l-4.1,30.4H182.9z"/>
<circle class="st10" cx="169.2" cy="268.6" r="4.6"/>
<path class="st11" d="M208.1,325.9H79.9c-1.3,0-2.3-1-2.3-2.3V319c0-1.3,1-2.3,2.3-2.3h128.3c1.3,0,2.3,1,2.3,2.3v4.6
	C210.4,324.8,209.4,325.9,208.1,325.9z"/>
<path d="M203.6,302.8c5,0,9-4,9-9v-41.2c0-5-4-9-9-9h-56.5v-1.1c0-1.4-0.5-2.7-1.3-3.7c0.6-0.7,1-1.6,1.2-2.6
	c2.3-1.4,3.8-3.8,3.8-6.6c0-1.3-0.3-2.5-1-3.7c0.6-1.1,1-2.4,1-3.7c0-2.7-1.5-5.2-3.7-6.5c0-0.3,0-0.5,0-0.8c0-3.9-2.9-7.1-6.6-7.6
	c-1.4-2.3-3.8-3.7-6.5-3.7c-0.3,0-0.7,0-1.1,0.1c-1.5-1.2-3.4-1.9-5.4-1.9c-0.3,0-0.5,0-0.8,0c-1.6-1.2-3.6-1.9-5.6-1.9
	s-4,0.7-5.6,1.9c-0.3,0-0.5,0-0.8,0c-2,0-3.8,0.7-5.3,1.9c-2.4,0.2-4.6,1.6-5.8,3.7c-3.7,0.5-6.6,3.7-6.6,7.6c0,0.3,0,0.5,0,0.8
	c-2.3,1.4-3.7,3.8-3.7,6.5c0,1.3,0.3,2.5,1,3.7c-0.6,1.1-1,2.4-1,3.7c0,2.7,1.5,5.2,3.8,6.6c0.1,0.5,0.3,1.1,0.5,1.5
	c-1.5,1.1-2.5,2.8-2.5,4.7v3.7c0,3.2,2.6,5.8,5.8,5.8h1l0.2,1c0.4,2.3,1.5,4.3,3.3,5.8l0.8,0.7v6.1c0,0.7-0.4,1.3-1.1,1.5L89,271.8
	c-4,1.2-6.7,4.9-6.7,9.1v26.7c0,2.6,0.9,5.1,2.4,7h-4.9c-2.4,0-4.4,2-4.4,4.4v4.6c0,2.4,2,4.4,4.4,4.4h128.3c2.4,0,4.4-2,4.4-4.4
	V319c0-2.4-2-4.4-4.4-4.4h-23.3l-1.6-11.7h20.4V302.8z M208.3,252.5v41.2c0,2.6-2.1,4.7-4.7,4.7H183c-0.1,0-0.2,0-0.3,0L181,286
	c-0.4-3.3-3.3-5.8-6.7-5.8H164c-3.4,0-6.2,2.5-6.7,5.8l-1.7,12.5c-0.1,0-0.2,0-0.3,0h-20.6c-2.6,0-4.7-2.1-4.7-4.7v-41.2
	c0-2.6,2.1-4.7,4.7-4.7h68.7C206.2,247.8,208.3,249.9,208.3,252.5z M148.4,314.5v-0.1v-11.6h6.7l-1.6,11.7H148.4L148.4,314.5z
	 M141.6,243.5l0.4-2.4c0.4,0.3,0.7,0.7,0.7,1.3v1.1L141.6,243.5L141.6,243.5z M98.5,224.5c-0.4-0.4-0.9-1.2-0.9-2.2
	c0-1.5,1-2.8,2.5-3.2c0.6-0.2,1.1-0.6,1.4-1.1s0.3-1.2,0.1-1.8c-0.2-0.4-0.2-0.8-0.2-1.2c0-1.8,1.5-3.3,3.3-3.3c0.1,0,0.2,0,0.3,0
	c1,0.1,1.8-0.5,2.2-1.4c0.5-1.3,1.7-2.2,3.1-2.3h0.1c0.6,0,1.1-0.2,1.5-0.6c0.8-0.8,1.9-1.2,3-1.2c0.3,0,0.6,0,0.9,0.1
	c0.7,0.2,1.4,0,1.9-0.5c1-0.9,2.2-1.4,3.5-1.4s2.6,0.5,3.5,1.4c0.5,0.5,1.2,0.7,1.9,0.5c0.3-0.1,0.6-0.1,0.9-0.1
	c1.2,0,2.3,0.5,3.1,1.4c0.6,0.6,1.5,0.9,2.3,0.6c0.4-0.1,0.7-0.2,1-0.2c1.4,0,2.7,0.9,3.1,2.3c0.3,0.9,1.2,1.5,2.2,1.4
	c0.1,0,0.2,0,0.3,0c1.8,0,3.3,1.5,3.3,3.3c0,0.4-0.1,0.8-0.2,1.2c-0.2,0.6-0.2,1.2,0.1,1.8c0.3,0.5,0.8,1,1.4,1.1
	c1.5,0.4,2.5,1.7,2.5,3.2c0,1-0.5,1.8-0.9,2.2c-0.7,0.8-0.7,2.1,0,2.9c0.4,0.4,0.9,1.2,0.9,2.2c0,1.4-0.9,2.7-2.3,3.1
	c-0.9,0.3-1.5,1.2-1.4,2.2c0,0.1,0,0.1,0,0.2c0,0.7-0.5,1.2-1.1,1.4c-0.1,0-2.1,0.1-2.1,0.1l-1.2-7.4c-0.2-1.1-1.2-1.9-2.3-1.8
	c-0.1,0-0.2,0-0.3,0l0,0c-1.1,0-2.1-0.6-2.7-1.5c-0.4-0.6-1.1-1-1.8-1l0,0c-0.7,0-1.4,0.4-1.8,1c-0.6,0.9-1.7,1.5-2.8,1.5
	c-1.1,0-2.2-0.6-2.8-1.5c-0.4-0.6-1.1-1-1.8-1l0,0c-0.7,0-1.4,0.4-1.8,1c-0.6,0.9-1.7,1.5-2.8,1.5c-1.1,0-2.2-0.6-2.8-1.5
	c-0.4-0.6-1.1-1-1.8-1l0,0c-0.7,0-1.4,0.4-1.8,1c-0.6,0.9-1.6,1.5-2.7,1.5l0,0c-0.1,0-0.2,0-0.3,0c-1.1-0.1-2.1,0.7-2.3,1.8
	l-1.2,7.4c0,0-2.1,0-2.1-0.1c-0.6-0.2-1.1-0.7-1.1-1.4c0-0.1,0-0.1,0-0.2c0.1-1-0.5-1.9-1.4-2.2c-1.4-0.5-2.3-1.7-2.3-3.1
	c0-1,0.5-1.8,0.9-2.2C99.2,226.6,99.2,225.4,98.5,224.5z M100.9,247.6c-0.8,0-1.5-0.7-1.5-1.5v-3.7c0-0.6,0.3-1,0.7-1.3l1,6.5H100.9
	z M104.5,240.9h0.3c2,0,3.6-1.4,3.9-3.3l1-6c1.1-0.2,2.2-0.7,3.2-1.4c1.3,1,2.9,1.5,4.6,1.5s3.3-0.5,4.6-1.5c1.3,1,2.9,1.5,4.6,1.5
	s3.3-0.5,4.6-1.5c0.9,0.7,2,1.2,3.2,1.4l1,6c0.2,1.4,1.2,2.5,2.4,3l-0.5,2.9h-2.5c-5,0-9,4-9,9v9.5c-0.4,0.2-0.8,0.2-1.2,0.2h-7
	c-0.8,0-1.5-0.3-2.1-0.8l-7.4-6.1c-1-0.8-1.6-1.9-1.8-3.2L104.5,240.9z M106.3,271c2.5-0.8,4.1-3,4.1-5.6v-2.5l2.3,1.9
	c1.4,1.1,3.1,1.8,4.9,1.8h7c0.4,0,0.8,0,1.2-0.1v13.8c-1.3,0.2-2.5,0.3-3.8,0.3c-7.2,0-13.9-3.3-18.4-8.8L106.3,271z M86.6,307.5
	v-26.7c0-2.3,1.5-4.3,3.7-5l9-2.8c5.2,7.4,13.7,11.8,22.7,11.8c1.3,0,2.6-0.1,3.8-0.3v9.1c0,5,4,9,9,9h9.3v11.6v0.1h-11.7v-2.4
	c0-5-4-9-9-9h-22.9c-0.1,0-0.1-0.1-0.1-0.1v-13.7c0-1.2-1-2.1-2.1-2.1c-1.2,0-2.1,1-2.1,2.1v13.7c0,2.4,2,4.4,4.4,4.4h13.9v7.2H93.6
	C89.7,314.5,86.6,311.4,86.6,307.5z M118.7,314.5v-7.2h4.7c2.6,0,4.7,2.1,4.7,4.7v2.4L118.7,314.5L118.7,314.5z M208.3,319v4.6
	c0,0.1-0.1,0.1-0.1,0.1H79.9c-0.1,0-0.1-0.1-0.1-0.1V319c0-0.1,0.1-0.1,0.1-0.1h128.3C208.2,318.8,208.3,318.9,208.3,319z
	 M157.9,314.5l3.7-28c0.2-1.2,1.2-2.1,2.4-2.1h10.3c1.2,0,2.3,0.9,2.4,2.1l3.7,28H157.9z"/>
<path d="M169.2,275.3c3.7,0,6.7-3,6.7-6.7s-3-6.7-6.7-6.7s-6.7,3-6.7,6.7S165.5,275.3,169.2,275.3z M169.2,266.1
	c1.3,0,2.4,1.1,2.4,2.4s-1.1,2.4-2.4,2.4s-2.4-1.1-2.4-2.4S167.9,266.1,169.2,266.1z"/>
<text transform="matrix(1.0756 0 0 1 687 62)" class="st12 st13">Welcome on-board</text>
<text transform="matrix(1.0756 0 0 1 667.1006 78.7998)" class="st12 st13"> to TeeCha 707</text>
<text transform="matrix(1 0 0 1 79.7871 353.064)" class="st14 st15">Client Sign Up</text>
<text transform="matrix(1 0 0 1 434.7871 354.064)" class="st14 st15">Give Student Info</text>
<text transform="matrix(1 0 0 1 793.7871 355.064)" class="st14 st15">Assessment Class</text>
<text transform="matrix(1 0 0 1 433.7871 1091.064)" class="st14 st15">Start Classes</text>
<text transform="matrix(1 0 0 1 87.7871 1080.064)" class="st14 st15">Pay Deposit</text>
<text transform="matrix(1 0 0 1 571.7871 655.064)" class="st14 st15">Agree on Timetable/Classes</text>
<text transform="matrix(1 0 0 1 793.7871 1080.064)" class="st14 st15">Ongoing Counselling</text>
<text transform="matrix(1 0 0 1 793.7871 1101.6639)" class="st14 st15"> &amp; Evaluation</text>
<text transform="matrix(1 0 0 1 80.0586 375.4902)" class="st16 st13">Click Get a Tutor tab,</text>
<text transform="matrix(1 0 0 1 80.0586 392.2902)" class="st16 st13">Fill the sign up form </text>
<text transform="matrix(1 0 0 1 80.0586 409.0902)" class="st16 st13">with your contact info.</text>
<text transform="matrix(1 0 0 1 574.0586 682.4902)" class="st16 st13">After the assessor establishes the</text>
<text transform="matrix(1 0 0 1 574.0586 699.2902)" class="st16 st13"> student needs we plan a timetable</text>
<text transform="matrix(1 0 0 1 574.0586 716.0902)" class="st16 st13"> that is most convenient then share </text>
<text transform="matrix(1 0 0 1 574.0586 732.8901)" class="st16 st13">it with you for approval.</text>
<text transform="matrix(1 0 0 1 795.0586 1126.4902)" class="st16 st13">Parallel to the tuition, counselling</text>
<text transform="matrix(1 0 0 1 795.0586 1143.2903)" class="st16 st13"> classes will be carried out</text>
<text transform="matrix(1 0 0 1 795.0586 1160.0902)" class="st16 st13"> monthly, to improve the child&apos;s</text>
<text transform="matrix(1 0 0 1 795.0586 1176.8903)" class="st16 st13">study habits and attitudes</text>
<text transform="matrix(1 0 0 1 88.0586 1101.4902)" class="st16 st13">Youll be required to pay</text>
<text transform="matrix(1 0 0 1 88.0586 1118.2903)" class="st16 st13"> a deposit of half the</text>
<text transform="matrix(1 0 0 1 88.0586 1135.0902)" class="st16 st13">total classes that will be</text>
<text transform="matrix(1 0 0 1 88.0586 1151.8903)" class="st16 st13"> scheduled within a</text>
<text transform="matrix(1 0 0 1 88.0586 1168.6902)" class="st16 st13">month</text>
<text transform="matrix(1 0 0 1 432.0586 1112.4902)" class="st16 st13">The classes start on </text>
<text transform="matrix(1 0 0 1 432.0586 1129.2903)" class="st16 st13">the date agreed upon</text>
<text transform="matrix(1 0 0 1 435.0586 375.4902)" class="st16 st13">You will be required to give</text>
<text transform="matrix(1 0 0 1 435.0586 392.2902)" class="st16 st13"> academic details of the</text>
<text transform="matrix(1 0 0 1 435.0586 409.0902)" class="st16 st13"> student and the areas</text>
<text transform="matrix(1 0 0 1 435.0586 425.8902)" class="st16 st13"> of concern.</text>
<text transform="matrix(1 0 0 1 794.0586 377.4902)" class="st16 st13">We organize an assessment</text>
<text transform="matrix(1 0 0 1 794.0586 394.2902)" class="st16 st13"> class to plan for the tuition</text>
<text transform="matrix(1 0 0 1 794.0586 411.0902)" class="st16 st13"> sessions</text>
<path class="st17" d="M516.2,251.3l1.5,38.9h-62.1l1.5-38.9L516.2,251.3L516.2,251.3z"/>
<path class="st18" d="M517.6,290.2l-1.5-38.9h-57.3c1.4,14.1,13.3,25.2,27.8,25.2c8.2,0,15.5-3.5,20.6-9.2c1.5-1.6,4.2-0.6,4.2,1.6
	l0.8,21.3H517.6L517.6,290.2z"/>
<path class="st19" d="M471.9,285.8l-20.9,5.8c-8.5,2.4-14.3,10.1-14.3,18.9v15.7h99.8v-15.7c0-8.8-5.9-16.5-14.3-18.9l-20.9-5.8
	H471.9z"/>
<path class="st20" d="M522.2,291.6l-13.8-3.8l-7.3,38.4h35.5v-15.7C536.5,301.7,530.6,294,522.2,291.6z"/>
<path class="st21" d="M522.2,291.6l-1.6-0.4c4.3,3.6,6.9,9,6.9,14.9v20.1h9v-15.7C536.5,301.7,530.6,294,522.2,291.6z"/>
<path class="st20" d="M451,291.6l13.8-3.8l7.3,38.4h-35.5v-15.7C436.7,301.7,442.6,294,451,291.6z"/>
<path class="st22" d="M495.4,285.8l-8.8,11.3l-8.8-11.3v-20.1h17.6L495.4,285.8L495.4,285.8z"/>
<path class="st18" d="M509.6,231h6.4v9.8h-6.4V231z"/>
<path class="st20" d="M515.9,231v-25.2h-58.7V231H515.9z"/>
<path class="st21" d="M511.3,205.8v15.4c0,2.7-2.2,4.9-4.9,4.9h-49.2v4.9h58.7v-25.2L511.3,205.8L511.3,205.8z"/>
<path class="st17" d="M457.2,231h6.4v9.8h-6.4V231z"/>
<path class="st23" d="M486.6,231h-23v17.6c0,12.7,10.3,23,23,23s23-10.3,23-23V231H486.6z"/>
<path class="st22" d="M502.7,231v17.6c0,11.5-8.5,21.1-19.6,22.7c1.1,0.2,2.3,0.3,3.4,0.3c12.7,0,23-10.3,23-23V231H502.7z"/>
<path class="st23" d="M459.9,252.3h4.9v-13.2h-4.9c-2.7,0-4.9,2.2-4.9,4.9v3.4C455,250.1,457.2,252.3,459.9,252.3z"/>
<path class="st22" d="M513.2,252.3h-4.9v-13.2h4.9c2.7,0,4.9,2.2,4.9,4.9v3.4C518.1,250.1,515.9,252.3,513.2,252.3z"/>
<path class="st24" d="M532.3,231.5c0,2.4-2,4.4-4.4,4.4s-4.4-2-4.4-4.4s2-4.4,4.4-4.4S532.3,229.1,532.3,231.5z"/>
<path d="M536.5,313.9c1,0,1.8-0.8,1.8-1.8v-1.6c0-9.6-6.4-18.1-15.7-20.6l-3.2-0.9l-1.4-36.8c1.2-1.2,1.9-2.9,1.9-4.7V244
	c0-2-0.8-3.7-2.2-5v-31.3h8.3v17.9c-2.5,0.8-4.4,3.2-4.4,6s1.9,5.2,4.4,6v4.6c0,1,0.8,1.8,1.8,1.8s1.8-0.8,1.8-1.8v-4.6
	c2.5-0.8,4.4-3.2,4.4-6s-1.9-5.2-4.4-6v-17.9h1.8c1,0,1.8-0.8,1.8-1.8s-0.8-1.8-1.8-1.8h-90c-1,0-1.8,0.8-1.8,1.8s0.8,1.8,1.8,1.8
	h13.8v4.2c0,1,0.8,1.8,1.8,1.8s1.8-0.8,1.8-1.8v-4.2h55v21.5h-55v-8.8c0-1-0.8-1.8-1.8-1.8s-1.8,0.8-1.8,1.8V239
	c-1.4,1.2-2.2,3-2.2,5v3.4c0,1.8,0.7,3.5,1.9,4.7l-1.4,36.8l-3.2,0.9c-9.2,2.6-15.7,11-15.7,20.6v1.6c0,1,0.8,1.8,1.8,1.8
	s1.8-0.8,1.8-1.8v-1.6c0-7.9,5.3-15,13-17.1l11.9-3.3l6.5,34.3h-12.8v-5.7c0-1-0.8-1.8-1.8-1.8s-1.8,0.8-1.8,1.8v5.7h-14.9v-3.7
	c0-1-0.8-1.8-1.8-1.8s-1.8,0.8-1.8,1.8v5.5c0,1,0.8,1.8,1.8,1.8H472l0,0l0,0h29l0,0l0,0h35.5c1,0,1.8-0.8,1.8-1.8v-5.5
	c0-1-0.8-1.8-1.8-1.8s-1.8,0.8-1.8,1.8v3.7h-14.9v-5.7c0-1-0.8-1.8-1.8-1.8s-1.8,0.8-1.8,1.8v5.7h-12.8l6.5-34.3l11.9,3.3
	c7.6,2.1,13,9.1,13,17.1v1.6C534.6,313.1,535.5,313.9,536.5,313.9z M527.9,234.1c-1.4,0-2.6-1.2-2.6-2.6c0-1.4,1.2-2.6,2.6-2.6
	s2.6,1.2,2.6,2.6C530.5,232.9,529.3,234.1,527.9,234.1z M501.8,284c-0.2,0-0.3-0.1-0.5-0.1h-4V271c6.8-3.2,11.9-9.4,13.6-16.9h2.4
	c0.4,0,0.8,0,1.2-0.1l1.3,33.9L501.8,284z M479.6,272.5c2.2,0.6,4.6,1,7,1s4.8-0.3,7-1v12.7l-7,8.9l-7-8.9V272.5z M516.3,244v3.4
	c0,1.7-1.4,3.1-3.1,3.1h-1.8V241h1.8C514.9,240.9,516.3,242.3,516.3,244z M514.1,237.3c-0.3,0-0.6-0.1-0.9-0.1h-1.8v-4.4h2.7V237.3z
	 M507.7,239.1v9.5c0,11.7-9.5,21.2-21.2,21.2s-21.2-9.5-21.2-21.2v-15.8h42.3v6.3H507.7z M459.1,232.9h2.7v4.4H460
	c-0.3,0-0.6,0-0.9,0.1L459.1,232.9L459.1,232.9z M461.8,248.6v1.8H460c-1.7,0-3.1-1.4-3.1-3.1V244c0-1.7,1.4-3.1,3.1-3.1h1.8V248.6z
	 M458.7,254c0.4,0.1,0.8,0.1,1.2,0.1h2.5c1.7,7.5,6.8,13.7,13.6,16.9v13h-4c-0.2,0-0.3,0-0.5,0.1l-14,3.9L458.7,254z M499.5,324.3
	h-25.8l-6.7-35.2l5.2-1.4h4.7l8.3,10.5c0.3,0.4,0.9,0.7,1.4,0.7c0.6,0,1.1-0.3,1.4-0.7l8.3-10.5h4.7l5.2,1.4L499.5,324.3z"/>
<path class="st25" d="M846.6,221.6v-16.5H892v16.5h-18.6L861,231.9v-10.3H846.6z"/>
<path class="st25" d="M873.5,308.3v20.6h-8.3l-4.1-8.3h-33l-4.1,8.3h-8.3V300h57.8L873.5,308.3L873.5,308.3z"/>
<path class="st25" d="M873.5,291.8v8.3h-57.8v-8.3H873.5z"/>
<path class="st26" d="M879.6,283.5v8.3h-68.1v-8.3H879.6z"/>
<path class="st27" d="M861.1,320.7l4.1,8.3h-41.3l4.1-8.3H861.1z"/>
<path class="st27" d="M896.2,308.3l2.1,20.6H890l-2.1-20.6H896.2z"/>
<path class="st28" d="M908.5,271.1v24.8c0,6.8-5.6,12.4-12.4,12.4h-22.7V300H892c4.6,0,8.3-3.7,8.3-8.3v-20.6H908.5z"/>
<path class="st29" d="M894.9,268.3c0.8-0.8,1.3-1.9,1.3-3.1s-0.5-2.3-1.3-3.1c-0.6-0.6-1.4-1.1-2.8-1.3l0,0h2.8
	c0.8,0,1.7,0.2,2.4,0.6c1.8,0.9,3,2.8,3,4.8v25.6c0,4.6-3.7,8.3-8.3,8.3h-18.6v-8.3h6.2v-8.3h-0.8c0.5,0,1.1-0.2,1.4-0.6
	L894.9,268.3z"/>
<path class="st30" d="M856.9,283.5h-37.2v-9.8c0-2.8,1.8-5.2,4.5-5.9l10-2.8c0,0,2.1,4.1,6.2,4.1s6.2-4.1,6.2-4.1l10,2.8
	c2.7,0.8,4.5,3.2,4.5,5.9v1.5H857c-1.1,0-2.2,0.5-2.9,1.2c-0.8,0.7-1.2,1.8-1.2,2.9C852.8,281.7,854.7,283.5,856.9,283.5z"/>
<g>
	<path class="st31" d="M892,260.8c1.4,0.2,2.2,0.6,2.8,1.3c0.8,0.8,1.3,1.9,1.3,3.1s-0.5,2.3-1.3,3.1l-14.6,14.6
		c-0.4,0.4-0.9,0.6-1.4,0.6h-21.9c-2.3,0-4.1-1.9-4.1-4.1c0-1.1,0.5-2.2,1.2-2.9c0.7-0.8,1.8-1.2,2.9-1.2h18.6l13.2-13.2
		c0.8-0.8,1.9-1.3,3.1-1.3C891.9,260.8,891.9,260.8,892,260.8z"/>
	<path class="st31" d="M900.3,246.4v4.1c0,5.7-4.6,10.3-10.3,10.3s-10.3-4.6-10.3-10.3v-4.1c0-5.7,4.6-10.3,10.3-10.3
		c2.8,0,5.4,1.2,7.3,3C899.1,240.9,900.3,243.5,900.3,246.4z"/>
	<path class="st31" d="M834.2,258.7c1.7,1.3,3.9,2.1,6.2,2.1s4.5-0.8,6.2-2.1v6.2c0,0-2.1,4.1-6.2,4.1s-6.2-4.1-6.2-4.1V258.7z"/>
	<path class="st31" d="M850.7,246.4v4.1c0,3.4-1.6,6.4-4.1,8.3c-1.7,1.3-3.9,2.1-6.2,2.1s-4.5-0.8-6.2-2.1c-2.5-1.9-4.1-4.9-4.1-8.3
		v-4.1c0-5.7,4.6-10.3,10.3-10.3c2.8,0,5.4,1.2,7.3,3C849.6,240.9,850.7,243.5,850.7,246.4z"/>
</g>
<path d="M859,236.3l15.2-12.7h19.9V203h-49.5v20.6H859V236.3z M848.7,219.5v-12.4H890v12.4h-17.3l-9.6,8v-8H848.7z"/>
<path d="M852.8,211.3h4.1v4.1h-4.1V211.3z"/>
<path d="M861.1,211.3h16.5v4.1h-16.5V211.3z"/>
<path d="M881.7,211.3h4.1v4.1h-4.1V211.3z"/>
<path d="M900.1,326.9l-1.7-16.7c6.9-1.1,12.2-7.1,12.2-14.3v-26.8h-8.3v-2.9c0-2.8-1.5-5.3-4-6.6c2.5-2.3,4-5.5,4-9.1v-4.1
	c0-6.8-5.6-12.4-12.4-12.4c-6.8,0-12.4,5.6-12.4,12.4v4.1c0,5.3,3.4,9.9,8.2,11.6l-11.1,11.1H863c-0.2-3.4-2.6-6.4-5.9-7.4l-8.5-2.4
	v-3.7c2.5-2.3,4.1-5.5,4.1-9.2v-4.1c0-6.8-5.6-12.4-12.4-12.4s-12.4,5.6-12.4,12.4v4.1c0,3.7,1.6,6.9,4.1,9.2v3.7l-8.5,2.4
	c-3.5,1-6,4.3-6,7.9v7.7h-8.3v12.4h4.1v33H795v4.1h128v-4.1L900.1,326.9L900.1,326.9z M881.7,293.8v-9.5l14.6-14.6
	c1.1-1.1,1.7-2.5,1.8-4c0,0.1,0.1,0.3,0.1,0.4v25.6c0,3.4-2.8,6.2-6.2,6.2h-16.5v-4.1H881.7z M875.5,310.4H886l1.7,16.5h-12.2V310.4
	z M890.2,310.4h4.1l1.7,16.5h-4.1L890.2,310.4z M902.4,291.8v-18.6h4.1v22.7c0,5.7-4.6,10.3-10.3,10.3h-20.6v-4.1H892
	C897.7,302.1,902.4,297.5,902.4,291.8z M881.7,250.5v-4.1c0-4.6,3.7-8.3,8.3-8.3s8.3,3.7,8.3,8.3v4.1c0,4.6-3.7,8.3-8.3,8.3
	C885.4,258.7,881.7,255,881.7,250.5z M876.4,277.3l13.8-13.8c0.4-0.4,1-0.7,1.6-0.7c1.3,0,2.3,1,2.3,2.3c0,0.6-0.2,1.2-0.7,1.6
	l-14.6,14.6h-21.9c-1.1,0-2.1-0.9-2.1-2.1c0-1.1,0.9-2.1,2.1-2.1h19.5V277.3z M832.2,246.4c0-4.6,3.7-8.3,8.3-8.3s8.3,3.7,8.3,8.3
	v4.1c0,4.6-3.7,8.3-8.3,8.3s-8.3-3.7-8.3-8.3V246.4z M840.4,262.9c1.4,0,2.8-0.3,4.1-0.7v2.2c-0.5,0.8-1.9,2.6-4.1,2.6
	c-2.2,0-3.6-1.8-4.1-2.6v-2.2C837.6,262.6,839,262.9,840.4,262.9z M821.8,273.7c0-1.8,1.2-3.5,3-4l8.5-2.4c1.2,1.6,3.5,3.8,7.1,3.8
	s5.9-2.2,7.1-3.8l8.5,2.4c1.6,0.5,2.7,1.8,2.9,3.4h-2c-3.4,0-6.2,2.8-6.2,6.2c0,0.7,0.1,1.4,0.4,2.1h-29.3V273.7z M813.6,285.6h64
	v4.1h-64V285.6z M817.7,302.1h6.2V298h-6.2v-4.1h53.7v4.1H828v4.1h43.4v24.8h-4.9l-4.1-8.3h-35.6l-4.1,8.3h-4.9v-24.8H817.7z
	 M861.9,326.9h-34.6l2.1-4.1h30.5L861.9,326.9z"/>
<path class="st32" d="M344.2,751.5H231.7c-1.7,0-3.1-1.4-3.1-3.1v-92.5c0-5.5,4.4-9.9,9.9-9.9h99c5.5,0,9.9,4.4,9.9,9.9v92.5
	C347.3,750.1,346,751.5,344.2,751.5z"/>
<path class="st33" d="M347.3,655.8v92.5c0,1.7-1.4,3.1-3.1,3.1h-9.4c1.7,0,3.1-1.4,3.1-3.1v-92.5c0-5.5-4.4-9.9-9.9-9.9h9.4
	C342.9,645.9,347.3,650.3,347.3,655.8z"/>
<path class="st34" d="M347.3,655.8v15.1H228.6v-15.1c0-5.5,4.4-9.9,9.9-9.9h99C342.9,645.9,347.3,650.3,347.3,655.8z"/>
<path class="st35" d="M347.3,655.8v15.1h-9.4v-15.1c0-5.5-4.4-9.9-9.9-9.9h9.4C342.9,645.9,347.3,650.3,347.3,655.8z"/>
<path class="st34" d="M278,740.7c-1.5,0-2.9-0.6-4-1.7l-10-10c-2.2-2.2-2.2-5.8,0-8.1c2.2-2.2,5.8-2.2,8.1,0l6,6l23.3-23.3
	c2.2-2.2,5.8-2.2,8.1,0c2.2,2.2,2.2,5.8,0,8.1L282.1,739C281,740.1,279.5,740.7,278,740.7z"/>
<g>
	<path class="st36" d="M249.8,653.8h-3.6c-1.5,0-2.8-1.2-2.8-2.8v-9.4c0-1.5,1.2-2.8,2.8-2.8h3.6c1.5,0,2.8,1.2,2.8,2.8v9.4
		C252.6,652.6,251.3,653.8,249.8,653.8z"/>
	<path class="st36" d="M275.7,653.8h-3.6c-1.5,0-2.8-1.2-2.8-2.8v-9.4c0-1.5,1.2-2.8,2.8-2.8h3.6c1.5,0,2.8,1.2,2.8,2.8v9.4
		C278.5,652.6,277.3,653.8,275.7,653.8z"/>
	<path class="st36" d="M301.7,653.8h-3.6c-1.5,0-2.8-1.2-2.8-2.8v-9.4c0-1.5,1.2-2.8,2.8-2.8h3.6c1.5,0,2.8,1.2,2.8,2.8v9.4
		C304.5,652.6,303.2,653.8,301.7,653.8z"/>
	<path class="st36" d="M327.7,653.8H324c-1.5,0-2.8-1.2-2.8-2.8v-9.4c0-1.5,1.2-2.8,2.8-2.8h3.6c1.5,0,2.8,1.2,2.8,2.8v9.4
		C330.4,652.6,329.2,653.8,327.7,653.8z"/>
</g>
<path class="st37" d="M357.4,739.1c0,13.2-10.7,23.9-23.9,23.9s-23.9-10.7-23.9-23.9s10.7-23.9,23.9-23.9S357.4,725.9,357.4,739.1z"
	/>
<path class="st32" d="M350.7,739.1c0,9.5-7.7,17.2-17.2,17.2s-17.2-7.7-17.2-17.2s7.7-17.2,17.2-17.2S350.7,729.6,350.7,739.1z"/>
<path d="M228.6,731.4c1.1,0,1.9-0.9,1.9-1.9v-56.6h114.9v21.4c0,1.1,0.9,1.9,1.9,1.9c1.1,0,1.9-0.9,1.9-1.9v-38.4
	c0-6.5-5.3-11.8-11.8-11.8h-5.1v-2.4c0-2.6-2.1-4.7-4.7-4.7H324c-2.6,0-4.7,2.1-4.7,4.7v2.4h-12.9v-2.4c0-2.6-2.1-4.7-4.7-4.7h-3.6
	c-2.6,0-4.7,2.1-4.7,4.7v2.4h-12.9v-2.4c0-2.6-2.1-4.7-4.7-4.7h-3.6c-2.6,0-4.7,2.1-4.7,4.7v2.4h-12.9v-2.4c0-2.6-2.1-4.7-4.7-4.7
	h-3.6c-2.6,0-4.7,2.1-4.7,4.7v2.4h-3c-6.5,0-11.8,5.3-11.8,11.8v73.7C226.6,730.6,227.5,731.4,228.6,731.4z M323.2,641.6
	c0-0.5,0.4-0.8,0.8-0.8h3.6c0.5,0,0.8,0.4,0.8,0.8v9.4c0,0.5-0.4,0.8-0.8,0.8H324c-0.5,0-0.8-0.4-0.8-0.8V641.6z M297.2,641.6
	c0-0.5,0.4-0.8,0.8-0.8h3.6c0.5,0,0.8,0.4,0.8,0.8v9.4c0,0.5-0.4,0.8-0.8,0.8H298c-0.5,0-0.8-0.4-0.8-0.8V641.6z M271.3,641.6
	c0-0.5,0.4-0.8,0.8-0.8h3.6c0.5,0,0.8,0.4,0.8,0.8v9.4c0,0.5-0.4,0.8-0.8,0.8h-3.6c-0.5,0-0.8-0.4-0.8-0.8V641.6z M245.3,641.6
	c0-0.5,0.4-0.8,0.8-0.8h3.6c0.5,0,0.8,0.4,0.8,0.8v9.4c0,0.5-0.4,0.8-0.8,0.8h-3.6c-0.5,0-0.8-0.4-0.8-0.8V641.6z M238.5,647.9h3
	v3.1c0,2.6,2.1,4.7,4.7,4.7h3.6c2.6,0,4.7-2.1,4.7-4.7v-3.1h12.9v3.1c0,2.6,2.1,4.7,4.7,4.7h3.6c2.6,0,4.7-2.1,4.7-4.7v-3.1h12.9
	v3.1c0,2.6,2.1,4.7,4.7,4.7h3.6c2.6,0,4.7-2.1,4.7-4.7v-3.1h12.9v3.1c0,2.6,2.1,4.7,4.7,4.7h3.6c2.6,0,4.7-2.1,4.7-4.7v-3.1h5.1
	c4.4,0,7.9,3.6,7.9,7.9V669H230.5v-13.2C230.5,651.4,234.1,647.9,238.5,647.9z"/>
<path d="M248.6,749.5h-17c-0.6,0-1.2-0.5-1.2-1.2v-10c0-1.1-0.9-1.9-1.9-1.9c-1.1,0-1.9,0.9-1.9,1.9v10c0,2.8,2.3,5.1,5.1,5.1h17
	c1.1,0,1.9-0.9,1.9-1.9C250.6,750.4,249.7,749.5,248.6,749.5z"/>
<path d="M248.6,678.5h-6.8c-1.1,0-1.9,0.9-1.9,1.9c0,1.1,0.9,1.9,1.9,1.9h6.8c1.1,0,1.9-0.9,1.9-1.9S249.7,678.5,248.6,678.5z"/>
<path d="M262.6,682.4h6.8c1.1,0,1.9-0.9,1.9-1.9c0-1.1-0.9-1.9-1.9-1.9h-6.8c-1.1,0-1.9,0.9-1.9,1.9
	C260.6,681.5,261.5,682.4,262.6,682.4z"/>
<path d="M283.4,682.4h6.8c1.1,0,1.9-0.9,1.9-1.9c0-1.1-0.9-1.9-1.9-1.9h-6.8c-1.1,0-1.9,0.9-1.9,1.9
	C281.4,681.5,282.3,682.4,283.4,682.4z"/>
<path d="M304.1,682.4h6.8c1.1,0,1.9-0.9,1.9-1.9c0-1.1-0.9-1.9-1.9-1.9h-6.8c-1.1,0-1.9,0.9-1.9,1.9S303.1,682.4,304.1,682.4z"/>
<path d="M331.7,678.5h-6.8c-1.1,0-1.9,0.9-1.9,1.9c0,1.1,0.9,1.9,1.9,1.9h6.8c1.1,0,1.9-0.9,1.9-1.9S332.7,678.5,331.7,678.5z"/>
<path d="M248.6,688.3h-6.8c-1.1,0-1.9,0.9-1.9,1.9s0.9,1.9,1.9,1.9h6.8c1.1,0,1.9-0.9,1.9-1.9S249.7,688.3,248.6,688.3z"/>
<path d="M262.6,692.2h6.8c1.1,0,1.9-0.9,1.9-1.9s-0.9-1.9-1.9-1.9h-6.8c-1.1,0-1.9,0.9-1.9,1.9S261.5,692.2,262.6,692.2z"/>
<path d="M283.4,692.2h6.8c1.1,0,1.9-0.9,1.9-1.9s-0.9-1.9-1.9-1.9h-6.8c-1.1,0-1.9,0.9-1.9,1.9S282.3,692.2,283.4,692.2z"/>
<path d="M304.1,692.2h6.8c1.1,0,1.9-0.9,1.9-1.9s-0.9-1.9-1.9-1.9h-6.8c-1.1,0-1.9,0.9-1.9,1.9S303.1,692.2,304.1,692.2z"/>
<path d="M331.7,688.3h-6.8c-1.1,0-1.9,0.9-1.9,1.9s0.9,1.9,1.9,1.9h6.8c1.1,0,1.9-0.9,1.9-1.9S332.7,688.3,331.7,688.3z"/>
<path d="M262.6,730.4l10,10c1.4,1.4,3.4,2.2,5.4,2.2s4-0.8,5.4-2.2l27.4-27.4c3-3,3-7.8,0-10.8s-7.8-3-10.8,0l-22,22l-4.6-4.6
	c-3-3-7.8-3-10.8,0C259.7,722.5,259.7,727.4,262.6,730.4z M265.4,722.3c0.7-0.7,1.7-1.1,2.7-1.1s1.9,0.4,2.7,1.1l6,6
	c0.8,0.8,2,0.8,2.7,0l23.3-23.3c1.5-1.5,3.9-1.5,5.3,0c1.5,1.5,1.5,3.9,0,5.3l-27.4,27.4c-0.7,0.7-1.7,1.1-2.7,1.1s-2-0.4-2.7-1.1
	l-10-10C263.9,726.2,263.9,723.8,265.4,722.3z"/>
<path d="M349.3,718.6v-15.5c0-1.1-0.9-1.9-1.9-1.9c-1.1,0-1.9,0.9-1.9,1.9v13c-3.5-1.8-7.6-2.9-11.8-2.9
	c-14.2,0-25.8,11.6-25.8,25.8c0,3.7,0.8,7.3,2.2,10.5h-52.5c-1.1,0-1.9,0.9-1.9,1.9c0,1.1,0.9,1.9,1.9,1.9h54.6
	c4.6,6.9,12.5,11.4,21.4,11.4c14.2,0,25.8-11.6,25.8-25.8C359.4,730.7,355.4,723.3,349.3,718.6z M333.6,761
	c-12.1,0-21.9-9.8-21.9-21.9s9.8-21.9,21.9-21.9s21.9,9.8,21.9,21.9S345.7,761,333.6,761z"/>
<path d="M333.6,720c-10.5,0-19.1,8.6-19.1,19.1s8.6,19.1,19.1,19.1s19.1-8.6,19.1-19.1C352.7,728.5,344.1,720,333.6,720z
	 M335.3,754.2c0.1-0.3,0.2-0.6,0.2-0.9v-2.4c0-1.1-0.9-1.9-1.9-1.9c-1.1,0-1.9,0.9-1.9,1.9v2.4c0,0.3,0.1,0.6,0.2,0.9
	c-7-0.8-12.6-6.4-13.4-13.4c0.3,0.1,0.6,0.2,0.9,0.2h2.4c1.1,0,1.9-0.9,1.9-1.9s-0.9-1.9-1.9-1.9h-2.4c-0.3,0-0.6,0.1-0.9,0.2
	c0.8-7,6.4-12.6,13.4-13.4c-0.1,0.3-0.2,0.6-0.2,0.9v2.4c0,1.1,0.9,1.9,1.9,1.9c1.1,0,1.9-0.9,1.9-1.9v-2.4c0-0.3-0.1-0.6-0.2-0.9
	c7,0.8,12.6,6.4,13.4,13.4c-0.3-0.1-0.6-0.2-0.9-0.2h-2.4c-1.1,0-1.9,0.9-1.9,1.9s0.9,1.9,1.9,1.9h2.4c0.3,0,0.6-0.1,0.9-0.2
	C347.9,747.8,342.3,753.4,335.3,754.2z"/>
<path d="M337.9,737.1h-2.3v-2c0-1.1-0.9-1.9-1.9-1.9c-1.1,0-1.9,0.9-1.9,1.9v3.9c0,1.1,0.9,1.9,1.9,1.9h4.3c1.1,0,1.9-0.9,1.9-1.9
	S338.9,737.1,337.9,737.1z"/>
<g id="Page-1">
	<g>
		<path id="Shape" class="st38" d="M559.8,956.3l-3.1,13.7l-3.3,14.8l-3.3,14.8l-2.4,10.7c-0.2,0.8-0.7,1.4-1.5,1.6
			s-1.6,0.1-2.1-0.4c-3-2.9-6.7-5.1-10.8-6.3c-5-1.4-10.2-1.8-15.3-1.1c-5.4,0.6-10.8,1.6-16.2,2.9c-5.3,1.3-10.7,2.2-16.2,2.9
			c-5.1,0.6-10.3,0.2-15.3-1.1l0,0c-5.3-1.7-10-4.8-13.5-9.2l3.3-14.8l3.3-14.8l3.3-14.8l3.3-14.8c3.5,4.3,8.2,7.5,13.5,9.2
			c5,1.4,10.1,1.8,15.3,1.1c5.4-0.6,10.8-1.6,16.2-2.9c5.3-1.3,10.7-2.2,16.2-2.9c5.1-0.6,10.3-0.2,15.3,1.1
			c4.9,1.5,9.3,4.4,12.7,8.3C559.7,954.9,559.9,955.6,559.8,956.3z"/>
		<path class="st39" d="M480.4,964.3c-1.1,4.9-2.2,9.8-3.3,14.7c-5.3-1.7-10-4.9-13.4-9.2L467,955
			C470.4,959.4,475.1,962.6,480.4,964.3z"/>
		<path class="st39" d="M473.7,993.8c-0.2,1-0.4,2-0.7,3c-0.9,4-1.8,7.9-2.6,11.8c-5.3-1.7-10-4.8-13.5-9.2l3.3-14.8
			C463.8,989,468.4,992.2,473.7,993.8z"/>
		<path class="st39" d="M499,950.6c-1.1,4.9-2.2,9.9-3.3,14.8c-5.1,0.6-10.3,0.2-15.3-1.1c1.1-4.9,2.2-9.9,3.3-14.8
			C488.7,950.9,493.8,951.3,499,950.6z"/>
		<path class="st39" d="M505.2,992.1c-0.2,1-0.4,2-0.7,3c-0.9,4-1.8,7.9-2.6,11.8c-5.3,1.3-10.7,2.2-16.2,2.9
			c0.9-4,1.8-7.9,2.6-11.8c0.2-1,0.4-2,0.7-3C494.5,994.3,499.9,993.3,505.2,992.1z"/>
		<path class="st39" d="M531.3,944.9l-3.3,14.8c-5.4,0.6-10.9,1.6-16.2,2.9c1.1-4.9,2.2-9.9,3.3-14.8
			C520.4,946.5,525.9,945.5,531.3,944.9z"/>
		<path class="st39" d="M536.6,990.4c-0.2,1-0.4,2-0.7,2.9c-0.9,3.9-1.8,7.9-2.6,11.8c-5-1.4-10.2-1.8-15.3-1.1
			c0.9-3.9,1.8-7.9,2.6-11.8c0.2-1,0.4-2,0.7-3C526.5,988.6,531.7,989,536.6,990.4z"/>
		<path class="st39" d="M553.4,984.8l-3.3,14.8c-3.5-4.3-8.2-7.5-13.5-9.2c1.1-4.9,2.2-9.9,3.3-14.8
			C545.2,977.3,549.9,980.4,553.4,984.8z"/>
		<path class="st39" d="M559.8,956.3l-3.1,13.7c-3.5-4.3-8.2-7.5-13.5-9.2c1.1-4.9,2.2-9.9,3.3-14.8c4.9,1.5,9.3,4.4,12.7,8.3
			C559.7,954.9,559.9,955.6,559.8,956.3z"/>
		<path class="st39" d="M543.2,960.8l-3.3,14.8c-5-1.4-10.1-1.8-15.3-1.2l3.3-14.8C533.1,959,538.3,959.4,543.2,960.8z"/>
		<path class="st39" d="M492.3,980.2L489,995c-5.1,0.7-10.3,0.3-15.3-1.1c1.1-4.9,2.2-9.9,3.3-14.8
			C482,980.4,487.2,980.8,492.3,980.2z"/>
		<path class="st39" d="M511.8,962.5c-1.1,4.9-2.2,9.8-3.3,14.7c-5.3,1.3-10.7,2.2-16.2,2.9l3.3-14.8
			C501.1,964.8,506.5,963.8,511.8,962.5z"/>
		<path class="st39" d="M524.7,974.4c-1.1,4.9-2.2,9.9-3.3,14.8c-5.4,0.6-10.8,1.6-16.2,2.9c1.1-4.9,2.2-9.9,3.3-14.8
			C513.8,976,519.2,975.1,524.7,974.4z"/>
		<path class="st40" d="M472.5,939.2c0,0.4-0.1,0.9-0.2,1.3l-26,115.9c-0.3,1.6-1.3,2.9-2.7,3.8c-1.4,0.9-3,1.1-4.6,0.8l-0.2-0.1
			c-3.1-0.8-5.1-4-4.4-7.2l26-115.9c0.7-3.3,4-5.3,7.2-4.6l0,0C470.6,933.9,472.5,936.3,472.5,939.2z"/>
		<path class="st41" d="M472.5,939.2c0,0.4-0.1,0.9-0.2,1.3l-26,115.9c-0.3,1.6-1.3,2.9-2.7,3.8c-1.4,0.9-3,1.1-4.6,0.8l-0.2-0.1
			l28.9-127.6C470.6,933.9,472.5,936.3,472.5,939.2z"/>
	</g>
</g>
<path class="st42" d="M102.8,924.1h55.5c4.7,0,8.5,3.8,8.5,8.5v106.7c0,4.7-3.8,8.5-8.5,8.5h-55.5c-4.7,0-8.5-3.8-8.5-8.5V932.7
	C94.3,928,98.1,924.1,102.8,924.1z"/>
<path class="st43" d="M158.3,951.9h55.5V986h-55.5V951.9z"/>
<g>
	<path class="st44" d="M213.7,975.3h-4.3c-3.5,0-6.4,2.9-6.4,6.4v4.3h10.7V975.3z"/>
	<circle class="st44" cx="186" cy="968.9" r="8.5"/>
	<path class="st44" d="M213.7,962.5h-4.3c-3.5,0-6.4-2.9-6.4-6.4v-4.3h10.7V962.5z"/>
</g>
<path class="st45" d="M139.1,968.9h55.5v34.1h-55.5V968.9z"/>
<path class="st46" d="M151.9,983.9v27.7c2.6,1.3,4.3,4,4.3,6.9v3.8H105v-3.8c0-2.9,1.7-5.6,4.3-6.9v-27.7c0-8.2,6.7-14.9,14.9-14.9
	H137C145.2,968.9,151.9,975.6,151.9,983.9z"/>
<path class="st47" d="M126.3,968.9c-2.7-2.7-4.3-6.4-4.3-10.3V954h17.1v4.6c0,3.9-1.5,7.6-4.3,10.3L126.3,968.9L126.3,968.9z"/>
<path class="st48" d="M194.5,992.4h-4.3c-3.5,0-6.4,2.9-6.4,6.4v4.3h10.7V992.4z"/>
<circle class="st48" cx="166.8" cy="986" r="8.5"/>
<path class="st48" d="M194.5,979.6h-4.3c-3.5,0-6.4-2.9-6.4-6.4v-4.3h10.7V979.6z"/>
<path d="M104.9,1035.1h8.5v4.3h-8.5V1035.1z"/>
<path d="M149.7,1035.1h8.5v4.3h-8.5V1035.1z"/>
<path d="M128.4,1007.3h4.3v-4.6c3.3-1.2,5.1-4.8,3.9-8.2c-0.9-2.6-3.3-4.3-6-4.3c-1.2,0-2.1-1-2.1-2.1c0-1.2,1-2.1,2.1-2.1h6.4v-4.3
	h-4.3v-4.3h-4.3v4.6c-3.3,1.2-5.1,4.8-3.9,8.2c0.9,2.6,3.3,4.3,6,4.3c1.2,0,2.1,1,2.1,2.1c0,1.2-1,2.1-2.1,2.1h-6.4v4.3h4.3
	L128.4,1007.3L128.4,1007.3z"/>
<path d="M213.7,949.7h-44.8v-17.1c0-5.9-4.8-10.7-10.7-10.7h-55.5c-5.9,0-10.7,4.8-10.7,10.7v106.7c0,5.9,4.8,10.7,10.7,10.7h55.5
	c5.9,0,10.7-4.8,10.7-10.7v-34.1h25.6c1.2,0,2.1-1,2.1-2.1l0,0v-14.9h17.1c1.2,0,2.1-1,2.1-2.1l0,0V952
	C215.9,950.7,214.9,949.7,213.7,949.7L213.7,949.7z M211.6,960.4h-2.1c-2.4,0-4.3-1.9-4.3-4.3V954h6.4L211.6,960.4L211.6,960.4z
	 M186,971.1h6.4v6.4h-2.1c-2.4,0-4.3-1.9-4.3-4.3L186,971.1L186,971.1z M180,966.8c1.2-3.3,4.8-5.1,8.2-3.9c1.8,0.6,3.3,2.1,3.9,3.9
	H180z M181.7,971.1v2.1c0,4.7,3.8,8.5,8.5,8.5h2.1v8.5h-2.1c-4.7,0-8.5,3.8-8.5,8.5v2.1H154V988h2.3c1.2,5.8,6.8,9.5,12.6,8.3
	c4.2-0.9,7.5-4.1,8.3-8.3h6.6v-4.3h-6.6c-1.2-5.8-6.8-9.5-12.6-8.3c-4.2,0.9-7.5,4.1-8.3,8.3H154c0-4.9-2.1-9.6-5.8-12.8h33.5V971.1
	z M124.1,958.6v-2.5h12.8v2.5c0,3-1.1,5.9-3.1,8.2h-6.7C125.2,964.5,124.1,961.6,124.1,958.6z M139,966.9c0,0,0-0.1,0.1-0.1
	L139,966.9L139,966.9z M136.9,971.1c7.1,0,12.8,5.7,12.8,12.8v25.6h-12.8v4.3h14.4c1.7,1,2.7,2.8,2.7,4.8v1.6h-46.9v-1.6
	c0-2.1,1.2-4.1,3.1-5c0.7-0.4,1.2-1.1,1.2-1.9V984c0-7.1,5.7-12.8,12.8-12.8L136.9,971.1L136.9,971.1z M160.4,986
	c0-3.5,2.9-6.4,6.4-6.4s6.4,2.9,6.4,6.4s-2.9,6.4-6.4,6.4C163.3,992.4,160.4,989.5,160.4,986z M166.8,954v2.1c0,2.4-1.9,4.3-4.3,4.3
	h-2.1V954H166.8z M164.7,1039.3c0,3.5-2.9,6.4-6.4,6.4h-55.5c-3.5,0-6.4-2.9-6.4-6.4V932.7c0-3.5,2.9-6.4,6.4-6.4h14l3.6,3.6
	c0.4,0.4,0.9,0.6,1.5,0.6H139c0.6,0,1.1-0.2,1.5-0.6l3.6-3.6h14c3.5,0,6.4,2.9,6.4,6.4v17.1h-6.4c-1.2,0-2.1,1-2.1,2.1l0,0v14.9
	h-17.1c1.4-2.5,2.1-5.3,2.1-8.2V954c0-1.2-1-2.1-2.1-2.1l0,0H122c-1.2,0-2.1,1-2.1,2.1l0,0v4.6c0,2.9,0.8,5.8,2.2,8.3
	c-8.6,1.1-15,8.3-15,16.9v26.5c-2.7,1.8-4.3,4.9-4.3,8.1v3.8c0,1.2,1,2.1,2.1,2.1l0,0h51.2c1.2,0,2.1-1,2.1-2.1l0,0v-3.8
	c0-3.2-1.6-6.3-4.3-8.1v-5.2h10.7v34.2H164.7z M186,1000.9v-2.1c0-2.4,1.9-4.3,4.3-4.3h2.1v6.4L186,1000.9L186,1000.9z M196.7,971.1
	h6.4v-4.3h-6.6c-1.2-5.8-6.8-9.5-12.6-8.3c-4.2,0.9-7.5,4.1-8.3,8.3h-15.1v-2.1h2.1c4.7,0,8.5-3.8,8.5-8.5V954H201v2.1
	c0,4.7,3.8,8.5,8.5,8.5h2.1v8.5h-2.1c-4.7,0-8.5,3.8-8.5,8.5v2.1h-4.3L196.7,971.1L196.7,971.1z M205.2,983.9v-2.1
	c0-2.4,1.9-4.3,4.3-4.3h2.1v6.4L205.2,983.9L205.2,983.9z"/>
<path class="st25" d="M901.3,1047.9c-11.4,0-20.6-9.2-20.6-20.6c0-4.1,1.2-7.8,3.2-11l-3.2-7.6l9.6,1.1c3.2-2,7-3.2,11-3.2
	c11.4,0,20.6,9.2,20.6,20.6S912.7,1047.9,901.3,1047.9z"/>
<path class="st49" d="M913.7,1039.7h-24.8c0-2.5,1.4-4.9,3.7-6l4.6-2.3v-1.6c-1.3-1.1-2.1-2.7-2.1-4.6v-3.8c0-3.3,2.5-6.4,5.9-6.5
	c3.6-0.2,6.5,2.7,6.5,6.2v4.1c0,1.8-0.8,3.4-2.1,4.6v1.6l4.6,2.3C912.3,1034.8,913.7,1037.1,913.7,1039.7z"/>
<path class="st50" d="M868.3,940.6h49.5c2.3,0,4.1,1.9,4.1,4.1v28.9c0,2.3-1.9,4.1-4.1,4.1H891l-16.5,8.3v-8.3h-6.2
	c-2.3,0-4.1-1.9-4.1-4.1v-28.9C864.1,942.4,866,940.6,868.3,940.6z"/>
<path class="st25" d="M855.9,928.2V953c0,2.3-1.9,4.1-4.1,4.1h-18.6v6.2l-10.3-6.2h-20.6c-2.3,0-4.1-1.9-4.1-4.1v-24.8
	c0-2.3,1.9-4.1,4.1-4.1h49.5C854,924.1,855.9,925.9,855.9,928.2z"/>
<g>
	<circle class="st49" cx="843.5" cy="940.6" r="4.1"/>
	<circle class="st49" cx="827" cy="940.6" r="4.1"/>
	<circle class="st49" cx="810.5" cy="940.6" r="4.1"/>
</g>
<path class="st51" d="M872.4,1004.6v12.4l-7.3,1.9c-0.7,2.6-1.7,5.1-3.1,7.4l3.8,6.5l-8.8,8.8l-6.5-3.8c-2.3,1.3-4.8,2.4-7.4,3.1
	l-1.9,7.3H829l-1.9-7.3c-2.6-0.7-5.1-1.7-7.4-3.1l-6.5,3.8l-8.8-8.8l3.8-6.5c-1.3-2.3-2.4-4.8-3.1-7.4l-7.3-1.9v-12.4l7.3-1.9
	c0.7-2.6,1.7-5.1,3.1-7.4l-3.8-6.5l8.8-8.8l6.5,3.8c2.3-1.3,4.8-2.4,7.4-3.1l1.9-7.3h12.4l1.9,7.3c2.6,0.7,5.1,1.7,7.4,3.1l6.5-3.8
	l8.8,8.8l-3.8,6.5c1.3,2.3,2.4,4.8,3.1,7.4L872.4,1004.6z M857.9,1010.8c0-12.6-10.2-22.7-22.7-22.7c-12.6,0-22.7,10.2-22.7,22.7
	c0,12.6,10.2,22.7,22.7,22.7C847.8,1033.5,857.9,1023.3,857.9,1010.8z"/>
<path class="st29" d="M835.2,988.1c12.6,0,22.7,10.2,22.7,22.7c0,12.6-10.2,22.7-22.7,22.7c-12.6,0-22.7-10.2-22.7-22.7
	C812.5,998.2,822.7,988.1,835.2,988.1z M845.5,1010.8c0-5.7-4.6-10.3-10.3-10.3s-10.3,4.6-10.3,10.3s4.6,10.3,10.3,10.3
	S845.5,1016.5,845.5,1010.8z"/>
<path d="M864.4,995.4l4.1-6.8l-11-11l-6.8,4.1c-1.8-0.9-3.7-1.7-5.6-2.3l-2-7.7h-15.6l-2,7.7c-2,0.6-3.8,1.4-5.6,2.3l-6.8-4.1
	l-11,11l4.1,6.8c-0.9,1.8-1.7,3.7-2.3,5.6l-7.7,2v15.6l7.7,2c0.6,2,1.4,3.8,2.3,5.6l-4.1,6.8l11,11l6.8-4.1c1.8,0.9,3.7,1.7,5.6,2.3
	l2,7.7H843l2-7.7c2-0.6,3.8-1.4,5.6-2.3l6.8,4.1l11-11l-4.1-6.8c0.9-1.8,1.7-3.7,2.3-5.6l7.7-2V1003l-7.7-2
	C866.2,999.1,865.4,997.2,864.4,995.4z M870.3,1015.4l-6.9,1.8l-0.3,1.2c-0.7,2.4-1.6,4.7-2.8,6.9l-0.6,1l3.6,6.1l-6.5,6.5l-6.1-3.6
	l-1,0.6c-2.1,1.2-4.5,2.2-6.9,2.8l-1.2,0.3l-1.8,6.9h-9.2l-1.8-6.9l-1.2-0.3c-2.4-0.7-4.7-1.6-6.9-2.8l-1-0.6l-6.1,3.6l-6.5-6.5
	l3.6-6.1l-0.6-1c-1.2-2.1-2.2-4.5-2.8-6.9l-0.3-1.2l-6.9-1.8v-9.2l6.9-1.8l0.3-1.2c0.7-2.4,1.6-4.7,2.8-6.9l0.6-1l-3.6-6.1l6.5-6.5
	l6.1,3.6l1-0.6c2.1-1.2,4.5-2.2,6.9-2.8l1.2-0.3l1.8-6.9h9.2l1.8,6.9l1.2,0.3c2.4,0.7,4.7,1.6,6.9,2.8l1,0.6l6.1-3.6l6.5,6.5
	l-3.6,6.1l0.6,1c1.2,2.1,2.2,4.5,2.8,6.9l0.3,1.2l6.9,1.8V1015.4z"/>
<path d="M835.2,986c-13.7,0-24.8,11.1-24.8,24.8s11.1,24.8,24.8,24.8s24.8-11.1,24.8-24.8S848.9,986,835.2,986z M835.2,1031.4
	c-11.4,0-20.6-9.3-20.6-20.6c0-11.4,9.3-20.6,20.6-20.6c11.4,0,20.6,9.3,20.6,20.6C855.9,1022.2,846.6,1031.4,835.2,1031.4z"/>
<path d="M835.2,998.4c-6.8,0-12.4,5.6-12.4,12.4s5.6,12.4,12.4,12.4s12.4-5.6,12.4-12.4S842.1,998.4,835.2,998.4z M835.2,1019
	c-4.6,0-8.3-3.7-8.3-8.3s3.7-8.3,8.3-8.3s8.3,3.7,8.3,8.3S839.8,1019,835.2,1019z"/>
<path d="M917.8,938.5h-49.5c-3.4,0-6.2,2.8-6.2,6.2v28.9c0,3.4,2.8,6.2,6.2,6.2h4.1v9.5l19.1-9.5h26.4c3.4,0,6.2-2.8,6.2-6.2v-28.9
	C924,941.3,921.2,938.5,917.8,938.5z M919.9,973.6c0,1.1-0.9,2.1-2.1,2.1h-27.3l-14,7v-7h-8.3c-1.1,0-2.1-0.9-2.1-2.1v-28.9
	c0-1.1,0.9-2.1,2.1-2.1h49.5c1.1,0,2.1,0.9,2.1,2.1L919.9,973.6L919.9,973.6z"/>
<path d="M802.2,959.2h20.1l13,7.8v-7.8h16.5c3.4,0,6.2-2.8,6.2-6.2v-24.8c0-3.4-2.8-6.2-6.2-6.2h-49.5c-3.4,0-6.2,2.8-6.2,6.2V953
	C796,956.4,798.8,959.2,802.2,959.2z M800.1,928.2c0-1.1,0.9-2.1,2.1-2.1h49.5c1.1,0,2.1,0.9,2.1,2.1V953c0,1.1-0.9,2.1-2.1,2.1
	h-20.6v4.6l-7.7-4.6h-21.2c-1.1,0-2.1-0.9-2.1-2.1V928.2z"/>
<path d="M911.6,967.4h-4.1v-16.5h-4.1v16.5h-4.1v-20.6h-4.1v20.6H891V955h-4.1v12.4h-4.1v-8.3h-4.1v8.3h-4.1v4.1h41.3v-24.8h-4.1
	v20.7H911.6z"/>
<path d="M810.5,946.8c3.4,0,6.2-2.8,6.2-6.2s-2.8-6.2-6.2-6.2s-6.2,2.8-6.2,6.2S807,946.8,810.5,946.8z M810.5,938.5
	c1.1,0,2.1,0.9,2.1,2.1c0,1.1-0.9,2.1-2.1,2.1c-1.1,0-2.1-0.9-2.1-2.1S809.3,938.5,810.5,938.5z"/>
<path d="M827,946.8c3.4,0,6.2-2.8,6.2-6.2s-2.8-6.2-6.2-6.2s-6.2,2.8-6.2,6.2S823.6,946.8,827,946.8z M827,938.5
	c1.1,0,2.1,0.9,2.1,2.1c0,1.1-0.9,2.1-2.1,2.1c-1.1,0-2.1-0.9-2.1-2.1S825.8,938.5,827,938.5z"/>
<path d="M843.5,946.8c3.4,0,6.2-2.8,6.2-6.2s-2.8-6.2-6.2-6.2s-6.2,2.8-6.2,6.2S840.1,946.8,843.5,946.8z M843.5,938.5
	c1.1,0,2.1,0.9,2.1,2.1c0,1.1-0.9,2.1-2.1,2.1c-1.1,0-2.1-0.9-2.1-2.1S842.3,938.5,843.5,938.5z"/>
<path d="M901.3,1004.6c-4,0-8,1.1-11.5,3.1l-12.4-1.5l4.2,9.9c-1.9,3.4-3,7.3-3,11.2c0,12.5,10.2,22.7,22.7,22.7
	s22.7-10.2,22.7-22.7C924,1014.8,913.8,1004.6,901.3,1004.6z M889.6,1041.7h23.3c-3.2,2.6-7.2,4.1-11.7,4.1
	S892.8,1044.3,889.6,1041.7L889.6,1041.7z M898.5,1028.3c-0.9-0.8-1.4-1.9-1.4-3.1v-3.8c0-2.4,1.8-4.4,3.9-4.5
	c1.1-0.1,2.2,0.3,3.1,1.1c0.8,0.8,1.3,1.8,1.3,3v4.1c0,1.2-0.5,2.3-1.4,3.1l-0.7,0.6v3.8l5.7,2.9c0.9,0.5,1.6,1.2,2.1,2.1h-19.7
	c0.4-0.9,1.2-1.6,2.1-2.1l5.7-2.9v-3.8L898.5,1028.3z M915.7,1039c-0.2-3.1-2-5.8-4.8-7.2l-3.1-1.6c1.1-1.4,1.8-3.2,1.8-5.1v-4.1
	c0-2.3-0.9-4.4-2.6-6c-1.7-1.6-3.8-2.3-6.1-2.3c-4.4,0.2-7.8,4-7.8,8.6v3.8c0,1.8,0.6,3.6,1.8,5.1l-3.1,1.6
	c-2.8,1.4-4.6,4.1-4.8,7.2c-2.6-3.2-4.2-7.3-4.2-11.7c0-3.5,1-6.9,2.9-9.9l0.6-0.9l-2.2-5.3l6.8,0.8l0.6-0.4c3-1.9,6.4-2.9,9.9-2.9
	c10.2,0,18.6,8.3,18.6,18.6C919.9,1031.7,918.3,1035.8,915.7,1039L915.7,1039z"/>
<g>
	<g>
		<line class="st52" x1="251" y1="271.5" x2="254" y2="271.5"/>
		<line class="st53" x1="260" y1="271.5" x2="401" y2="271.5"/>
		<line class="st52" x1="404" y1="271.5" x2="407" y2="271.5"/>
	</g>
</g>
<g>
	<g>
		<line class="st52" x1="609" y1="271.5" x2="612" y2="271.5"/>
		<line class="st53" x1="618" y1="271.5" x2="759" y2="271.5"/>
		<line class="st52" x1="762" y1="271.5" x2="765" y2="271.5"/>
	</g>
</g>
<g>
	<g>
		<line class="st52" x1="238" y1="997.5" x2="241" y2="997.5"/>
		<line class="st53" x1="247" y1="997.5" x2="388" y2="997.5"/>
		<line class="st52" x1="391" y1="997.5" x2="394" y2="997.5"/>
	</g>
</g>
<g>
	<g>
		<line class="st52" x1="596" y1="997.5" x2="599" y2="997.5"/>
		<line class="st53" x1="605" y1="997.5" x2="746" y2="997.5"/>
		<line class="st52" x1="749" y1="997.5" x2="752" y2="997.5"/>
	</g>
</g>
<g>
	<g>
		<defs>
			<polygon id="SVGID_1_" points="986.2,482.7 960.3,518.2 1000,527.7 1025.9,492.2 			"/>
		</defs>
		<clipPath id="SVGID_2_">
			<use xlink:href="#SVGID_1_"  style="overflow:visible;"/>
		</clipPath>
		<g class="st54">
			<path class="st55" d="M961.4,516.8L961.4,516.8l38.3-29.9c0.9-0.7,2.2-0.5,2.2,0.3l0.1,8.6c0.1,0.1,10.5,5.6,10.5,5.7
				c0.7,0.4,0.3,1.4-0.7,1.9l-9.6,3.8l0.1,9.5c0,0.7-0.9,1.4-1.8,1.4c-0.3,0-38.6,0.5-38.7,0.5C960.7,518.5,960.5,517.5,961.4,516.8
				z M999.1,489.9l-26.9,21l26.9-14.7V489.9z M1000.6,501.4L1000.6,501.4C1000.7,501.4,1000.7,501.4,1000.6,501.4
				c0.3-0.1,0.4-0.1,0.5-0.1h5.6l-6.5-3.5L976.1,511C1001.9,500.9,1000.4,501.5,1000.6,501.4L1000.6,501.4z M1006,503.5h-4v1.5
				L1006,503.5z M999.4,515.9c0-0.1-0.1-11.6-0.1-11.9l-31.5,12.3L999.4,515.9z"/>
			<path class="st55" d="M1013,497.3c-0.2-0.5,0.3-1.2,1.1-1.5l9.6-3.8c0.8-0.3,1.5-0.1,1.6,0.4c0.2,0.5-0.3,1.2-1.1,1.5l-9.6,3.8
				C1013.9,498,1013.1,497.9,1013,497.3z"/>
			<path class="st55" d="M1006,495.7c-0.2-0.5,0.3-1.2,1.1-1.5l9.6-3.8c0.8-0.3,1.5-0.1,1.6,0.4c0.2,0.5-0.3,1.2-1.1,1.5l-9.6,3.8
				C1006.9,496.4,1006.2,496.2,1006,495.7z"/>
		</g>
	</g>
</g>
<g>
	<g>
		<defs>
			<polygon id="SVGID_3_" points="445.2,1422.9 418.9,1454.3 455.2,1465.6 481.5,1434.1 			"/>
		</defs>
		<clipPath id="SVGID_4_">
			<use xlink:href="#SVGID_3_"  style="overflow:visible;"/>
		</clipPath>
		<g class="st56">
			<path class="st55" d="M466.1,1440.4c-2.8-1.7-7-4.4-7.1-4.4l0.2-4.6c-0.8-1.2-1-2.7-0.7-4.1c-0.4,0-0.8,0.1-1.1,0.3l-10.4,7.1
				c-0.4,2-2,3.8-4.7,3.8c-0.3,0-0.5,0-0.8-0.1l-15.1,10.3c0.7,1.1,1.2,2.4,1.6,3.6l28-8.9c0,0.2-0.6,11-0.6,11.1l-6.8-0.4
				c0,0.7-0.1,1.4-0.3,2c4.5,0.2,7.8,0.4,7.9,0.4c0.8,0,1.7-0.6,1.8-1.2l0.5-8.8l8.6-2.8c0-0.1,0-0.3,0-0.4
				C466.5,1442.5,466.1,1441.5,466.1,1440.4z M456.7,1430.3l-0.3,5.9l-26,12L456.7,1430.3z M458.6,1444.6l0.1-1.4l3.7,0.2
				L458.6,1444.6z M458,1441.1c-0.1,0-0.3,0-0.4,0c0,0,0,0-0.1,0l0,0l0,0c-0.2,0,1.2-0.4-23.4,7.4l23.2-10.8l5.9,3.7L458,1441.1z"/>
			<path class="st55" d="M439.1,1455.7c-0.2-0.7-0.2-1.3-0.1-2l-10.8-0.6c0.2,0.7,0.2,1.4,0.1,2
				C431.6,1455.3,435.4,1455.5,439.1,1455.7z"/>
		</g>
	</g>
</g>
<g>
	<g>
		<path class="st52" d="M963,271c0.9-0.3,1.8-0.6,2.8-1"/>
		<path class="st57" d="M971.7,268.5c6.4-1.3,13.7-1.4,19.3,2.5c15,10.1,7.8,38.2,9,99c1.1,56.7,8.1,66.6,14,72
			c18.1,16.6,54.8,16.6,67,0c17.8-24.2-19.8-79.7-36-77c-10.5,1.8-17.6,28.8-15,49c1.4,10.7,5.5,20,6,21c7.9,17.4,17.2,19.4,17,29
			c-0.2,9.7-10,18.4-14.9,22.3"/>
		<path class="st52" d="M1035.7,488.2c-0.3,0.2-0.5,0.4-0.5,0.4c0.1,0.1,1-0.8,1.8-1.6"/>
	</g>
</g>
<g>
	<g>
		<path class="st52" d="M950,522c-0.9,0.5-1.8,0.9-2.7,1.3"/>
		<path class="st58" d="M941.6,525.2c-3,0.7-5.5,0.9-7.6,0.8c-9.5-0.3-13.4-5.4-24-6c-7-0.4-12.2,1.5-14,2c-13,3.7-151.5,23.3-349,1
			c0,0-192.2-21.7-237,11c-0.5,0.3-8.9,7.8-15,16l0,0c-1.7,2.5-4.7,7.4-7,14c-3.3,9.4-3,29.7-3,55"/>
		<path class="st52" d="M285,622c0,1.3,0,2.3,0,3"/>
	</g>
</g>
<g>
	<g>
		<path class="st52" d="M592,88c-0.8-0.5-1.6-1.1-2.5-1.7"/>
		<path class="st59" d="M584.4,83.2c-2.8-1.7-5.9-3.4-9.4-5.2c-3.7-1.9-12.7-6.4-22-9c-20.6-5.8-39.4-1.2-52,2
			c-6.9,1.8-13.9,4.5-28,10c-24.6,9.6-29.8,11.7-41,13c-6.5,0.7-13.4,0.8-23,1c-10,0.2-13.2-0.2-21,0c-10.7,0.2-17.4,1-27,2
			c-20.5,2.1-35.7,2.9-56,4c-11.6,0.7-21.2,1.1-33.6,0.8c-5.2-0.1-8.2-0.3-16.4-0.8c0,0-17.8-1-39-2c-35.8-1.7-53.7-2.5-64,2
			c-17.4,7.6-26.6,21.3-29,25c-13.2,20.2-12.1,42.6-9.4,56.3"/>
		<path class="st52" d="M114.2,185.3c0.2,1,0.5,2,0.7,2.9"/>
		<g>
			<path d="M114.7,187.4c1.4-2.6,5.1-4.7,7.8-5.6c-2.9,3.8-5,8.4-5.5,13.2c-3-3.8-7.4-6.2-11.9-8C108.1,186.3,111.9,186,114.7,187.4
				z"/>
		</g>
	</g>
</g>
<path class="st60" d="M285,765c-1.3,36.4-8.2,65.7-19,70c-1,0.4-7.5,2.7-16,5c0,0-6.4,1.8-13,3c-45.2,8.2-61.4,0.9-75,9
	c-9.4,5.6-19.7,19.7-19,60"/>
<g>
	<g>
		<path class="st61" d="M465.1,1339.4c57.2-33,86-35.3,101.9-30.4c0.6,0.2,29.8,9.5,54,12c17.9,1.8,15.2,1.3,42.5,1.4
			c11.2,0,24.1-0.3,40.5-1.4c9.2-0.6,13.6-2.8,14-5c2-11-99.5-37.7-98-44c1-4.1,44.7,7.7,52-6c5.6-10.6-16.5-25.6-11-39
			c5.5-13.5,37.1-20.3,53-8c18.5,14.3-0.5,41.8,15,63c16.4,22.4,48.1,6,161,10c27.3,1,55.1-5,82,0c5.8,1.1,23.1,4.7,41-3
			c3-1.1,7.6-3.1,12-7c10.3-9.2,12.4-22.6,14-34c1.5-10.9,1-19.2,1-20c-2.2-36.9-0.4-74-1-111c-1-64.7,3.6-86.3-4.4-100.7
			c-2.3-4.1-5.6-7.3-5.6-7.3c-16.1-8-30-14.8-39-15"/>
		<g>
			<path d="M465.9,1339c0.8-2.9-0.4-6.9-1.8-9.5c-0.6,4.8-2.1,9.5-5,13.4c4.8-0.7,9.7,0.6,14.2,2.3
				C471.4,1342.8,468.9,1339.9,465.9,1339z"/>
		</g>
	</g>
</g>
<g>
	<path class="st62" d="M307.4,1445.4v29.2h23.8v-29.2H320H307.4z"/>
	<path class="st62" d="M320,1416.3h-12.7v29.2H320V1416.3z"/>
	<path class="st62" d="M307.4,1387.1v29.2H320h11.1v-29.2H320H307.4z"/>
</g>
<path class="st63" d="M320,1357.9h-12.7v29.2H320V1357.9z"/>
<path class="st63" d="M320,1416.3v29.2h11.1h11.1v-29.2h-11.1H320z"/>
<path class="st62" d="M320,1357.9v29.2h11.1h11.1v-29.2h-19H320z"/>
<path class="st63" d="M323.2,1328.8v29.2h19h22.2h22.2h12.7v-29.2h-57H323.2z"/>
<path class="st63" d="M331.1,1445.4v29.2h22.2v-29.2h-11.1H331.1z"/>
<path class="st63" d="M331.1,1387.1v29.2h11.1h11.1v-29.2h-11.1H331.1z"/>
<path class="st62" d="M342.2,1416.3v29.2h11.1h11.1v-29.2h-11.1H342.2z"/>
<path class="st63" d="M342.2,1357.9v29.2h11.1h11.1v-29.2H342.2z"/>
<path class="st62" d="M399.2,1305.4h-57v23.3h57V1305.4z"/>
<path class="st62" d="M353.3,1445.4v29.2h22.2v-29.2h-11.1H353.3z"/>
<path class="st62" d="M353.3,1387.1v29.2h11.1h11.1v-29.2h-11.1H353.3z"/>
<path class="st63" d="M364.4,1416.3v29.2h11.1h11.1v-29.2h-11.1H364.4z"/>
<path class="st62" d="M364.4,1357.9v29.2h11.1h11.1v-29.2H364.4z"/>
<path class="st63" d="M375.4,1445.4v29.2h23.8v-29.2h-12.7H375.4z"/>
<path class="st63" d="M375.4,1387.1v29.2h11.1h12.7v-29.2h-12.7H375.4z"/>
<path class="st62" d="M399.2,1416.3h-12.7v29.2h12.7V1416.3z"/>
<path class="st63" d="M399.2,1357.9h-12.7v29.2h12.7V1357.9z"/>
<path d="M307.4,1355h14.3v-26.3c0-1.6,0.7-2.9,1.6-2.9h17.4v-20.4c0-1.6,0.7-2.9,1.6-2.9h57c0.9,0,1.6,1.3,1.6,2.9v169.2
	c0,1.6-0.7,2.9-1.6,2.9h-91.8c-0.9,0-1.6-1.3-1.6-2.9v-116.7C305.8,1356.3,306.5,1355,307.4,1355z M321.6,1360.8v23.3h19v-23.3
	H321.6z M332.7,1413.3h19V1390h-19V1413.3z M321.6,1419.2v23.3h19v-23.3H321.6z M373.9,1413.3V1390h-19v23.3H373.9z M365.9,1419.2
	v23.3h19v-23.3H365.9z M384.9,1384.2v-23.3h-19v23.3H384.9z M362.8,1384.2v-23.3h-19v23.3H362.8z M362.8,1419.2h-19v23.3h19V1419.2z
	 M397.6,1308.3h-53.8v17.5h53.8V1308.3z M397.6,1331.7h-72.8v23.3h72.8L397.6,1331.7L397.6,1331.7z M397.6,1360.8h-9.5v23.3h9.5
	V1360.8z M397.6,1390H377v23.3h20.6V1390z M397.6,1419.2h-9.5v23.3h9.5V1419.2z M377,1471.7h20.6v-23.3H377V1471.7z M354.9,1471.7
	h19v-23.3h-19V1471.7z M332.7,1471.7h19v-23.3h-19V1471.7z M308.9,1471.7h20.6v-23.3h-20.6V1471.7z M308.9,1442.5h9.5v-23.3h-9.5
	V1442.5z M308.9,1413.3h20.6V1390h-20.6V1413.3z M308.9,1384.2h9.5v-23.3h-9.5V1384.2z"/>
<path class="st64" d="M742,1394"/>
<path class="st60" d="M727,1303"/>
<g>
	<g>
		<rect x="425.1" y="1343.8" transform="matrix(0.9169 -0.399 0.399 0.9169 -500.9898 285.6034)" width="20.9" height="4.9"/>
	</g>
	<g>
		<rect x="413.8" y="1333.9" transform="matrix(0.3662 -0.9305 0.9305 0.3662 -975.0231 1241.1714)" width="19.7" height="4.9"/>
	</g>
	<g>
		<rect x="432.3" y="1352" transform="matrix(0.3662 -0.9305 0.9305 0.3662 -991.7659 1267.6603)" width="4.9" height="19.7"/>
	</g>
</g>
<g>
	<polygon class="st65" points="418.1,1453.5 424.6,1453.5 421.4,1444.8 	"/>
</g>
<g>
	<polygon class="st65" points="463.6,1451.4 471.9,1447.5 468.2,1457.8 464.1,1456.3 	"/>
</g>
<g>
	<polygon class="st65" points="444.9,1453.2 440.2,1457.7 448.5,1461.8 	"/>
</g>
<g>
	<path d="M439.4,1458.5c-0.2-0.2-0.3-0.4-0.3-0.6c-0.1-0.4,0.1-0.7,0.3-1l4.8-4.5c0.3-0.2,0.6-0.3,1-0.3c0.3,0.1,0.6,0.3,0.8,0.6
		l3.6,8.6c0.2,0.4,0.1,0.9-0.3,1.2c-0.3,0.3-0.8,0.4-1.2,0.2l-8.4-4.1C439.6,1458.6,439.5,1458.5,439.4,1458.5z M444.5,1455.1
		l-2.5,2.3l4.3,2.1L444.5,1455.1z"/>
</g>
<g>
	<path d="M424.6,1454.6h-6.5c-0.4,0-0.7-0.2-0.9-0.5c-0.2-0.3-0.2-0.7-0.1-1l3.3-8.7c0.2-0.4,0.6-0.7,1-0.7c0.5,0,0.9,0.3,1,0.7
		l3.3,8.7c0.1,0.3,0.1,0.7-0.1,1C425.3,1454.5,425,1454.6,424.6,1454.6z M419.7,1452.5h3.4l-1.7-4.5L419.7,1452.5z"/>
</g>
<g>
	<path d="M467.8,1458.8l-4.1-1.5c-0.4-0.1-0.7-0.5-0.7-0.9l-0.5-4.8c-0.1-0.5,0.2-0.9,0.6-1.1l8.4-3.9c0.4-0.2,0.9-0.1,1.2,0.2
		c0.3,0.3,0.4,0.8,0.3,1.2l-3.8,10.2C469,1458.7,468.4,1459,467.8,1458.8z M465.1,1455.5l2.4,0.9l2.5-6.7l-5.3,2.5L465.1,1455.5z"/>
</g>
<path class="st66" d="M696.9,176.8v10.8h-24.4v-10.8H696.9z"/>
<path class="st31" d="M680.8,153.6l4.6-6.7c0.5-0.8,0.8-1.8,0.8-2.8v-17.9c0-1.4-0.6-2.8-1.6-3.8l-9.5-9.5c-0.7-0.7-1.1-1.7-1.1-2.7
	c0-1.1,0.4-2,1.1-2.7c0.7-0.7,1.7-1.1,2.7-1.1s2,0.4,2.7,1.1l11.3,11.3c0.8,0.8,1.3,1.7,1.5,2.8l3.6,18.2c0.1,0.4,0.1,0.7,0.1,1.1
	v14.7c0,0.7-0.1,1.3-0.3,1.9l-3.4,9c-0.2,0.6-0.3,1.3-0.3,1.9v8.5h-15v-10.6c0-1.1-0.3-2.1-0.9-3l-13.2-16.6
	c-0.5-0.7-0.8-1.5-0.8-2.4v-0.2c0-2.1,1.7-3.8,3.8-3.8c1,0,2,0.4,2.7,1.1l8.1,10.3C678.5,152.7,679.6,153.4,680.8,153.6z"/>
<path class="st31" d="M686.1,126.2v1.8l-8.1-4l-6.5,1.3c-0.2,0-0.4,0.1-0.6,0.1h-0.8c-1.7,0-3-1.3-3-3c0-1.4,1-2.6,2.4-2.9l9.8-2.2
	l5.2,5.2C685.5,123.4,686.1,124.8,686.1,126.2z"/>
<path d="M694.5,166.9l3.4-9c0.3-0.8,0.4-1.6,0.4-2.4v-14.7c0-0.4,0-0.9-0.1-1.3l-3.6-18.2c-0.3-1.3-0.9-2.5-1.9-3.5l-11.3-11.3
	c-1-1-2.3-1.5-3.7-1.5c-2.9,0-5.2,2.3-5.2,5.2c0,1.4,0.5,2.7,1.5,3.7l2.6,2.6l-7.4,1.7c-2,0.4-3.4,2.2-3.4,4.3c0,2.4,2,4.4,4.4,4.4
	h0.8c0.3,0,0.6,0,0.9-0.1l6-1.2l7,3.5v15.3c0,0.7-0.2,1.5-0.5,2l-4,5.9c-0.6-0.3-1.1-0.7-1.5-1.2l-8.1-10.3l-0.1-0.1
	c-1-1-2.3-1.5-3.7-1.5c-2.9,0-5.2,2.3-5.2,5.2v0.2c0,1.2,0.4,2.3,1.1,3.2l13.1,16.5c0.4,0.7,0.7,1.4,0.7,2.3v9.2h-5.4V189h27.1
	v-13.5h-4.1v-7.1C694.2,167.8,694.3,167.3,694.5,166.9z M671.2,123.9c-0.1,0-0.2,0-0.3,0h-0.8c-0.9,0-1.7-0.7-1.7-1.7
	c0-0.8,0.5-1.4,1.3-1.6l9.1-2l4.7,4.7c0.7,0.7,1.1,1.6,1.2,2.5l-6.5-3.3L671.2,123.9z M695.6,186.3h-21.7v-8.1h21.7V186.3z
	 M679.3,175.5v-9.2c0-1.3-0.4-2.6-1.2-3.8L665,145.8c-0.3-0.4-0.5-1-0.5-1.5v-0.2c0-1.4,1.1-2.5,2.5-2.5c0.6,0,1.2,0.2,1.7,0.7
	l8,10.3c1.3,1.7,3.2,2.6,5.3,2.6h5.5v-2.7h-4.2l3.3-4.8c0.6-1.1,1-2.3,1-3.5v-17.9c0-1.8-0.7-3.5-2-4.8l-9.5-9.5
	c-0.5-0.5-0.7-1.1-0.7-1.8c0-1.4,1.1-2.5,2.5-2.5c0.7,0,1.3,0.3,1.8,0.7l11.3,11.3c0.6,0.6,1,1.3,1.1,2.1l3.6,18.2
	c0.1,0.3,0.1,0.5,0.1,0.8v14.7c0,0.5-0.1,1-0.3,1.4l-3.4,9c-0.3,0.8-0.4,1.6-0.4,2.4v7.1h-12.4V175.5z"/>
<polygon class="st67" points="644,112.9 646.3,97.1 613.9,91.5 636,103.4 "/>
<polygon class="st68" points="642.4,101 644,112.9 613.9,91.5 "/>
<g>
	<polygon class="st69" points="642.4,101 626.5,109.7 613.9,91.5 	"/>
	<polygon class="st69" points="646.3,97.1 656.6,91.5 613.9,91.5 	"/>
</g>
<path d="M613.2,91.8c-0.2-0.5,0.1-1.1,0.7-1.1h42.8c0.2,0,0.5,0.1,0.6,0.3c0.3,0.4,0.2,0.9-0.2,1.1l-10,5.4l0,0l-2.3,15.5
	c-0.1,0.5-0.7,0.8-1.2,0.5l-9.7-6.9l0,0l-6.9,3.8c-0.3,0.2-0.8,0.1-1-0.2l-7.3-10.4c-0.2-0.3-0.2-0.8,0.2-1c0.3-0.2,0.8-0.2,1,0.2
	l6.9,9.9l0,0l13.8-7.6l0,0L615.8,93l0,0l2.1,3c0.2,0.3,0.2,0.8-0.2,1.1c-0.3,0.2-0.8,0.2-1-0.2L613.2,91.8
	C613.2,91.9,613.2,91.9,613.2,91.8z M622.7,92.3l23.6,4l0,0l7.5-4l0,0H622.7L622.7,92.3z M635.2,105.8l7.8,5.5l0,0l-1.2-9.1l0,0
	L635.2,105.8L635.2,105.8z M642.6,100.3c0.3,0.1,0.5,0.3,0.5,0.6l0.9,6.7l0,0l1.5-9.9l0,0l-22.1-3.8l0,0L642.6,100.3z"/>
<g>
	<g>
		<path class="st52" d="M430,1372c0.7,0.4,1.6,0.9,2.6,1.5"/>
		<path class="st70" d="M437.5,1377.2c3.8,3.1,8,7.6,11.5,13.8c2.9,5.2,4.5,10.4,5.3,14.9"/>
		<path class="st52" d="M454.8,1408.9c0.1,1,0.2,2,0.3,3"/>
		<g>
			<path d="M455,1411.1c2.1-2.1,6.2-3.1,9.1-3.2c-3.9,2.9-7.2,6.6-9.1,11.1c-1.8-4.5-5.4-8.1-9.1-11.1
				C449,1408.1,452.7,1408.9,455,1411.1z"/>
		</g>
	</g>
</g>
</svg>
