<?xml version="1.0" encoding="utf-8"?>
<!-- Generator: Adobe Illustrator 23.0.1, SVG Export Plug-In . SVG Version: 6.00 Build 0)  -->
<svg version="1.1" id="Layer_1" xmlns="http://www.w3.org/2000/svg" xmlns:xlink="http://www.w3.org/1999/xlink" x="0px" y="0px"
	 viewBox="0 0 1340 759" style="enable-background:new 0 0 1340 759;" xml:space="preserve">
<style type="text/css">
	.st0{fill:#27A1DA;}
	.st1{fill:#904A9B;}
	.st2{fill:#323030;}
</style>
<path class="st0" d="M373.1,560.3c-7.5-16.8-12.7-35.5-17.4-54.2c-13.6-52.9-21.6-107-21.2-163.1c0.5-49.7,8.5-97.4,23-142.5
	c24.5-76.1,62.1-138,108.7-189.6c0.9-0.6,1.9-1.9,2.8-2.6c1.4,2.6,0.9,5.2,0.9,7.7c0,58.7,0,117.4,0,176.7c0,3.9-0.5,7.1-3.3,9.7
	c-48.9,46.4-80,110.3-94.1,189.6c-6.6,38-8,76.7-5.2,116.1C368.9,524.2,371.2,542.2,373.1,560.3z"/>
<path class="st0" d="M358.5,553.2c-10.8-9-19.8-20-28.2-31.6c-32-42.6-58.3-90.9-75.7-147.7c-14.1-45.1-20.7-91.6-18.3-140.6
	c3.3-54.8,11.8-107.7,30.1-156.7c8.9-23.9,19.8-45.8,32.9-65.1c0.9-1.3,1.9-2.6,3.3-3.9c3.8,14.2,7.5,28.4,11.3,42.6
	c8.5,32.9,16.5,66.4,24.9,99.3c0.9,4.5,0.9,7.7-0.9,12.3c-17.9,43.2-28.2,89.6-32.9,139.3c-2.4,27.7-4.7,54.8-1.9,82.5
	c1.9,18.7,5.6,36.8,9.9,54.2c9.4,40.6,24,76.7,43.3,109.6c0.5,1.3,1.4,2.6,1.9,3.9C358.5,551.9,358.5,552.6,358.5,553.2z"/>
<path class="st0" d="M685.9,680.2c-14.1,2.6-27.8,5.8-41.9,8.4c-20.7,3.9-41.4,9.7-62.1,16.8c-24,7.7-47.5,17.4-70.1,29.7
	c-8.5,4.5-16.5,9.7-24.5,15.5c-3.8,2.6-6.1,1.9-8.5-2.6c-8-12.9-17.4-24.5-26.8-34.8c-18.3-20.6-47-16.8-64,1.9
	c-9.4,10.3-17.9,21.9-25.4,34.8c-1.9,3.2-3.3,3.9-6.6,1.9c-29.6-20.6-61.2-32.9-94.1-41.3c-36.2-9-73.4-11.6-110.1-9
	c-27.3,1.9-54.6,6.4-81.4,14.2c-21.6,5.8-42.8,13.5-64.4,22.6c3.3-17.4,6.6-34.8,9.9-51.6c2.4-12.9,4.7-25.1,7.5-38
	c0.5-2.6,0.5-6.4,3.8-7.1c11.8-1.9,23.5-4.5,36.2-6.4c-2.8,11.6-5.6,21.3-8,31c-1.9,7.7-1.9,7.7,4.2,6.4
	c34.8-9,70.1-12.3,105.4-11.6c33.9,0.6,67.3,5.2,100.2,14.2c29.2,7.7,57.4,18.7,85.1,34.2c3.8,1.9,6.1,1.3,9.4-2.6
	c11.8-17.4,24.9-33.5,41.9-40c24.5-9.7,47.5-6.4,66.8,19.3c5.2,7.1,10.8,14.8,15.1,22.6c1.4,2.6,2.8,3.2,5.2,1.9
	c22.1-10.3,44.7-18.1,67.3-23.9c34.3-8.4,68.7-13.5,103.5-11c8.5,0.6,16.5,0,24.9,1.9c0.9,0,1.9,0.6,2.4,0.6
	C685.9,679,685.9,679.6,685.9,680.2z"/>
<path class="st0" d="M366.1,591.9c-25.9-1.3-51.3-4.5-76.7-10.3c-21.2-5.2-41.9-11.6-62.6-20c-44.7-18.7-85.1-47.1-116.2-96.1
	c-20.2-31.6-37.2-65.8-45.2-107c-0.5-3.9-2.8-8.4-0.9-11c1.9-2.6,5.2,0.6,7.5,1.3c22.6,7.7,45.2,16.1,67.7,23.2
	c2.8,0.6,4.2,3.2,5.2,5.8c13.2,33.5,30.1,63.2,49.9,90.3c27.3,38,58.8,67.7,94.1,89.6C313.4,573.8,339.3,584.8,366.1,591.9z"/>
<path class="st0" d="M351,572.6c-10.8-3.2-20.2-9-29.6-14.8c-51.3-32.9-94.5-80-131.2-138.6c-24.5-38.7-37.2-83.8-43.3-133.5
	c-3.3-25.8-3.8-50.9-2.8-76.7c0-1.9,0-3.2,0.5-5.8c4.2,1.9,6.6,5.8,9.4,9c18.8,20,37.6,40,56.4,60c2.8,2.6,3.8,5.8,3.8,10.3
	c3.8,47.7,12.7,92.9,29.2,135.4c8.9,22.6,20.7,42.6,32.9,62.5c19.8,32.2,40.5,62.5,66.8,85.1C345.4,567.4,348.2,570,351,572.6z"/>
<path class="st0" d="M931.5,219.8c131.2,0,262.5,0,393.7,0c9.4,0,8-1.3,8,11c0,152.2,0,305,0,457.2c0,8.4-1.9,9.7-7.1,9.7
	c-186.8,0-373,0-559.8,0c-1.4,0-2.8,0-4.7,0c-1.4,0-1.9-1.3-1.9-3.2s0-3.9,1.9-3.9c1.4,0,2.8,0,4.7,0c184.9,0,369.7,0,554.6,0
	c5.7,0,6.6-1.9,6.6-9.7c0-149,0-297.9,0-446.2c0-7.1-1.4-8.4-6.1-8.4c-261.5,0-523.1,0-784.6,0c-0.9,0-2.4,0-3.3,0
	c-2.4,0-3.8-0.6-3.8-3.9c0-3.9,2.4-2.6,3.8-2.6c2.8,0,6.1,0,8.9,0C672.3,219.8,802.1,219.8,931.5,219.8z"/>
<path class="st1" d="M524.1,417.8c1.4,3.9,3.3,3.2,4.7,3.9c17.4,5.2,26.8,21.3,30.6,44.5c1.9,11.6,4.2,23.2,6.6,34.8
	c0.9,3.9,1.9,7.1,3.8,10.3c3.8,8.4,9.9,7.7,13.2-0.6c2.4-5.8,3.8-12.3,3.3-19.3c0-4.5,1.4-5.8,4.2-5.8c3.8,0,2.8,3.2,2.8,6.4
	c-0.5,7.7-1.4,15.5-3.3,22.6c-4.2,16.1-14.1,25.1-25.4,23.9c-11.8-1.3-21.2-12.3-23-29.7c-2.4-16.8-3.8-33.5-5.6-50.3
	c-2.8-25.8-15.5-34.2-31-36.1c-16.9-1.9-16.9-1.3-16.9,21.9c0,21.9,0,43.8,0,65.8c0,11.6,2.4,14.2,10.3,14.2c4.2,0,8.5,0,12.2,0
	c3.3,0,3.8,1.9,3.8,5.2c0,3.2,0,5.8-3.8,5.8c-23.5,0-46.6,0-70.1,0c-3.3,0-3.3-1.9-3.8-5.8c0-3.9,0.5-5.8,3.8-5.8
	c4.7,0,9.4,0,14.1,0c6.6-0.6,9.4-4.5,9.4-12.9c0-60,0-119.9,0-179.9c0-8.4-3.3-12.9-9.9-13.5c-4.7-0.6-8.9,0-13.6,0
	c-3.3,0-3.8-1.9-3.8-5.8c0-3.2,0-5.8,3.3-5.8c29.2,0,58.3,0,87.5,0.6c8.9,0,17.4,2.6,25.4,8.4c15.1,10.3,24,31.6,22.1,53.5
	c-1.9,21.3-13.2,38.7-29.6,44.5C539.2,415.2,531.6,417.8,524.1,417.8z M487.4,367.5c0,12.9,0,25.1,0,38c0,3.2,0,5.8,3.3,5.8
	c11.8,0,24,0.6,35.7-3.2c13.2-4.5,20.7-14.8,23-32.9c0.9-7.1,0.5-14.2,0-21.3c-1.4-20-8.9-32.2-22.1-34.8
	c-10.8-1.9-22.1-3.2-32.9-0.6c-4.7,1.3-7.5,4.5-7.1,11.6C487.9,342.3,487.4,355.2,487.4,367.5z"/>
<path class="st1" d="M1050.9,415.2c9.4,3.2,17.4,6.4,24.9,11.6c13.6,9.7,22.1,24.5,22.6,46.4c0,21.9-7.5,37.4-21.6,48.4
	c-12.2,9-24.9,14.2-38.6,14.2c-27.8,0-55.5,0-83.3,0c-2.8,0-5.6,0.6-5.2-5.8c0-6.4,2.8-5.2,5.6-5.2c3.8,0,7.1,0,10.8,0
	c7.1,0,9.9-3.9,9.9-14.2c0-37.4,0-75.4,0-112.8c0-20.6,0-41.9,0-62.5c0-12.9-3.3-17.4-12.7-17.4c-2.8,0-6.1,0-8.9,0
	c-3.3,0.6-4.7-0.6-4.7-5.8c0-4.5,1.4-5.2,4.2-5.2c28.7,0,57.4-0.6,85.6,0.6c14.6,0.6,28.2,4.5,39,19.3c15.5,21.9,13.6,54.8-3.8,73.5
	C1068.3,406.2,1060.8,410.7,1050.9,415.2z M999.2,470c0,13.5,0,27.1,0,40c0,10.3,2.8,14.2,10.3,14.2c9.4,0,18.3,0.6,27.8,0
	c13.6-1.3,25.4-6.4,31-25.8c1.9-5.8,2.4-12.3,2.8-18.7c1.4-27.1-7.1-51.6-29.6-56.1c-13.2-2.6-26.3-0.6-39.5-1.3
	c-3.3,0-2.8,3.2-2.8,5.8C999.2,442.3,999.2,455.8,999.2,470z M999.2,367.5c0,12.9,0,25.1,0,38c0,5.2,0.9,5.8,4.7,5.8
	c9.9,0,19.8,0,30.1,0c14.1-0.6,24-11,27.8-29.7c1.9-9.7,1.9-20,0.9-29.7c-0.9-16.1-8-27.7-19.3-31c-12.2-3.9-24-3.9-36.2-1.9
	c-5.2,0.6-7.5,4.5-7.5,11.6C999.2,343,999.2,355.2,999.2,367.5z"/>
<path class="st1" d="M882.1,415.2c9.9,3.2,18.3,7.1,25.9,12.9c13.2,9.7,21.2,24.5,21.2,45.1c0.5,21.3-7.1,37.4-20.7,47.7
	c-11.8,9-24,14.2-37.6,14.8c-28.7,0-57.4,0-86.6,0c-2.8,0-4.7-0.6-4.7-5.2c0-5.2,1.4-5.8,4.7-5.8c4.2,0,8.5,0.6,12.2,0
	c6.6-0.6,8.9-4.5,8.9-13.5c0-59.3,0-118.6,0-178c0-11-3.3-15.5-11.3-15.5c-3.3,0-6.6,0-9.4,0c-2.8,0-5.2,0-5.2-5.8
	c0-5.8,2.4-5.2,5.2-5.2c28.2,0,56.4,0,84.7,0c10.8,0,21.2,2.6,31,10.3c25.9,20.6,26.3,66.4,0,87.1
	C895.2,408.1,889.6,411.3,882.1,415.2z M829.9,469.4c0,13.5,0,27.1,0,40c0,10.3,2.8,14.2,10.3,14.8c8.5,0,16.9,0,25.4,0
	c17.4-0.6,33.4-8.4,35.7-41.9c1.9-29-6.1-54.8-30.1-59.3c-13.2-2.6-26.3-0.6-39.5-0.6c-2.8,0-2.4,3.2-2.4,5.8
	C829.9,441.7,829.9,455.8,829.9,469.4z M829.9,368.1c0,12.9,0,25.1,0,38c0,4.5,0.9,5.8,4.2,5.8c10.3,0,20.7,0.6,31,0
	c11.8-0.6,21.2-7.7,25.9-23.2c2.8-9,3.8-18.7,3.3-29c-0.9-24.5-8-36.8-24.5-40c-10.3-1.9-20.7-2.6-31-0.6c-6.6,1.3-8.5,3.9-8.5,12.9
	C829.9,343.6,829.9,355.9,829.9,368.1z"/>
<path class="st1" d="M677,459.7c-9.4,0-19.3,0-28.7,0c-2.8,0-4.7,0.6-5.6,4.5c-2.4,10.3-5.2,20-7.5,29.7c-4.2,18.1,1.4,29.7,15.5,31
	c1.4,0,2.8,0,4.7,0c3.3-0.6,4.2,1.9,4.2,5.8s-0.9,5.2-3.8,5.2c-17.4,0-34.8,0-52.7,0c-2.8,0-4.2-0.6-4.2-5.2c0-3.9,0.5-5.8,3.8-6.4
	c9.4-0.6,16-8.4,19.3-20c13.6-46.4,27.3-92.2,40.9-138.6c5.6-19.3,11.3-39.3,16.9-58.7c0.9-3.2,1.9-5.2,4.7-5.2
	c2.8,0,4.2,1.9,5.2,5.2c10.3,36.8,21.2,73.5,31.5,110.3c8.9,31.6,17.9,63.2,26.8,94.8c2.4,9,8,12.9,14.6,12.3c2.4,0,5.2-0.6,5.2,5.2
	c0,5.8-1.9,5.8-5.2,5.8c-18.8,0-37.2,0-56,0c-2.8,0-5.2,0.6-5.2-5.2c0-5.8,1.9-6.4,5.2-5.8c4.2,0.6,8.5,0,12.2-1.9
	c4.7-1.9,6.6-6.4,4.7-12.3c-4.2-16.1-8.9-31.6-13.2-47.7c-0.9-3.2-2.8-3.2-5.2-3.2C696.3,459.7,686.4,459.7,677,459.7z M707.1,448.7
	c-9.9-34.2-19.3-67.7-28.7-101.2c-1.9,0.6-1.9,2.6-2.4,3.9c-4.2,14.8-8.9,30.3-13.2,45.1c-4.7,15.5-8.9,31-13.6,46.4
	c-0.9,2.6-2.8,6.4,1.9,6.4C669.5,448.7,687.8,448.7,707.1,448.7z"/>
<path class="st1" d="M1240,420.4c0-29,0-58,0-86.4c0-13.5-1.4-15.5-11.3-16.8c-3.8-0.6-8-0.6-11.8,0c-3.3,0-3.8-1.9-3.8-5.2
	c0-3.9,0.9-5.8,3.8-5.8c23.1,0,46.1,0,69.1,0c3.3,0,3.8,1.9,3.8,5.8c0,3.9-0.9,5.2-3.8,5.2c-5.2,0-10.3-0.6-15.5,0.6
	c-4.7,1.3-6.6,5.2-6.6,11c0,5.8,0,11.6,0,18.1c0,53.5,0,107,0,160.6c0,14.2,1.9,16.8,12.2,16.8c3.3,0,6.6,0,10.4,0
	c2.8,0,4.7,0.6,4.7,5.2c0,4.5-0.9,5.8-4.2,5.8c-23.1,0-46.1,0-68.7,0c-2.8,0-4.2-0.6-4.2-5.8c0-4.5,0.9-5.8,4.2-5.8
	c4.2,0,8.5,0,13.2,0c7,0,9.4-3.2,9.4-13.5c0-12.3,0-24.5,0-37.4C1240,455.8,1240,438.4,1240,420.4z"/>
<path class="st1" d="M1143.1,420.4c0-29.7,0-58.7,0-88.3c0-10.3-2.4-14.2-10.3-14.8c-4.2-0.6-8.5-0.6-12.2,0c-3.8,0-3.8-2.6-3.8-6.4
	c0-4.5,0.9-5.2,3.8-5.2c23.1,0,46.1,0,68.7,0c3.3,0,4.2,1.3,4.2,5.8s-1.4,5.8-4.2,5.8c-4.7,0-9.9,0-14.6,0.6
	c-5.2,0.6-7.5,5.2-8,11.6c0,1.9,0,3.9,0,6.4c0,56.7,0,113.5,0,170.2c0,16.1,1.9,18.7,13.6,18.7c2.8,0,5.6,0,8.5,0
	c2.8,0,4.7,0,4.7,5.8c0,5.8-1.9,5.2-4.7,5.2c-22.6,0-45.1,0-67.7,0c-2.8,0-4.2-0.6-4.7-5.2c0-5.2,1.4-5.8,4.7-5.8
	c4.2,0,8.5,0,12.2,0c7.1-0.6,9.4-3.2,9.4-13.5C1143.1,481,1142.7,450.7,1143.1,420.4C1143.1,420.4,1142.7,420.4,1143.1,420.4z"/>
<path class="st2" d="M1157.3,597.7c-2.4,8.4-4.7,17.4-7.1,25.8c-0.9,2.6-0.5,6.4-3.8,6.4c-2.8-0.6-2.8-3.9-3.3-6.4
	c-2.4-7.7-4.7-16.1-7.1-26.4c-1.4,8.4-1.9,14.2-1.9,20.6c0,3.2-0.5,6.4-0.5,9.7c0,1.9-0.9,2.6-2.4,2.6c-1.4,0-1.4-1.3-1.4-2.6
	c0.5-13.5,1.4-27.1,1.9-40.6c0-1.9,0.9-2.6,2.3-2.6c2.4,0,3.3,1.9,3.8,4.5c2.8,11,5.7,21.3,9.4,33.5c3.3-11.6,6.1-21.9,8.9-32.9
	c0.9-3.2,1.4-5.8,4.7-5.2c3.3,0.6,1.9,4.5,2.4,6.4c0.5,11,0.9,21.9,0.9,32.9c0,1.9,1.9,5.8-1.4,5.8c-3.8,0.6-2.3-3.9-2.3-5.8
	c-0.5-8.4-0.5-16.8-0.9-25.1C1157.7,597.7,1157.7,597.7,1157.3,597.7z"/>
<path class="st2" d="M1030.7,615.8c0-9,0-18.1,0-27.7c0-1.9-0.5-4.5,1.9-4.5c2.8-0.6,2.3,2.6,2.3,5.2c0,11.6,0,23.9,0,35.5
	c0,1.9,0.9,4.5-1.4,5.2c-1.9,0.6-3.3-0.6-4.2-2.6c-5.6-10.3-10.8-20.6-17.4-32.9c0,10.3,0,18.1,0,25.8c0,1.9,0,3.9,0,6.4
	c0,2.6-0.5,3.9-2.3,3.9s-1.9-1.9-1.9-3.9c0-12.9,0-25.1,0-38c0-1.9-0.5-3.9,1.4-3.9c1.9-0.6,3.8,0.6,4.7,3.2
	c4.2,7.7,8.5,16.1,12.2,23.9c0.9,1.9,2.4,3.9,3.3,5.8C1029.8,616.4,1030.2,616.4,1030.7,615.8z"/>
<path class="st2" d="M575.4,593.8c0,11.6,0,21.3,0,31c0,1.9,0.5,5.2-2.4,5.2c-2.8,0-1.9-3.2-1.9-5.2c0-11.6,0-22.6,0-34.2
	c0-2.6-0.9-5.8,1.4-6.4c2.8-1.3,4.2,1.3,5.6,3.9c5.2,9.7,10.3,19.3,16.5,29.7c0-8.4,0-16.1,0-24.5c0-1.9,0-3.9,0-5.2
	c0-1.9,0.5-3.2,2.4-3.2c1.4,0,1.9,1.3,1.9,3.2c0,12.9,0,26.4,0,39.3c0,1.3,0,3.2-1.4,3.2c-1.9,0.6-3.3-0.6-4.2-3.2
	c-5.2-9.7-9.9-19.3-15.1-29C577.3,597.1,576.8,596.4,575.4,593.8z"/>
<path class="st2" d="M531.6,606.7c0-6.4,0-12.3,0-18.7c0-1.9,0-4.5,2.4-4.5c1.9,0,2.8,1.3,2.4,3.9v0.6c0.5,4.5-1.4,12.3,0.9,14.2
	c4.2,3.2,9.4,0.6,14.1,1.3c1.9,0,2.4-1.3,2.4-3.9c0-3.9,0-7.7,0-11.6c0-1.9,0-4.5,2.4-4.5c1.9,0,2.4,1.3,2.4,3.9
	c0,12.9,0,25.8,0,38.7c0,1.9-0.5,3.2-2.4,3.2c-2.4,0-2.4-1.3-2.4-3.9c0-1.3,0-2.6,0-3.9c-0.5-4.5,1.9-11.6-1.4-12.9
	c-4.7-1.9-9.9-0.6-15.1-0.6c-1.4,0-1.4,1.9-1.4,3.9c0,3.9,0,8.4,0,12.3c0,1.9,0.5,4.5-2.4,5.2c-2.8,0-2.4-2.6-2.4-4.5
	C531.6,619,531.6,612.5,531.6,606.7z"/>
<path class="st2" d="M1246.6,606.7c0-5.8,0-11.6,0-18.1c0-3.9,0.9-5.2,3.8-5.2c3.3,0,6.6,0,9.9,0.6c7.1,1.9,11.8,7.1,12.7,15.5
	c1.4,11-1.9,20.6-8.5,25.8c-0.5,0.6-1.4,0.6-1.9,1.3c-5.2,2.6-10.8,5.2-15.1,1.9c-3.3-2.6-0.9-10.3-1.4-16.1
	C1246.6,610.6,1246.6,608.7,1246.6,606.7z M1251.3,606.1c0,4.5,0,9,0,12.9c0,1.9-0.5,3.9,1.9,4.5c5.2,0.6,10.3-0.6,13.6-7.1
	c3.3-6.4,3.3-12.9,0.9-20c-1.9-5.8-9.4-9.7-14.1-7.1c-4.2,1.9-1.4,7.7-1.9,11C1250.9,602.2,1251.3,604.2,1251.3,606.1z"/>
<path class="st2" d="M738.1,592.5c-2.8-1.9-5.2-3.2-7.5-3.9c-7.5-1.3-13.2,3.9-14.6,14.8c-1.4,9.7,2.8,18.7,9.4,20.6
	c1.9,0.6,3.8,0,5.6-0.6c3.8-0.6,3.8-3.9,3.8-7.7c0-4.5-2.4-3.9-4.2-3.9c-1.9,0-3.8,0-3.3-3.2c0.5-3.2,2.4-1.9,3.3-1.9
	c1.4,0,2.8,0,4.7,0c3.3-0.6,3.8,1.3,3.8,5.2c0,14.8,0,15.5-6.6,17.4c-8.5,2.6-16.5-2.6-19.3-11.6c-2.8-9-1.4-21.9,3.3-27.7
	c5.6-7.1,12.2-7.7,19.3-4.5C738.6,586.1,739.1,588.7,738.1,592.5z"/>
<path class="st2" d="M966.7,606.1c0-14.2,6.1-23.2,15.5-22.6c8.9,0,14.6,9.7,14.6,23.2c-0.5,14.8-6.1,23.9-16,23.2
	C971.9,629.3,966.3,619.6,966.7,606.1z M971,606.1c0,10.3,4.2,18.1,9.9,18.1c6.1,0.6,10.8-7.7,10.8-18.1c0-10.3-4.2-18.1-9.9-18.1
	C976.2,588,971.5,595.8,971,606.1z"/>
<path class="st2" d="M638.9,606.1c0,14.2-6.1,23.2-15.1,23.2c-9.4,0-15.5-9.7-15.1-23.2c0-14.2,6.1-23.2,15.5-23.2
	C633.2,582.9,638.9,592.5,638.9,606.1z M634.7,606.1c0-11-4.2-18.1-10.3-18.1s-10.8,7.7-10.8,18.1c0,10.3,4.7,18.7,10.8,18.1
	C630.4,624.1,634.7,616.4,634.7,606.1z"/>
<path class="st2" d="M850.1,606.7c0,14.2-6.1,23.2-15.5,23.2c-8.9,0-15.1-9.7-15.1-23.2c0-14.2,6.6-23.9,16-23.9
	C844.4,583.5,850.6,592.5,850.1,606.7z M824.7,606.7c0,9.7,4.7,18.1,10.3,18.1c6.1,0,10.3-7.7,10.3-18.7c0-11-4.2-18.1-10.3-18.1
	C829.4,588.7,824.7,596.4,824.7,606.7z"/>
<path class="st2" d="M702.9,606.7c-0.5,14.8-6.1,23.2-15.5,22.6c-8.9-0.6-14.6-9.7-14.1-24.5c0.5-13.5,6.6-22.6,16-21.9
	C697.7,583.5,702.9,592.5,702.9,606.7z M677.5,606.7c0,10.3,4.2,18.1,10.3,18.1s10.8-8.4,10.3-18.7c0-11-4.2-17.4-10.3-17.4
	C681.7,588,677.5,595.8,677.5,606.7z"/>
<path class="st2" d="M907,600.3c0-3.9,0-8.4,0-12.3c0-1.9,0-4.5,1.9-4.5c2.4,0,2.4,1.9,2.4,3.9c0,9,0,17.4,0,26.4
	c-0.5,9-4.7,14.8-10.8,15.5c-8,0.6-12.2-2.6-14.1-12.9c-1.9-9.7-0.5-20-0.9-29.7c0-1.9,0.5-3.2,2.4-3.2c2.4,0,2.4,1.9,2.4,3.9
	c0,7.7,0,15.5,0,23.2c0,3.9,0.5,8.4,2.8,11c5.2,5.8,12.7,2.6,13.6-7.1C907,610.6,907,605.4,907,600.3z"/>
<path class="st2" d="M1219.8,606.1c0-2.6,0-5.8,0-8.4c0-14.2,3.3-17.4,13.6-14.2c1.4,0.6,1.9,1.3,1.9,3.2c0,1.9-0.5,3.2-1.9,2.6
	c-0.9,0-1.9,0-2.8,0c-6.1,0-8,3.2-6.6,11.6c0.5,2.6,1.4,2.6,2.8,2.6c1.9,0,3.3,0,5.2,0c1.4,0,3.3-0.6,3.3,2.6s-1.9,1.9-3.3,2.6
	c-3.3,0.6-8-3.2-8,6.4c0,7.1,1.4,9.7,6.6,8.4c0.9,0,2.4,0,3.3,0c1.9,0,1.9,3.2,1.4,3.9c-3.3,4.5-8,1.3-12.2,1.9
	c-2.4,0.6-3.8,0-3.8-3.9C1219.8,619,1219.8,612.5,1219.8,606.1z"/>
<path class="st2" d="M471.9,606.1c0-2.6,0-4.5,0-7.1c0-17.4,0-17.4,12.7-15.5c1.4,0,3.3,0,2.8,3.2c0,2.6-1.4,2.6-2.8,2.6
	c-0.5,0-0.9,0-1.9,0c-6.6-1.9-6.6,3.9-6.6,10.3c0,3.2,0.9,4.5,3.3,4.5c1.9,0,3.8,0,5.6,0c1.4,0,1.9,1.3,1.9,2.6
	c0,1.3-0.9,1.9-1.9,1.9c-0.9,0-2.4,0-3.3,0c-4.7,0-8,8.4-5.2,13.5c1.4,2.6,4.2,0.6,6.1,1.3c1.4,0.6,4.2-1.9,4.2,2.6
	c0,5.2-2.8,3.2-4.2,3.2c-11.3,0.6-11.3,0.6-11.3-14.8C471.9,611.9,471.9,608.7,471.9,606.1z"/>
<path class="st2" d="M793.2,620.9c1.9,0.6,3.8,1.9,5.6,2.6c3.8,1.9,6.6,0,8-4.5c1.4-4.5-0.9-7.7-3.8-9.7c-2.4-1.3-4.7-2.6-6.6-4.5
	c-4.7-3.9-5.6-11.6-2.4-17.4c2.8-5.2,12.2-7.1,15.1-3.2c0.9,1.3,0.9,2.6,0.5,3.2c0,1.9-1.4,1.3-2.4,1.3c-2.4,0-4.2-1.9-6.6-0.6
	c-1.9,0.6-3.3,1.3-3.8,4.5c-0.5,2.6,0,5.2,1.9,6.4c1.9,1.9,4.2,3.2,6.6,4.5c3.8,2.6,6.6,6.4,6.1,12.3c-0.5,5.2-1.9,9-5.6,11
	c-4.2,1.9-8,1.9-11.8-1.3C792.2,626.1,792.2,623.5,793.2,620.9z"/>
<path class="st2" d="M1053.8,629.9c-1.4,0-3.3-0.6-4.7-1.3c-1.9-1.3-3.8-2.6-2.8-5.8s2.4,0,3.8,0c1.9,0,3.8,2.6,6.1,1.3
	c1.9-1.3,3.8-1.9,4.2-5.2c0.5-3.2,0-6.4-2.4-7.7c-1.9-1.3-4.2-2.6-6.1-3.9c-5.6-3.9-8-11-5.2-17.4c2.4-5.8,10.8-8.4,15.1-5.2
	c1.4,1.3,1.4,2.6,0.9,3.9c-0.5,1.9-1.4,1.3-2.3,1.3c-1.9,0-3.8-1.9-6.1-0.6c-1.9,0.6-3.8,1.3-4.2,5.2c-0.5,3.2,0.5,5.8,2.4,7.1
	c1.9,1.3,3.8,2.6,5.6,3.9c5.6,3.9,8,9,6.6,15.5C1062.7,627.4,1058.9,629.9,1053.8,629.9z"/>
<path class="st2" d="M512.4,629.9c-6.6,0-11.8-4.5-14.1-12.9c-2.8-9.7-1.9-18.7,3.3-27.1c4.2-6.4,10.8-8.4,16.9-5.8
	c1.9,0.6,3.8,1.3,2.8,4.5c-0.9,3.2-2.4,0.6-3.8,0.6c-12.2-2.6-18.8,9-15.1,24.5c1.9,8.4,7.1,11.6,13.2,9.7c1.4-0.6,3.8-4.5,4.7,0.6
	c0.9,4.5-2.8,4.5-4.7,5.2C515.2,629.9,513.8,629.9,512.4,629.9z"/>
<path class="st2" d="M759.8,603.5c5.2-6.4,4.7-17.4,12.7-20.6c-0.5,5.8-2.4,9-4.2,12.9c-4.2,9-7.1,18.7-5.6,29.7
	c0,1.9,0.5,3.9-1.9,4.5c-2.4,0-2.8-1.9-2.4-3.9c1.9-14.2-3.8-24.5-8-35.5c-0.9-1.9-3.3-4.5-0.9-6.4c1.9-1.9,3.8,0.6,4.7,3.9
	C755.5,592.5,757.4,597.7,759.8,603.5z"/>
<path class="st2" d="M1087.6,606.1c0-5.2,0-10.3,0-15.5c0-2.6-1.4-7.1,2.4-7.1c3.3,0,1.9,4.5,1.9,6.4c0,9,0.5,18.1,0,27.1
	c0,5.2,1.4,6.4,4.7,6.4c1.4,0,2.8,0,3.8,0c1.4,0,2.3,0.6,2.3,2.6c0,1.9-0.5,3.2-2.3,3.2c-3.8,0-7.1,0-10.8,0c-2.8,0-2.4-2.6-2.4-5.2
	C1087.6,618.3,1087.6,612.5,1087.6,606.1z"/>
<path class="st2" d="M654.9,603.5c0,2.6,0,5.8,0,8.4c0,10.3,0,10.3,7.5,11.6c1.4,0,2.8,0,2.8,3.2c0,3.2-1.4,3.2-3.3,3.2h-0.5
	c-11.3,0.6-11.3,0.6-11.3-14.8c0-9,0-17.4,0-26.4c0-2.6,0-5.2,2.8-5.2c2.8,0,1.9,3.2,1.9,5.2C654.9,593.8,654.9,598.4,654.9,603.5z"
	/>
<path class="st2" d="M929.1,609.3c0-3.9,0-7.1,0-11c0.5-6.4,0-11-5.6-9c-1.4,0.6-2.4,0-2.4-2.6c0-1.9,0.5-3.2,2.4-3.2
	c5.6,0,10.8,0,16.5,0c1.4,0,1.9,0.6,1.9,2.6c0,2.6-0.9,3.2-2.4,3.2c-6.1-1.9-6.1,3.9-5.6,9.7c0,8.4,0,16.1,0,24.5
	c0,2.6,0.9,6.4-2.4,6.4c-3.3,0-1.9-3.9-1.9-6.4C929.1,618.3,929.1,613.8,929.1,609.3z"/>
<path class="st2" d="M452.1,583.5c2.4,0,4.7,0,7.5,0c1.4,0,2.8,0,2.8,2.6c0,2.6-0.9,3.2-2.4,3.2c-6.6-1.9-5.6,3.9-5.6,9.7
	c0,8.4,0,16.8,0,25.1c0,2.6,0.9,5.8-2.4,5.2c-3.3,0-1.9-3.2-1.9-5.8c0-9-0.5-18.7,0-27.7c0-5.2-0.5-7.7-4.7-7.1
	c-1.4,0.6-3.8,0.6-3.3-3.2c0-3.2,1.9-2.6,3.3-2.6C447.4,583.5,449.8,583.5,452.1,583.5z"/>
<path class="st2" d="M1196.8,609.3c0-3.9,0-7.1,0-11c0-5.8,0.5-11-5.6-9.7c-0.9,0.6-2.4-0.6-2.4-2.6c0-2.6,0.9-3.2,2.4-3.2
	c5.2,0,10.3,0,16,0c1.4,0,2.3,0.6,2.3,3.2c0,2.6-0.9,3.2-2.3,2.6c-6.1-1.9-5.7,3.2-5.7,9c0,7.7,0,16.1,0,23.9c0,2.6,1.9,7.1-1.9,7.1
	c-3.8,0-2.4-4.5-2.4-7.1C1196.8,618.3,1196.8,613.8,1196.8,609.3z"/>
<path class="st2" d="M860.4,606.1c0-5.2,0-9.7,0-14.8c0-2.6-1.4-7.1,1.9-7.1c4.2,0,2.4,5.2,2.4,7.7c0.5,8.4,0.5,16.8,0,25.8
	c-0.5,5.8,0.9,7.7,5.2,6.4c0.9,0,2.4,0,3.3,0c1.4,0,2.4,0.6,2.4,3.2s-0.9,3.2-2.4,3.2c-3.3,0-6.6,0-10.3,0c-2.4,0-2.8-1.9-2.8-4.5
	C860.4,619,860.4,612.5,860.4,606.1z"/>
<path class="st2" d="M956.4,606.7c0,6.4,0,12.3,0,18.7c0,2.6,0,4.5-2.8,4.5c-2.4,0-2.4-1.9-2.4-4.5c0-12.3,0-24.5,0-36.8
	c0-1.9-0.5-5.2,2.4-5.2c2.4,0,2.4,1.9,2.4,4.5C956.4,594.5,956.4,600.3,956.4,606.7z"/>
<path class="st2" d="M1117.7,606.7c0,6.4,0,12.3,0,18.7c0,2.6,0,4.5-2.8,4.5c-2.3,0-2.3-1.9-2.3-4.5c0-12.3,0-24.5,0-36.8
	c0-1.9-0.5-4.5,2.3-4.5c2.8,0,2.4,2.6,2.4,4.5C1117.7,594.5,1117.7,600.3,1117.7,606.7z"/>
<path class="st2" d="M1174.7,606.1c0-6.4,0-12.3,0-18.7c0-2.6,0.5-3.9,2.4-3.9c1.9,0,1.9,1.9,1.9,3.9c0,12.9,0,25.8,0,38.7
	c0,1.9,0,3.9-2.4,3.9c-2.4,0-1.9-2.6-1.9-4.5C1174.7,619,1174.7,612.5,1174.7,606.1z"/>
</svg>
