<svg height="512pt" viewBox="0 -36 512 511" width="512pt" xmlns="http://www.w3.org/2000/svg"><path d="m124 364.5c0 33.136719-26.863281 60-60 60s-60-26.863281-60-60c0-33.140625 26.863281-60 60-60s60 26.859375 60 60zm0 0" fill="#ff5252"/><path d="m64 428.5c-35.289062 0-64-28.714844-64-64 0-35.289062 28.710938-64 64-64s64 28.710938 64 64c0 35.285156-28.703125 64-64 64zm0-120c-30.878906 0-56 25.117188-56 56 0 30.878906 25.121094 56 56 56s56-25.121094 56-56c0-30.882812-25.121094-56-56-56zm0 0" fill="#263238"/><path d="m86.632812 391.121094c-1.023437 0-2.046874-.390625-2.832031-1.167969-10.921875-10.917969-28.6875-10.910156-39.601562 0-1.558594 1.5625-4.09375 1.5625-5.65625 0-1.558594-1.558594-1.558594-4.09375 0-5.65625 14.03125-14.03125 36.863281-14.039063 50.914062 0 1.558594 1.5625 1.558594 4.097656 0 5.65625-.785156.777344-1.800781 1.167969-2.824219 1.167969zm0 0" fill="#263238"/><path d="m52 356.5c0 4.417969-3.582031 8-8 8s-8-3.582031-8-8c0-4.421875 3.582031-8 8-8s8 3.578125 8 8zm0 0" fill="#263238"/><path d="m92 356.5c0 4.417969-3.582031 8-8 8s-8-3.582031-8-8c0-4.421875 3.582031-8 8-8s8 3.578125 8 8zm0 0" fill="#263238"/><path d="m124.007812 76.5c0 33.136719-26.863281 60-60 60-33.136718 0-60-26.863281-60-60 0-33.140625 26.863282-60 60-60 33.136719 0 60 26.859375 60 60zm0 0" fill="#4db6ac"/><g fill="#263238"><path d="m64 140.5c-35.289062 0-64-28.714844-64-64 0-35.289062 28.710938-64 64-64s64 28.710938 64 64c0 35.285156-28.703125 64-64 64zm0-120c-30.878906 0-56 25.117188-56 56 0 30.878906 25.121094 56 56 56s56-25.121094 56-56c0-30.882812-25.121094-56-56-56zm0 0"/><path d="m64 112.480469c-9.214844 0-18.433594-3.503907-25.457031-10.527344-1.558594-1.558594-1.558594-4.09375 0-5.65625 1.5625-1.558594 4.097656-1.558594 5.65625 0 10.921875 10.914063 28.6875 10.914063 39.601562 0 1.558594-1.558594 4.09375-1.558594 5.65625 0 1.558594 1.5625 1.558594 4.097656 0 5.65625-7.015625 7.015625-16.234375 10.527344-25.457031 10.527344zm0 0"/><path d="m52.007812 68.5c0 4.417969-3.582031 8-8 8-4.417968 0-8-3.582031-8-8 0-4.421875 3.582032-8 8-8 4.417969 0 8 3.578125 8 8zm0 0"/><path d="m92.007812 68.5c0 4.417969-3.582031 8-8 8-4.417968 0-8-3.582031-8-8 0-4.421875 3.582032-8 8-8 4.417969 0 8 3.578125 8 8zm0 0"/><path d="m64 284.5c-35.289062 0-64-28.714844-64-64 0-35.289062 28.710938-64 64-64s64 28.710938 64 64c0 35.285156-28.703125 64-64 64zm0-120c-30.878906 0-56 25.117188-56 56 0 30.878906 25.121094 56 56 56s56-25.121094 56-56c0-30.882812-25.121094-56-56-56zm0 0"/><path d="m86.632812 247.121094h-45.257812c-2.207031 0-4-1.789063-4-4 0-2.207032 1.792969-4 4-4h45.257812c2.207032 0 4 1.792968 4 4 0 2.210937-1.792968 4-4 4zm0 0"/><path d="m52 212.5c0 4.417969-3.582031 8-8 8s-8-3.582031-8-8c0-4.421875 3.582031-8 8-8s8 3.578125 8 8zm0 0"/><path d="m92 212.5c0 4.417969-3.582031 8-8 8s-8-3.582031-8-8c0-4.421875 3.582031-8 8-8s8 3.578125 8 8zm0 0"/><path d="m364 240.5c-41.953125 0-77.96875-27.800781-88.761719-68.007812-12.878906-.417969-23.238281-11.019532-23.238281-23.992188 0-12.984375 10.351562-23.585938 23.238281-23.992188 10.792969-40.21875 46.816407-68.007812 88.761719-68.007812s77.96875 27.789062 88.761719 68.007812c12.878906.398438 23.238281 11.007813 23.238281 23.992188 0 12.980469-10.351562 23.582031-23.238281 23.992188-10.792969 40.207031-46.808594 68.007812-88.761719 68.007812zm-86.246094-76.160156c1.917969 0 4.039063 1.199218 4.460938 3.023437 8.808594 38.351563 42.449218 65.136719 81.785156 65.136719s72.976562-26.785156 81.792969-65.128906c.453125-1.992188 2.34375-3.34375 4.359375-3.082032 1.070312.144532 1.457031.210938 1.847656.210938 8.824219 0 16-7.175781 16-16s-7.175781-16-16-16c-.382812 0-.761719.0625-1.136719.109375-2.078125.289063-4.617187-.96875-5.078125-2.984375-8.808594-38.351562-42.441406-65.125-81.785156-65.125s-72.976562 26.78125-81.792969 65.125c-.453125 1.992188-2.390625 3.3125-4.359375 3.082031-1.078125-.152343-1.457031-.207031-1.847656-.207031-8.824219 0-16 7.175781-16 16s7.175781 16 16 16c.398438 0 .785156-.066406 1.167969-.121094.191406-.023437.382812-.039062.585937-.039062zm0 0"/></g><path d="m284 140.5h-4v-52h24v32c0 11.039062-8.953125 20-20 20zm0 0" fill="#ffd740"/><path d="m284 144.5h-4c-2.207031 0-4-1.792969-4-4v-52c0-2.210938 1.792969-4 4-4h24c2.207031 0 4 1.789062 4 4v32c0 13.230469-10.761719 24-24 24zm0-8h.078125zm0-44v44c8.824219 0 16-7.175781 16-16v-28zm0 0" fill="#263238"/><path d="m424 88.089844v32.402344c0 11.046874 8.953125 20 20 20h4v-63.480469c-6.304688 6.199219-14.703125 10.144531-24 11.078125zm0 0" fill="#ffd740"/><path d="m448 144.5h-4c-13.230469 0-24-10.769531-24-24v-32.402344c0-2.054687 1.550781-3.773437 3.601562-3.984375 8.238282-.832031 15.902344-4.359375 21.597657-9.949219 1.160156-1.128906 2.871093-1.457031 4.34375-.832031 1.488281.621094 2.457031 2.078125 2.457031 3.6875v63.480469c0 2.207031-1.785156 4-4 4zm-20-52.9375v28.9375c0 8.824219 7.175781 16 16 16v-51.210938c-4.808594 3.074219-10.257812 5.21875-16 6.273438zm0 0" fill="#263238"/><path d="m364 192.472656c-11.273438 0-22.535156-4.285156-31.113281-12.863281-1.558594-1.558594-1.558594-4.09375 0-5.65625 1.5625-1.558594 4.097656-1.558594 5.65625 0 14.042969 14.042969 36.871093 14.042969 50.914062 0 1.558594-1.558594 4.09375-1.558594 5.65625 0 1.558594 1.5625 1.558594 4.097656 0 5.65625-8.578125 8.578125-19.839843 12.863281-31.113281 12.863281zm0 0" fill="#263238"/><path d="m420 88.5h-140c0-33.136719 26.863281-60 60-60h41.640625c17.367187 0 34.519531-3.769531 50.289063-11.050781l28.070312-12.949219v44c0 22.085938-17.902344 40-40 40zm0 0" fill="#ffd740"/><path d="m420 92.5h-140c-2.207031 0-4-1.792969-4-4 0-35.289062 28.710938-64 64-64h41.648438c16.671874 0 33.480468-3.691406 48.609374-10.671875l28.070313-12.960937c1.230469-.570313 2.679687-.472657 3.832031.261718 1.152344.730469 1.839844 2 1.839844 3.371094v44c0 24.253906-19.734375 44-44 44zm-135.855469-8h135.855469c19.847656 0 36-16.152344 36-36v-37.753906l-22.390625 10.335937c-16.167969 7.464844-34.136719 11.417969-51.960937 11.417969h-41.648438c-29.527344 0-53.800781 22.972656-55.855469 52zm0 0" fill="#263238"/><path d="m384 412.996094-20 23.503906-20-23.503906 12-120.496094h16zm0 0" fill="#40c4ff"/><path d="m364 440.5c-1.167969 0-2.289062-.515625-3.046875-1.410156l-20-23.503906c-.707031-.832032-1.042969-1.910157-.9375-2.992188l12-120.496094c.199219-2.046875 1.929687-3.605468 3.984375-3.605468h16c2.054688 0 3.777344 1.558593 3.984375 3.605468l12 120.496094c.113281 1.082031-.230469 2.160156-.9375 2.992188l-20 23.503906c-.757813.894531-1.871094 1.410156-3.046875 1.410156zm-15.847656-28.800781 15.847656 18.625 15.847656-18.625-11.472656-115.199219h-8.757812zm0 0" fill="#263238"/><path d="m284 440.5c-2.207031 0-4-1.792969-4-4v-80c0-2.210938 1.792969-4 4-4s4 1.78125 4 4v80c0 2.207031-1.785156 4-4 4zm0 0" fill="#263238"/><path d="m444 440.5c-2.207031 0-4-1.792969-4-4v-80c0-2.210938 1.792969-4 4-4s4 1.78125 4 4v80c0 2.207031-1.785156 4-4 4zm0 0" fill="#263238"/><path d="m220 440.5c-2.207031 0-4-1.792969-4-4v-104.441406c0-25.640625 15.222656-48.726563 38.792969-58.824219l55.78125-23.902344c2.011719-.882812 4.378906.0625 5.25 2.101563.871093 2.023437-.070313 4.375-2.105469 5.25l-55.78125 23.902344c-20.609375 8.839843-33.9375 29.039062-33.9375 51.472656v104.441406c0 2.207031-1.785156 4-4 4zm0 0" fill="#263238"/><path d="m508 440.5c-2.207031 0-4-1.792969-4-4v-104.441406c0-22.433594-13.328125-42.640625-33.945312-51.472656l-55.78125-23.910157c-2.035157-.875-2.976563-3.226562-2.105469-5.25.863281-2.03125 3.238281-2.976562 5.246093-2.101562l55.785157 23.910156c23.578125 10.097656 38.800781 33.191406 38.800781 58.824219v104.441406c0 2.207031-1.785156 4-4 4zm0 0" fill="#263238"/><path d="m315.480469 296.5c-.558594 0-1.128907-.121094-1.65625-.355469-1.320313-.597656-2.207031-1.863281-2.335938-3.308593l-3.328125-39.496094c-.144531-1.722656.824219-3.335938 2.40625-4.007813l19.859375-8.503906c1.757813-.753906 3.832031-.144531 4.902344 1.453125l16 24c1.183594 1.777344.769531 4.167969-.953125 5.441406l-32.527344 24c-.695312.511719-1.527344.777344-2.367187.777344zm.894531-40.953125 2.488281 29.488281 23.695313-17.488281-12.039063-18.054687zm0 0" fill="#263238"/><path d="m412.457031 296.5c-.839843 0-1.679687-.265625-2.378906-.785156l-32.445313-24c-1.710937-1.265625-2.136718-3.664063-.953124-5.433594l16-24c1.074218-1.605469 3.152343-2.214844 4.90625-1.453125l19.847656 8.503906c1.582031.679688 2.558594 2.300781 2.40625 4.015625l-3.398438 39.496094c-.128906 1.4375-1.015625 2.703125-2.335937 3.300781-.53125.234375-1.097657.355469-1.648438.355469zm-27.007812-28.953125 23.640625 17.480469 2.535156-29.488282-14.136719-6.058593zm0 0" fill="#263238"/><path d="m372 292.5h-16c-4.414062 0-8-3.585938-8-8v-8c0-4.417969 3.585938-8 8-8h16c4.414062 0 8 3.582031 8 8v8c0 4.414062-3.574219 8-8 8zm0 0" fill="#40c4ff"/><path d="m372 296.5h-16c-6.617188 0-12-5.386719-12-12v-8c0-6.617188 5.382812-12 12-12h16c6.617188 0 12 5.382812 12 12v8c0 6.613281-5.375 12-12 12zm-16-24c-2.207031 0-4 1.789062-4 4v8c0 2.207031 1.792969 4 4 4h16c2.207031 0 4-1.792969 4-4v-8c0-2.210938-1.792969-4-4-4zm0 0" fill="#263238"/><path d="m349.953125 275.425781c-.074219 0-.152344 0-.21875-.007812-1.253906-.0625-2.40625-.726563-3.109375-1.777344l-17.953125-26.925781c-.433594-.65625-.671875-1.425782-.671875-2.214844v-14.089844c0-1.328125.65625-2.558594 1.742188-3.304687 1.089843-.742188 2.488281-.902344 3.714843-.414063 19.671875 7.703125 41.414063 7.703125 61.085938 0 1.226562-.488281 2.625-.328125 3.714843.414063 1.09375.746093 1.742188 1.984375 1.742188 3.304687v14.089844c0 .789062-.230469 1.558594-.671875 2.214844l-17.953125 26.925781c-.695312 1.050781-1.847656 1.707031-3.109375 1.777344-1.335937.082031-2.480469-.464844-3.289063-1.421875-.464843-.5625-1.472656-1.496094-2.976562-1.496094h-16c-1.433594 0-2.414062.8125-2.992188 1.496094-.75.910156-1.871093 1.429687-3.054687 1.429687zm-13.953125-32.136719 14.929688 22.394532c1.574218-.777344 3.308593-1.183594 5.070312-1.183594h16c1.769531 0 3.496094.40625 5.070312 1.175781l14.929688-22.386719v-7.199218c-18.175781 5.855468-37.824219 5.855468-56 0zm0 0" fill="#263238"/><path d="m196 81.011719h-56c-2.207031 0-4-1.792969-4-4 0-2.210938 1.792969-4 4-4h56c2.207031 0 4 1.789062 4 4 0 2.207031-1.785156 4-4 4zm0 0" fill="#263238"/><path d="m172 105.011719c-1.023438 0-2.046875-.394531-2.832031-1.167969-1.558594-1.5625-1.558594-4.097656 0-5.65625l21.167969-21.167969-21.167969-21.167969c-1.558594-1.5625-1.558594-4.097656 0-5.65625 1.558593-1.5625 4.097656-1.5625 5.65625 0l24 24c1.558593 1.558594 1.558593 4.09375 0 5.65625l-24 24c-.777344.773438-1.800781 1.160157-2.824219 1.160157zm0 0" fill="#263238"/><path d="m196 224.5h-56c-2.207031 0-4-1.792969-4-4 0-2.210938 1.792969-4 4-4h56c2.207031 0 4 1.789062 4 4 0 2.207031-1.785156 4-4 4zm0 0" fill="#263238"/><path d="m172 248.5c-1.023438 0-2.046875-.394531-2.832031-1.167969-1.558594-1.5625-1.558594-4.097656 0-5.65625l21.175781-21.175781-21.167969-21.167969c-1.558593-1.5625-1.558593-4.097656 0-5.65625 1.558594-1.5625 4.097657-1.5625 5.65625 0l24 24c1.558594 1.558594 1.558594 4.09375 0 5.65625l-24 24c-.785156.773438-1.808593 1.167969-2.832031 1.167969zm0 0" fill="#263238"/><path d="m196 368.5h-56c-2.207031 0-4-1.792969-4-4 0-2.210938 1.792969-4 4-4h56c2.207031 0 4 1.789062 4 4 0 2.207031-1.785156 4-4 4zm0 0" fill="#263238"/><path d="m172 392.5c-1.023438 0-2.046875-.394531-2.832031-1.167969-1.558594-1.5625-1.558594-4.097656 0-5.65625l21.175781-21.175781-21.167969-21.167969c-1.558593-1.5625-1.558593-4.097656 0-5.65625 1.558594-1.5625 4.097657-1.5625 5.65625 0l24 24c1.558594 1.558594 1.558594 4.09375 0 5.65625l-24 24c-.785156.773438-1.808593 1.167969-2.832031 1.167969zm0 0" fill="#263238"/></svg>