<svg width="75" height="75" viewBox="0 0 75 75" fill="none" xmlns="http://www.w3.org/2000/svg">
<path d="M53.125 41.0311V52.5842H46.4281V41.8029C46.4281 39.0967 45.4594 37.2498 43.0344 37.2498C41.1844 37.2498 40.0812 38.4936 39.5969 39.6998C39.4219 40.1311 39.375 40.7311 39.375 41.3311V52.5842H32.675C32.675 52.5842 32.7656 34.3279 32.675 32.4373H39.375V35.2904L39.3313 35.3561H39.375V35.2936C40.2656 33.9186 41.8531 31.9623 45.4125 31.9623C49.8187 31.9623 53.125 34.8436 53.125 41.0311ZM25.6656 22.7217C23.375 22.7217 21.875 24.2279 21.875 26.2029C21.875 28.1404 23.3313 29.6873 25.5781 29.6873H25.6219C27.9594 29.6873 29.4125 28.1373 29.4125 26.2029C29.3687 24.2279 27.9594 22.7217 25.6656 22.7217ZM22.2719 52.5842H28.9719V32.4373H22.2719V52.5842Z" fill="#1B2531"/>
<path d="M37.5 62.5C44.1304 62.5 50.4893 59.8661 55.1777 55.1777C59.8661 50.4893 62.5 44.1304 62.5 37.5C62.5 30.8696 59.8661 24.5107 55.1777 19.8223C50.4893 15.1339 44.1304 12.5 37.5 12.5C30.8696 12.5 24.5107 15.1339 19.8223 19.8223C15.1339 24.5107 12.5 30.8696 12.5 37.5C12.5 44.1304 15.1339 50.4893 19.8223 55.1777C24.5107 59.8661 30.8696 62.5 37.5 62.5ZM37.5 68.75C20.2406 68.75 6.25 54.7594 6.25 37.5C6.25 20.2406 20.2406 6.25 37.5 6.25C54.7594 6.25 68.75 20.2406 68.75 37.5C68.75 54.7594 54.7594 68.75 37.5 68.75Z" fill="#1B2531"/>
</svg>
