<svg width="75" height="75" viewBox="0 0 75 75" fill="none" xmlns="http://www.w3.org/2000/svg">
<path d="M37.5 62.5C44.1304 62.5 50.4893 59.8661 55.1777 55.1777C59.8661 50.4893 62.5 44.1304 62.5 37.5C62.5 30.8696 59.8661 24.5107 55.1777 19.8223C50.4893 15.1339 44.1304 12.5 37.5 12.5C30.8696 12.5 24.5107 15.1339 19.8223 19.8223C15.1339 24.5107 12.5 30.8696 12.5 37.5C12.5 44.1304 15.1339 50.4893 19.8223 55.1777C24.5107 59.8661 30.8696 62.5 37.5 62.5ZM37.5 68.75C20.2406 68.75 6.25 54.7594 6.25 37.5C6.25 20.2406 20.2406 6.25 37.5 6.25C54.7594 6.25 68.75 20.2406 68.75 37.5C68.75 54.7594 54.7594 68.75 37.5 68.75Z" fill="#1B2531"/>
<path d="M53.125 27.9594C51.975 28.4594 50.7406 28.8032 49.4437 28.9532C50.7687 28.1719 51.7813 26.9344 52.2625 25.4625C50.9999 26.1984 49.6222 26.716 48.1875 26.9938C47.584 26.3612 46.8579 25.8582 46.0536 25.5154C45.2494 25.1726 44.3837 24.9973 43.5094 25C39.9688 25 37.1 27.8282 37.1 31.3125C37.1 31.8063 37.1563 32.2875 37.2656 32.75C34.726 32.6294 32.2394 31.9808 29.9645 30.8455C27.6896 29.7102 25.6763 28.1132 24.0531 26.1563C23.483 27.116 23.1828 28.2119 23.1844 29.3282C23.1844 31.5157 24.3187 33.4532 26.0375 34.5813C25.0201 34.5494 24.0246 34.2785 23.1312 33.7907V33.8688C23.1409 35.3358 23.6587 36.7542 24.5966 37.8824C25.5345 39.0106 26.8344 39.7788 28.275 40.0563C27.3292 40.3064 26.3397 40.3427 25.3781 40.1625C25.7973 41.4246 26.599 42.5249 27.6719 43.3106C28.7449 44.0963 30.0359 44.5284 31.3656 44.5469C29.0843 46.3049 26.2832 47.2547 23.4031 47.2469C22.8875 47.2469 22.3781 47.2157 21.875 47.1594C24.814 49.0197 28.2218 50.0049 31.7 50C43.4937 50 49.9406 40.3813 49.9406 32.0375L49.9188 31.2188C51.1759 30.3353 52.2623 29.2309 53.125 27.9594Z" fill="#1B2531"/>
</svg>
