<svg width="55" height="55" viewBox="0 0 55 55" fill="none" xmlns="http://www.w3.org/2000/svg">
<path fill-rule="evenodd" clip-rule="evenodd" d="M42.1735 12.909C40.2677 10.9906 38.0001 9.4695 35.5022 8.43374C33.0042 7.39798 30.3256 6.86819 27.6215 6.87507C16.2823 6.87507 7.05146 16.1036 7.04688 27.4474C7.04688 31.0728 7.99333 34.6111 9.79229 37.7324L6.875 48.3909L17.781 45.5286C20.7978 47.1708 24.1775 48.0319 27.6123 48.0334H27.6215C38.9583 48.0334 48.1892 38.8049 48.1937 27.4611C48.2015 24.758 47.6735 22.0803 46.6402 19.5825C45.6069 17.0847 44.0887 14.8165 42.1735 12.909ZM27.6215 44.5615H27.6146C24.5518 44.5618 21.5454 43.7378 18.9108 42.1759L18.2875 41.8046L11.8158 43.5028L13.5415 37.1938L13.1358 36.5476C11.4235 33.8215 10.517 30.6666 10.521 27.4474C10.5256 18.0194 18.1958 10.3492 27.6283 10.3492C29.8747 10.3442 32.0998 10.7848 34.1748 11.6455C36.2498 12.5062 38.1335 13.7699 39.7169 15.3634C41.3087 16.9493 42.5704 18.835 43.4291 20.9115C44.2878 22.988 44.7264 25.2141 44.7196 27.4611C44.715 36.889 37.0448 44.5615 27.6215 44.5615ZM37.0012 31.7534C36.4856 31.4944 33.9602 30.2524 33.4881 30.0805C33.0183 29.9086 32.6769 29.8238 32.3331 30.3371C31.9894 30.8505 31.004 32.0078 30.7037 32.3515C30.4035 32.6953 30.1033 32.7365 29.59 32.4799C29.0767 32.2232 27.4198 31.6801 25.4558 29.9292C23.9273 28.5657 22.896 26.8836 22.5958 26.368C22.2956 25.8524 22.5637 25.5751 22.8227 25.3184C23.0542 25.0892 23.336 24.718 23.5927 24.4178C23.8494 24.1176 23.9342 23.9044 24.106 23.5607C24.2779 23.2169 24.1931 22.9167 24.0625 22.6601C23.9342 22.4011 22.9052 19.8711 22.4767 18.8421C22.0619 17.8453 21.6379 17.9782 21.3217 17.9644C20.9941 17.951 20.6663 17.9449 20.3385 17.9461C20.0779 17.9527 19.8214 18.0132 19.5852 18.1236C19.349 18.234 19.1381 18.392 18.9658 18.5878C18.4937 19.1034 17.1669 20.3455 17.1669 22.8755C17.1669 25.4055 19.0094 27.8507 19.266 28.1944C19.5227 28.5382 22.8915 33.7288 28.0477 35.9563C29.276 36.4857 30.234 36.8019 30.9787 37.0403C32.2094 37.4321 33.33 37.3749 34.2169 37.2442C35.2046 37.0976 37.2579 36.0021 37.6865 34.8013C38.115 33.6005 38.115 32.5715 37.9867 32.3561C37.8583 32.1407 37.5123 32.0101 37.0012 31.7534Z" fill="#1B2531"/>
</svg>
