<svg width="55" height="55" viewBox="0 0 55 55" fill="none" xmlns="http://www.w3.org/2000/svg">
<path d="M45.8335 6.875H29.7919C28.5315 6.875 27.5002 7.90625 27.5002 9.16667V29.7917L34.3752 22.9167H45.8335C47.094 22.9167 48.1252 21.8854 48.1252 20.625V9.16667C48.1252 7.90625 47.094 6.875 45.8335 6.875ZM44.069 34.9708L38.2481 34.3063C37.5637 34.2259 36.8699 34.3016 36.219 34.5279C35.568 34.7541 34.9768 35.125 34.4898 35.6125L30.2731 39.8292C23.7675 36.5205 18.4797 31.2327 15.171 24.7271L19.4106 20.4875C20.396 19.5021 20.8773 18.1271 20.7169 16.7292L20.0523 10.9542C19.9224 9.83624 19.3859 8.80512 18.5449 8.05715C17.704 7.30918 16.6173 6.89658 15.4919 6.89792H11.5273C8.93772 6.89792 6.78355 9.05208 6.94397 11.6417C8.15855 31.2125 23.8106 46.8417 43.3585 48.0563C45.9481 48.2167 48.1023 46.0625 48.1023 43.4729V39.5083C48.1252 37.1938 46.3835 35.2458 44.069 34.9708Z" fill="#1B2531"/>
</svg>
