<svg width="55" height="55" viewBox="0 0 55 55" fill="none" xmlns="http://www.w3.org/2000/svg">
<path d="M45.8337 9.16675H13.7503C11.2226 9.16675 9.16699 11.2224 9.16699 13.7501V25.2084H13.7503V18.3334L28.417 29.3334C28.8138 29.6306 29.2962 29.7912 29.792 29.7912C30.2878 29.7912 30.7702 29.6306 31.167 29.3334L45.8337 18.3334V38.9584H27.5003V43.5417H45.8337C48.3614 43.5417 50.417 41.4861 50.417 38.9584V13.7501C50.417 11.2224 48.3614 9.16675 45.8337 9.16675ZM29.792 24.6355L15.2766 13.7501H44.3074L29.792 24.6355Z" fill="#1B2531"/>
<path d="M4.58301 27.5H20.6247V32.0833H4.58301V27.5ZM9.16634 34.375H22.9163V38.9583H9.16634V34.375ZM16.0413 41.25H25.208V45.8333H16.0413V41.25Z" fill="#1B2531"/>
</svg>
