<svg width="38" height="20" viewBox="0 0 38 20" fill="none" xmlns="http://www.w3.org/2000/svg">
<path d="M36.996 2.56467C37.0308 2.29084 36.8369 2.03989 36.563 2.00416L32.0989 1.42189C31.825 1.38616 31.5748 1.57918 31.54 1.85301C31.5052 2.12685 31.6991 2.3778 31.973 2.41353L35.941 2.9311L35.4374 6.89764C35.4026 7.17147 35.5965 7.42242 35.8704 7.45815C36.1444 7.49388 36.3946 7.30086 36.4294 7.02703L36.996 2.56467ZM0.901746 12.3933C1.65353 12.982 2.37962 13.5271 3.08181 14.0304L3.66244 13.2183C2.97285 12.724 2.25815 12.1875 1.51651 11.6067L0.901746 12.3933ZM7.68782 16.9236C9.57182 17.915 11.2712 18.5393 12.8398 18.8425L13.0262 17.8607C11.5762 17.5804 9.97046 16.9964 8.15103 16.0389L7.68782 16.9236ZM18.3866 18.5027C20.0667 17.9244 21.6026 16.9311 23.1154 15.6815L22.477 14.9096C21.0151 16.1171 19.584 17.0318 18.0582 17.557L18.3866 18.5027ZM27.0552 11.9721C28.2402 10.7718 29.4731 9.49267 30.8213 8.17076L30.1199 7.45548C28.7642 8.78478 27.5166 10.0788 26.3424 11.2683L27.0552 11.9721ZM34.7383 4.57213C35.3994 4.01053 36.0875 3.45068 36.8062 2.89632L36.1938 2.10364C35.4617 2.6683 34.7615 3.23808 34.0894 3.80898L34.7383 4.57213ZM37.492 2.62937C37.5615 2.08171 37.1738 1.57981 36.6259 1.50834L27.6979 0.343807C27.15 0.272345 26.6495 0.658384 26.58 1.20605C26.5105 1.75371 26.8982 2.25562 27.4461 2.32708L35.3821 3.36222L34.3748 11.2953C34.3053 11.843 34.693 12.3449 35.2409 12.4163C35.7888 12.4878 36.2893 12.1018 36.3588 11.5541L37.492 2.62937ZM0.594365 12.7866C1.35122 13.3793 2.08301 13.9287 2.79149 14.4365L3.95276 12.8122C3.26946 12.3225 2.56045 11.7902 1.82389 11.2135L0.594365 12.7866ZM7.45622 17.3659C9.3725 18.3743 11.1187 19.0188 12.7466 19.3334L13.1194 17.3697C11.7287 17.1009 10.1698 16.5371 8.38263 15.5966L7.45622 17.3659ZM18.5508 18.9756C20.3081 18.3706 21.8963 17.3381 23.4346 16.0675L22.1578 14.5236C20.7213 15.7101 19.3426 16.5855 17.894 17.0842L18.5508 18.9756ZM27.4116 12.3241C28.602 11.1183 29.8276 9.84661 31.1719 8.5284L29.7693 7.09784C28.4098 8.43084 27.1548 9.73236 25.986 10.9163L27.4116 12.3241ZM35.0627 4.95371C35.7184 4.39676 36.4004 3.84187 37.1124 3.29266L35.8876 1.70729C35.1488 2.27712 34.4425 2.85185 33.7649 3.4274L35.0627 4.95371Z" fill="#1B2531"/>
</svg>
