<svg width="54" height="33" viewBox="0 0 54 33" fill="none" xmlns="http://www.w3.org/2000/svg">
<path d="M49.0099 18.7714C48.8825 19.0167 48.5806 19.1128 48.3356 18.9859L44.3436 16.9194C44.0986 16.7926 44.0034 16.4909 44.1308 16.2456C44.2582 16.0003 44.5601 15.9043 44.8051 16.0311L48.3535 17.868L50.1996 14.3146C50.327 14.0693 50.6289 13.9732 50.8739 14.1001C51.1189 14.2269 51.2142 14.5285 51.0867 14.7738L49.0099 18.7714ZM1.52455 5.69928C1.68315 6.60855 1.84191 7.48948 2.00083 8.34272L1.01774 8.5283C0.858094 7.67113 0.698659 6.78645 0.539431 5.87361L1.52455 5.69928ZM2.98852 13.2854C3.37426 15.0778 3.76081 16.7155 4.14818 18.2078L3.18025 18.4614C2.78888 16.9537 2.39915 15.3023 2.0109 13.4982L2.98852 13.2854ZM5.59675 23.1174C6.24706 25.0298 6.89654 26.5594 7.54323 27.7543L6.6635 28.2321C5.98234 26.9734 5.31203 25.3886 4.64993 23.4416L5.59675 23.1174ZM10.681 31.1184C11.8735 31.5179 13.1756 30.9719 14.6658 29.4889L15.3702 30.1969C13.8137 31.7458 12.1203 32.656 10.3611 32.0667L10.681 31.1184ZM17.7538 25.5065C18.6174 24.1843 19.4921 22.7063 20.3798 21.1446L21.2488 21.6371C20.3567 23.2066 19.4704 24.7048 18.5905 26.0519L17.7538 25.5065ZM22.873 16.6629C23.704 15.158 24.5456 13.6429 25.3967 12.179L26.2609 12.6799C25.4158 14.1335 24.5789 15.64 23.7481 17.1445L22.873 16.6629ZM28.1134 7.79894C29.1604 6.24702 30.2298 4.84516 31.3223 3.70234L32.0442 4.39242C31.0051 5.4794 29.9712 6.83105 28.9419 8.35677L28.1134 7.79894ZM35.8057 0.758237C37.5096 0.351094 39.2199 0.796354 40.8999 2.26476L40.2408 3.01846C38.76 1.7242 37.372 1.41154 36.0357 1.73085L35.8057 0.758237ZM44.1175 6.41248C44.8676 7.70311 45.6207 9.23328 46.3779 11.0251L45.4566 11.4164C44.7119 9.65423 43.977 8.16322 43.2526 6.91665L44.1175 6.41248ZM48.2001 15.8293C48.4803 16.6445 48.7613 17.4977 49.0431 18.3901L48.0895 18.6935C47.81 17.8085 47.5317 16.9633 47.2544 16.1565L48.2001 15.8293ZM49.4534 19.001C49.1986 19.4916 48.5948 19.6837 48.1048 19.4301L40.1209 15.297C39.6309 15.0434 39.4404 14.4401 39.6953 13.9495C39.9502 13.4589 40.554 13.2667 41.0439 13.5204L48.1407 17.1942L51.8329 10.0875C52.0877 9.59684 52.6915 9.40472 53.1815 9.65834C53.6714 9.91197 53.862 10.5153 53.6071 11.0059L49.4534 19.001ZM2.0171 5.61211C2.1754 6.51961 2.33382 7.39866 2.49237 8.24993L0.526199 8.62109C0.366184 7.76195 0.206412 6.87539 0.0468739 5.96077L2.0171 5.61211ZM3.47733 13.179C3.86182 14.9655 4.24678 16.5964 4.63215 18.081L2.69628 18.5883C2.30291 17.0728 1.91159 15.4145 1.52209 13.6046L3.47733 13.179ZM6.07016 22.9554C6.71458 24.8504 7.35365 26.3523 7.9831 27.5155L6.22364 28.4709C5.52523 27.1804 4.84452 25.5681 4.17652 23.6037L6.07016 22.9554ZM10.8409 30.6442C11.7501 30.9488 12.8565 30.5849 14.3136 29.1349L15.7224 30.5508C14.1328 32.1327 12.2436 33.2251 10.2012 32.5409L10.8409 30.6442ZM17.3354 25.2339C18.1909 23.924 19.0599 22.4561 19.9453 20.8984L21.6834 21.8833C20.789 23.4568 19.8969 24.965 19.0089 26.3246L17.3354 25.2339ZM22.4354 16.422C23.2666 14.9169 24.1105 13.3976 24.9647 11.9285L26.6929 12.9304C25.8509 14.3787 25.0163 15.8811 24.1856 17.3854L22.4354 16.422ZM27.6992 7.52003C28.755 5.95501 29.8421 4.52805 30.9613 3.35731L32.4052 4.73746C31.3927 5.79652 30.3766 7.12306 29.3562 8.63568L27.6992 7.52003ZM35.6907 0.271932C37.5784 -0.17913 39.4499 0.33243 41.2295 1.8879L39.9112 3.39532C38.53 2.18812 37.3032 1.94177 36.1507 2.21715L35.6907 0.271932ZM44.55 6.1604C45.3128 7.47306 46.075 9.0228 46.8385 10.8294L44.996 11.6121C44.2576 9.8647 43.5318 8.39328 42.8202 7.16873L44.55 6.1604ZM48.673 15.6657C48.9546 16.4851 49.237 17.3423 49.52 18.2383L47.6127 18.8452C47.3344 17.964 47.0573 17.1227 46.7815 16.3202L48.673 15.6657Z" fill="#1B2531"/>
</svg>
