<svg width="57" height="33" viewBox="0 0 57 33" fill="none" xmlns="http://www.w3.org/2000/svg">
<path d="M4.6474 18.763C4.77023 19.0106 5.07029 19.1124 5.3176 18.9902L9.34785 16.999C9.59517 16.8768 9.69609 16.577 9.57326 16.3294C9.45044 16.0817 9.15038 15.98 8.90307 16.1022L5.32062 17.8721L3.54147 14.2849C3.41865 14.0373 3.11859 13.9356 2.87127 14.0577C2.62396 14.1799 2.52304 14.4797 2.64586 14.7274L4.6474 18.763ZM55.3258 5.72585C55.1538 6.65235 54.9815 7.5494 54.8091 8.4177L55.79 8.61491C55.9632 7.74235 56.1362 6.84123 56.309 5.91088L55.3258 5.72585ZM53.7328 13.4609C53.3107 15.2932 52.8876 16.9625 52.4636 18.4786L53.4266 18.7503C53.8554 17.2172 54.2822 15.5329 54.7072 13.6878L53.7328 13.4609ZM50.874 23.4529C50.1616 25.3748 49.4504 26.8938 48.7429 28.0632L49.5988 28.5825C50.3486 27.3433 51.0852 25.7628 51.8118 23.8026L50.874 23.4529ZM45.2808 31.2121C44.0197 31.4762 42.6506 30.8469 41.1241 29.387L40.434 30.1089C42.0267 31.6321 43.7257 32.56 45.4882 32.1909L45.2808 31.2121ZM37.8631 25.3962C36.9414 24.0661 36.0079 22.5829 35.0605 21.0186L34.2055 21.535C35.1575 23.107 36.1031 24.6099 37.0417 25.9644L37.8631 25.3962ZM32.3879 16.515C31.4949 15.001 30.5904 13.4787 29.6756 12.0103L28.8272 12.5375C29.7351 13.9949 30.6344 15.5082 31.5269 17.0214L32.3879 16.515ZM26.7569 7.62871C25.6338 6.08279 24.4867 4.69183 23.3149 3.56602L22.6231 4.2863C23.737 5.35646 24.8451 6.6965 25.9485 8.21514L26.7569 7.62871ZM18.6383 0.753671C16.8968 0.37847 15.1422 0.793822 13.4056 2.17701L14.0298 2.95987C15.5648 1.73725 17.0198 1.4274 18.4301 1.73124L18.6383 0.753671ZM9.94839 6.28331C9.13777 7.57607 8.32398 9.11418 7.50588 10.9206L8.41697 11.3351C9.22087 9.56007 10.0141 8.06306 10.796 6.81616L9.94839 6.28331ZM5.53271 15.7854C5.22978 16.6112 4.92599 17.476 4.62131 18.3811L5.56911 18.7024C5.87113 17.8052 6.17196 16.9488 6.47161 16.132L5.53271 15.7854ZM4.1996 18.9842C4.44524 19.4795 5.04536 19.6829 5.54 19.4386L13.6005 15.4562C14.0951 15.2119 14.297 14.6122 14.0513 14.117C13.8057 13.6217 13.2056 13.4183 12.7109 13.6626L5.54603 17.2025L1.98774 10.028C1.74209 9.53276 1.14197 9.32935 0.647339 9.57373C0.152705 9.8181 -0.0491327 10.4177 0.196515 10.913L4.1996 18.9842ZM54.8342 5.63333C54.6625 6.55791 54.4907 7.45293 54.3187 8.31909L56.2804 8.71351C56.4541 7.83883 56.6275 6.93568 56.8006 6.0034L54.8342 5.63333ZM53.2455 13.3474C52.8249 15.1734 52.4037 16.8351 51.982 18.3428L53.9082 18.8861C54.3393 17.3446 54.768 15.6527 55.1945 13.8012L53.2455 13.3474ZM50.4052 23.278C49.6998 25.1808 49.0013 26.6691 48.3149 27.8035L50.0268 28.8422C50.7977 27.568 51.5469 25.9568 52.2806 23.9775L50.4052 23.278ZM45.1771 30.7227C44.1667 30.9343 42.9626 30.4543 41.4692 29.0261L40.0889 30.4698C41.7147 32.0247 43.5787 33.1019 45.5919 32.6803L45.1771 30.7227ZM38.2739 25.1121C37.3605 23.7941 36.433 22.3209 35.488 20.7604L33.778 21.7932C34.7323 23.369 35.684 24.8818 36.631 26.2484L38.2739 25.1121ZM32.8184 16.2618C31.9251 14.7474 31.018 13.2206 30.0997 11.7467L28.403 12.8011C29.3075 14.2529 30.2041 15.7618 31.0965 17.2746L32.8184 16.2618ZM27.1612 7.33549C26.0281 5.77594 24.8616 4.35952 23.6608 3.20588L22.2772 4.64644C23.3621 5.68877 24.4508 7.00335 25.5442 8.50836L27.1612 7.33549ZM18.7424 0.264886C16.8352 -0.145996 14.9308 0.322109 13.0935 1.78558L14.342 3.3513C15.7761 2.20896 17.0814 1.95187 18.326 2.22003L18.7424 0.264886ZM9.5246 6.01688C8.6996 7.33257 7.87553 8.89124 7.05034 10.7133L8.87252 11.5424C9.66932 9.78301 10.4523 8.30656 11.2198 7.08259L9.5246 6.01688ZM5.06326 15.6121C4.75869 16.4424 4.45342 17.3114 4.1474 18.2205L6.04301 18.863C6.3437 17.9697 6.64306 17.1176 6.94106 16.3053L5.06326 15.6121Z" fill="#1B2531"/>
</svg>
