<svg width="30" height="45" viewBox="0 0 30 45" fill="none" xmlns="http://www.w3.org/2000/svg">
<path d="M14.2929 43.7071C14.6834 44.0976 15.3166 44.0976 15.7071 43.7071L22.0711 37.3431C22.4616 36.9526 22.4616 36.3195 22.0711 35.9289C21.6805 35.5384 21.0474 35.5384 20.6569 35.9289L15 41.5858L9.34315 35.9289C8.95262 35.5384 8.31946 35.5384 7.92893 35.9289C7.53841 36.3195 7.53841 36.9526 7.92893 37.3431L14.2929 43.7071ZM14 0V2.6875H16V0L14 0ZM14 8.0625V13.4375H16V8.0625H14ZM14 18.8125V24.1875H16V18.8125H14ZM14 29.5625V34.9375H16L16 29.5625H14ZM14 40.3125L14 43H16V40.3125H14ZM13.5858 44.4142C14.3668 45.1953 15.6332 45.1953 16.4142 44.4142L29.1421 31.6863C29.9232 30.9052 29.9232 29.6389 29.1421 28.8579C28.3611 28.0768 27.0948 28.0768 26.3137 28.8579L15 40.1716L3.68629 28.8579C2.90524 28.0768 1.63891 28.0768 0.857864 28.8579C0.0768156 29.6389 0.0768156 30.9052 0.857864 31.6863L13.5858 44.4142ZM13 0V2.6875H17V0L13 0ZM13 8.0625V13.4375H17V8.0625H13ZM13 18.8125V24.1875H17V18.8125H13ZM13 29.5625V34.9375H17L17 29.5625H13ZM13 40.3125L13 43H17V40.3125H13Z" fill="#1B2531"/>
</svg>
