<svg width="30" height="181" viewBox="0 0 30 181" fill="none" xmlns="http://www.w3.org/2000/svg">
<path d="M14.2929 179.707C14.6834 180.098 15.3166 180.098 15.7071 179.707L22.0711 173.343C22.4616 172.953 22.4616 172.319 22.0711 171.929C21.6805 171.538 21.0474 171.538 20.6569 171.929L15 177.586L9.34315 171.929C8.95262 171.538 8.31946 171.538 7.92893 171.929C7.53841 172.319 7.53841 172.953 7.92893 173.343L14.2929 179.707ZM14 0V2.03409H16V0L14 0ZM14 6.10227V10.1705H16V6.10227H14ZM14 14.2386L14 18.3068H16V14.2386H14ZM14 22.375V26.4432H16V22.375H14ZM14 30.5114V34.5795H16L16 30.5114H14ZM14 38.6477V42.7159H16V38.6477H14ZM14 46.7841V50.8523H16V46.7841H14ZM14 54.9205V58.9887H16V54.9205H14ZM14 63.0568V67.125H16V63.0568H14ZM14 71.1932L14 75.2614H16V71.1932H14ZM14 79.3296V83.3978H16V79.3296H14ZM14 87.4659V91.5341H16V87.4659H14ZM14 95.6023V99.6705H16V95.6023H14ZM14 103.739V107.807H16V103.739H14ZM14 111.875V115.943H16V111.875H14ZM14 120.011V124.08H16V120.011H14ZM14 128.148V132.216H16V128.148H14ZM14 136.284V140.352H16V136.284H14ZM14 144.42V148.489H16L16 144.42H14ZM14 152.557V156.625H16V152.557H14ZM14 160.693V164.761H16V160.693H14ZM14 168.83V172.898H16V168.83H14ZM14 176.966V179H16V176.966H14ZM13.5858 180.414C14.3668 181.195 15.6332 181.195 16.4142 180.414L29.1421 167.686C29.9232 166.905 29.9232 165.639 29.1421 164.858C28.3611 164.077 27.0948 164.077 26.3137 164.858L15 176.172L3.68629 164.858C2.90524 164.077 1.63891 164.077 0.857864 164.858C0.0768156 165.639 0.0768156 166.905 0.857864 167.686L13.5858 180.414ZM13 0V2.03409H17V0L13 0ZM13 6.10227V10.1705H17V6.10227H13ZM13 14.2386L13 18.3068H17V14.2386H13ZM13 22.375V26.4432H17V22.375H13ZM13 30.5114V34.5795H17L17 30.5114H13ZM13 38.6477L13 42.7159H17V38.6477H13ZM13 46.7841V50.8523H17V46.7841H13ZM13 54.9205V58.9887H17V54.9205H13ZM13 63.0568V67.125H17V63.0568H13ZM13 71.1932L13 75.2614H17V71.1932H13ZM13 79.3296V83.3978H17V79.3296H13ZM13 87.4659V91.5341H17V87.4659H13ZM13 95.6023V99.6705H17V95.6023H13ZM13 103.739V107.807H17V103.739H13ZM13 111.875V115.943H17V111.875H13ZM13 120.011V124.08H17V120.011H13ZM13 128.148V132.216H17V128.148H13ZM13 136.284V140.352H17V136.284H13ZM13 144.42V148.489H17V144.42H13ZM13 152.557V156.625H17V152.557H13ZM13 160.693V164.761H17V160.693H13ZM13 168.83V172.898H17V168.83H13ZM13 176.966V179H17V176.966H13Z" fill="#1B2531" fill-opacity="0.63"/>
</svg>
