<svg width="24" height="25" viewBox="0 0 24 25" fill="none" xmlns="http://www.w3.org/2000/svg">
<path d="M0.93924 0.0461178C0.944229 0.0481095 0.949265 0.0497244 0.954205 0.0518776L23.5425 9.74111C24.0801 9.97177 24.1642 10.8044 23.6862 11.169L18.7336 14.9457C18.7163 15.0288 16.929 23.5744 16.9171 23.6248C16.7782 24.2211 16.1224 24.4283 15.7367 23.987L12.1929 19.9335L6.74495 24.088C6.34607 24.3921 5.80554 24.1621 5.67467 23.638C5.62836 23.4525 0.0304241 1.04294 0.0213871 1.00117C-0.113909 0.372435 0.416548 -0.163227 0.93924 0.0461178ZM21.7564 10.6997L5.88804 3.89292L18.1111 13.4795L21.7564 10.6997ZM15.2941 16.5981C15.2962 16.6017 15.2977 16.6054 15.2997 16.609C15.3066 16.6214 15.3132 16.634 15.3195 16.6468C15.3589 16.7259 15.3862 16.8096 15.4004 16.8951L16.1884 20.1733L17.3105 14.8096L6.37746 6.23473C15.7775 17.1358 15.2354 16.4962 15.2927 16.596C15.2931 16.5967 15.2937 16.5974 15.2941 16.5981ZM14.8475 20.6861L14.2834 18.3393L13.3908 19.0199L14.8475 20.6861ZM6.76646 22.1306C6.83262 22.0802 13.4708 17.0181 13.6048 16.9159L2.14416 3.62511L6.76646 22.1306Z" fill="#1B2531"/>
</svg>
