<svg id="Layer_3" enable-background="new 0 0 64 64" height="512" viewBox="0 0 64 64" width="512" xmlns="http://www.w3.org/2000/svg"><path d="m11 55h18c.553 0 1-.448 1-1v-4c0-3.401-2.44-6.241-5.66-6.868.576-.605 1.025-1.329 1.31-2.132h3.35c.553 0 1-.448 1-1v-4c0-.552-.447-1-1-1h-1c0-3.007-1.67-5.63-4.129-6.996.084-.327.129-.664.129-1.004 0-2.206-1.794-4-4-4s-4 1.794-4 4c0 .34.045.677.13 1.004-2.46 1.366-4.13 3.988-4.13 6.996v.184c-1.161.414-2 1.514-2 2.816 0 1.654 1.346 3 3 3h1.35c.285.803.734 1.527 1.31 2.132-3.22.627-5.66 3.467-5.66 6.868v4c0 .552.447 1 1 1zm9-10h3l-1.108 1.478-1.185-1.185c-.195-.195-.451-.293-.707-.293s-.512.098-.707.293l-1.185 1.185-1.108-1.478zm0-2c-2.206 0-4-1.794-4-4v-2h3c1.634 0 3.087-.788 4-2.003.283.377.624.707 1 .991v3.012h-2v2h1.444c-.694 1.19-1.97 2-3.444 2zm8-4h-2v-2h2zm-10-12c0-1.103.897-2 2-2s2 .897 2 2c0 .086-.022.17-.033.255-.631-.161-1.287-.255-1.967-.255s-1.336.094-1.967.255c-.011-.085-.033-.168-.033-.255zm2 2c3.251 0 5.906 2.599 5.998 5.828-1.163-.413-1.998-1.525-1.998-2.828 0-.552-.447-1-1-1s-1 .448-1 1c0 1.654-1.346 3-3 3h-5c0-3.309 2.691-6 6-6zm-7 10c-.552 0-1-.449-1-1s.448-1 1-1h1v2zm-1 11c0-1.993 1.18-3.703 2.871-4.506l2.329 3.106c.174.232.439.377.729.397.301.019.573-.085.778-.291l1.293-1.292 1.293 1.293c.188.189.442.293.707.293.023 0 .047-.001.071-.002.289-.021.555-.166.729-.397l2.329-3.106c1.691.802 2.871 2.512 2.871 4.505v3h-2v-4h-2v4h-8v-4h-2v4h-2z"/><path d="m38 37h-6v2h5v18h-34v-18h5v-2h-6c-.553 0-1 .448-1 1v20c0 .552.447 1 1 1h15v2h-4v2h14v-2h-4v-2h15c.553 0 1-.448 1-1v-20c0-.552-.447-1-1-1zm-17 24h-2v-2h2z"/><path d="m62.882 13.528c-.174-.325-.513-.528-.882-.528-1.654 0-3-1.346-3-3v-1c0-4.411-3.589-8-8-8s-8 3.589-8 8v1c0 1.654-1.346 3-3 3-.369 0-.708.203-.882.528s-.155.719.05 1.026c1.238 1.858 3.198 3.066 5.374 3.367-2.112 1.207-3.542 3.477-3.542 6.079v4c0 .552.447 1 1 1h18c.553 0 1-.448 1-1v-4c0-2.602-1.43-4.872-3.542-6.079 2.176-.3 4.136-1.508 5.374-3.367.205-.306.224-.701.05-1.026zm-11.882 5.472h3l-1.108 1.478-1.185-1.185c-.195-.195-.451-.293-.707-.293s-.512.098-.707.293l-1.185 1.185-1.108-1.478zm4-6c0 2.206-1.794 4-4 4s-4-1.794-4-4v-2c1.634 0 3.087-.788 4-2.003.913 1.215 2.366 2.003 4 2.003zm4 11v3h-2v-4h-2v4h-8v-4h-2v4h-2v-3c0-1.993 1.18-3.703 2.871-4.506l2.329 3.106c.174.232.439.377.729.397.301.019.573-.085.778-.291l1.293-1.292 1.293 1.293c.188.189.442.293.707.293.023 0 .047-.001.071-.002.289-.021.555-.166.729-.397l2.329-3.106c1.691.802 2.871 2.512 2.871 4.505zm-2.605-8h-.206c.512-.884.811-1.907.811-3v-3c0-.552-.447-1-1-1h-1c-1.654 0-3-1.346-3-3 0-.552-.447-1-1-1s-1 .448-1 1c0 1.654-1.346 3-3 3h-1c-.553 0-1 .448-1 1v3c0 1.093.299 2.116.812 3h-.206c-1.384 0-2.696-.495-3.721-1.369 1.825-.745 3.115-2.54 3.115-4.631v-1c0-3.309 2.691-6 6-6s6 2.691 6 6v1c0 2.091 1.29 3.886 3.115 4.631-1.024.874-2.337 1.369-3.72 1.369z"/><path d="m31 11h10v-2h-10c-6.617 0-12 5.383-12 12h2c0-5.514 4.486-10 10-10z"/><path d="m51 37c0 5.514-4.486 10-10 10v2c6.617 0 12-5.383 12-12v-6h-2z"/></svg>