<svg id="Layer_3" enable-background="new 0 0 64 64" height="512" viewBox="0 0 64 64" width="512" xmlns="http://www.w3.org/2000/svg"><path d="m62 1h-8c-.553 0-1 .448-1 1v1h-42v-1c0-.552-.447-1-1-1h-8c-.553 0-1 .448-1 1v24c0 .552.447 1 1 1h1v35c0 .552.447 1 1 1h4 48 4c.553 0 1-.448 1-1v-35h1c.553 0 1-.448 1-1v-24c0-.552-.447-1-1-1zm-7 58-13.2-17.6c-.189-.252-.486-.4-.8-.4h-18c-.314 0-.611.148-.8.4l-13.2 17.6v-32h1c.553 0 1-.448 1-1v-1h42v1c0 .552.447 1 1 1h1zm-2-54v18h-42v-18zm-50-2h6v1 20 1h-6zm2 58v-34h2v34zm28 0v-2h-2v2h-21l13.5-18h7.5v2h2v-2h7.5l13.5 18zm26 0h-2v-34h2zm2-36h-6v-1-20-1h6z"/><path d="m19 16c0-1.654-1.346-3-3-3-.552 0-1-.449-1-1s.448-1 1-1h3v-2h-3c-1.654 0-3 1.346-3 3s1.346 3 3 3c.552 0 1 .449 1 1s-.448 1-1 1h-3v2h3c1.654 0 3-1.346 3-3z"/><path d="m23 19h2v-8h2v-2h-6v2h2z"/><path d="m47 19h2v-8h2v-2h-6v2h2z"/><path d="m31 17h2v2h2v-7c0-1.654-1.346-3-3-3s-3 1.346-3 3v7h2zm1-6c.552 0 1 .449 1 1v3h-2v-3c0-.551.448-1 1-1z"/><path d="m39 16h1c.552 0 1 .449 1 1v2h2v-2c0-.842-.349-1.604-.909-2.149.564-.622.909-1.447.909-2.351 0-1.93-1.57-3.5-3.5-3.5h-1.5c-.553 0-1 .448-1 1v9h2zm0-5h.5c.827 0 1.5.673 1.5 1.5s-.673 1.5-1.5 1.5h-.5z"/><path d="m31 55h2v2h-2z"/><path d="m31 51h2v2h-2z"/><path d="m31 47h2v2h-2z"/></svg>