<svg width="18" height="20" viewBox="0 0 18 20" fill="none" xmlns="http://www.w3.org/2000/svg">
<path d="M0.158203 19.8242C0.0527341 19.707 -2.38418e-07 19.5671 -2.38418e-07 19.4043C-2.38418e-07 19.2415 0.0527341 19.1016 0.158203 18.9844L1.31836 17.6758C1.42383 17.5586 1.55273 17.5 1.70508 17.5C1.85742 17.5 1.98633 17.5586 2.0918 17.6758C2.19727 17.793 2.25 17.9362 2.25 18.1055C2.25 18.2747 2.19727 18.418 2.0918 18.5352L0.914062 19.8242C0.808594 19.9414 0.682617 20 0.536133 20C0.389648 20 0.263672 19.9414 0.158203 19.8242ZM3.19922 13.4375C3.23438 13.3984 3.30469 13.3464 3.41016 13.2813C3.43359 13.3854 3.47461 13.4701 3.5332 13.5352L5.81836 16.0742C5.87695 16.1393 5.95312 16.1849 6.04687 16.2109C5.98828 16.3411 5.94141 16.4193 5.90625 16.4453L3.18164 17.6953L2.07422 16.4648L3.19922 13.4375ZM4.78125 13.1836C4.60547 12.9753 4.51758 12.7214 4.51758 12.4219C4.51758 12.1224 4.60547 11.8685 4.78125 11.6602L13.8867 1.5625C14.0508 1.38021 14.2471 1.2793 14.4756 1.25977C14.7041 1.24023 14.9121 1.30208 15.0996 1.44531L16.2422 0.175781C16.3477 0.0585938 16.4795 0 16.6377 0C16.7959 0 16.9277 0.0585938 17.0332 0.175781L17.8418 1.07422C17.9473 1.19141 18 1.33789 18 1.51367C18 1.68945 17.9473 1.83594 17.8418 1.95313L16.6992 3.22266C16.8281 3.43099 16.8838 3.66211 16.8662 3.91602C16.8486 4.16992 16.7578 4.38802 16.5937 4.57031L15.7324 5.54688V8.61328C15.7676 8.83464 15.7207 9.01693 15.5918 9.16016L11.0391 14.1992C10.9336 14.3164 10.8076 14.375 10.6611 14.375C10.5146 14.375 10.3887 14.3164 10.2832 14.1992C10.1777 14.082 10.125 13.9421 10.125 13.7793C10.125 13.6165 10.1777 13.4766 10.2832 13.3594L14.6426 8.49609V6.73828L7.50586 14.6875C7.31836 14.8958 7.09277 15 6.8291 15C6.56543 15 6.33984 14.8958 6.15234 14.6875L4.78125 13.1836Z" fill="#1B2531"/>
</svg>
