<svg width="75" height="75" viewBox="0 0 75 75" fill="none" xmlns="http://www.w3.org/2000/svg">
<path d="M33.4215 27.9281V32.2313H30.2715V37.4906H33.4215V53.125H39.8965V37.4906H44.2402C44.2402 37.4906 44.6496 34.9688 44.8465 32.2094H39.9215V28.6156C39.9215 28.075 40.6277 27.3531 41.3277 27.3531H44.8527V21.875H40.0559C33.2621 21.875 33.4215 27.1406 33.4215 27.9281Z" fill="#1B2531"/>
<path d="M37.5 62.5C44.1304 62.5 50.4893 59.8661 55.1777 55.1777C59.8661 50.4893 62.5 44.1304 62.5 37.5C62.5 30.8696 59.8661 24.5107 55.1777 19.8223C50.4893 15.1339 44.1304 12.5 37.5 12.5C30.8696 12.5 24.5107 15.1339 19.8223 19.8223C15.1339 24.5107 12.5 30.8696 12.5 37.5C12.5 44.1304 15.1339 50.4893 19.8223 55.1777C24.5107 59.8661 30.8696 62.5 37.5 62.5ZM37.5 68.75C20.2406 68.75 6.25 54.7594 6.25 37.5C6.25 20.2406 20.2406 6.25 37.5 6.25C54.7594 6.25 68.75 20.2406 68.75 37.5C68.75 54.7594 54.7594 68.75 37.5 68.75Z" fill="#1B2531"/>
</svg>
