<svg width="75" height="75" viewBox="0 0 75 75" fill="none" xmlns="http://www.w3.org/2000/svg">
<path d="M37.5 62.5C44.1304 62.5 50.4893 59.8661 55.1777 55.1777C59.8661 50.4893 62.5 44.1304 62.5 37.5C62.5 30.8696 59.8661 24.5107 55.1777 19.8223C50.4893 15.1339 44.1304 12.5 37.5 12.5C30.8696 12.5 24.5107 15.1339 19.8223 19.8223C15.1339 24.5107 12.5 30.8696 12.5 37.5C12.5 44.1304 15.1339 50.4893 19.8223 55.1777C24.5107 59.8661 30.8696 62.5 37.5 62.5ZM37.5 68.75C20.2406 68.75 6.25 54.7594 6.25 37.5C6.25 20.2406 20.2406 6.25 37.5 6.25C54.7594 6.25 68.75 20.2406 68.75 37.5C68.75 54.7594 54.7594 68.75 37.5 68.75Z" fill="#1B2531"/>
<path d="M46.6344 26.6436H28.3656C24.7812 26.6436 21.875 29.5186 21.875 33.0623V42.0936C21.875 45.6404 24.7812 48.5123 28.3656 48.5123H46.6344C50.2188 48.5123 53.125 45.6373 53.125 42.0936V33.0623C53.125 29.5154 50.2188 26.6436 46.6344 26.6436ZM42.2469 38.0186L33.7 42.0498C33.6477 42.0745 33.59 42.0856 33.5323 42.0821C33.4746 42.0786 33.4187 42.0606 33.3698 42.0298C33.3209 41.9989 33.2805 41.9562 33.2525 41.9057C33.2244 41.8551 33.2096 41.7983 33.2094 41.7404V33.4279C33.2099 33.3694 33.2254 33.3119 33.2543 33.261C33.2833 33.2101 33.3248 33.1674 33.3749 33.137C33.425 33.1067 33.482 33.0896 33.5406 33.0875C33.5991 33.0853 33.6572 33.0982 33.7094 33.1248L42.2531 37.4061C42.3093 37.4354 42.3563 37.4797 42.3888 37.5341C42.4214 37.5885 42.4383 37.6508 42.4376 37.7142C42.437 37.7776 42.4188 37.8396 42.3852 37.8933C42.3515 37.947 42.3036 37.9903 42.2469 38.0186Z" fill="#1B2531"/>
</svg>
